Pliska-Bold.ufo
<glyph name="exclam" format="2">
  <advance width="333"/>
  <unicode hex="0021"/>
  <outline>
    <contour>
      <point x="82" y="69.8715" type="curve" smooth="yes"/>
      <point x="82" y="24"/>
      <point x="118" y="-13"/>
      <point x="165" y="-13" type="curve" smooth="yes"/>
      <point x="213" y="-13"/>
      <point x="251" y="24"/>
      <point x="251" y="70" type="curve" smooth="yes"/>
      <point x="251" y="117"/>
      <point x="213" y="156"/>
      <point x="166" y="156" type="curve" smooth="yes"/>
      <point x="120" y="156"/>
      <point x="82" y="117"/>
    </contour>
    <contour>
      <point x="81" y="589.257" type="curve" smooth="yes"/>
      <point x="81" y="566"/>
      <point x="85" y="547"/>
      <point x="100.877" y="495.307" type="curve" smooth="yes"/>
      <point x="128" y="407"/>
      <point x="138" y="357"/>
      <point x="151" y="234" type="curve"/>
      <point x="180" y="234" type="line"/>
      <point x="193" y="357"/>
      <point x="202" y="406"/>
      <point x="229.541" y="493.631" type="curve" smooth="yes"/>
      <point x="246" y="546"/>
      <point x="250" y="566"/>
      <point x="250" y="589" type="curve" smooth="yes"/>
      <point x="250" y="654"/>
      <point x="219" y="691"/>
      <point x="166" y="691" type="curve" smooth="yes"/>
      <point x="112" y="691"/>
      <point x="81" y="654"/>
    </contour>
  </outline>
</glyph>
<glyph name="quotedbl" format="2">
  <advance width="555"/>
  <unicode hex="0022"/>
  <outline>
    <contour>
      <point x="82" y="627.993" type="curve" smooth="yes"/>
      <point x="82" y="600"/>
      <point x="95.7684" y="530.423"/>
      <point x="115" y="450" type="curve" smooth="yes"/>
      <point x="126" y="404" type="line"/>
      <point x="167" y="404" type="line"/>
      <point x="177.484" y="450" type="line" smooth="yes"/>
      <point x="195.818" y="530.438"/>
      <point x="211" y="599.518"/>
      <point x="211" y="628.065" type="curve" smooth="yes"/>
      <point x="211" y="660"/>
      <point x="192" y="691"/>
      <point x="145.891" y="691" type="curve" smooth="yes"/>
      <point x="100" y="691"/>
      <point x="82" y="660"/>
    </contour>
    <contour>
      <point x="342" y="627.993" type="curve" smooth="yes"/>
      <point x="342" y="600"/>
      <point x="355.768" y="530.423"/>
      <point x="375" y="450" type="curve" smooth="yes"/>
      <point x="386" y="404" type="line"/>
      <point x="427" y="404" type="line"/>
      <point x="437.484" y="450" type="line" smooth="yes"/>
      <point x="455.818" y="530.438"/>
      <point x="471" y="599.518"/>
      <point x="471" y="628.065" type="curve" smooth="yes"/>
      <point x="471" y="660"/>
      <point x="452" y="691"/>
      <point x="405.891" y="691" type="curve" smooth="yes"/>
      <point x="360" y="691"/>
      <point x="342" y="660"/>
    </contour>
  </outline>
</glyph>
<glyph name="numbersign" format="2">
  <advance width="500"/>
  <unicode hex="0023"/>
  <outline>
    <contour>
      <point x="4" y="210" type="line"/>
      <point x="100" y="210" type="line"/>
      <point x="71" y="0" type="line"/>
      <point x="149" y="0" type="line"/>
      <point x="178" y="210" type="line"/>
      <point x="291" y="210" type="line"/>
      <point x="262" y="0" type="line"/>
      <point x="340" y="0" type="line"/>
      <point x="369" y="210" type="line"/>
      <point x="467" y="210" type="line"/>
      <point x="467" y="283" type="line"/>
      <point x="380" y="283" type="line"/>
      <point x="398" y="417" type="line"/>
      <point x="496" y="417" type="line"/>
      <point x="496" y="490" type="line"/>
      <point x="408" y="490" type="line"/>
      <point x="437" y="700" type="line"/>
      <point x="360" y="700" type="line"/>
      <point x="330" y="490" type="line"/>
      <point x="217" y="490" type="line"/>
      <point x="246" y="700" type="line"/>
      <point x="169" y="700" type="line"/>
      <point x="139" y="490" type="line"/>
      <point x="33" y="490" type="line"/>
      <point x="33" y="417" type="line"/>
      <point x="129" y="417" type="line"/>
      <point x="111" y="283" type="line"/>
      <point x="4" y="283" type="line"/>
    </contour>
    <contour>
      <point x="189" y="283" type="line"/>
      <point x="207" y="417" type="line"/>
      <point x="320" y="417" type="line"/>
      <point x="302" y="283" type="line"/>
    </contour>
  </outline>
</glyph>
<glyph name="dollar" format="2">
  <advance width="500"/>
  <unicode hex="0024"/>
  <outline>
    <contour>
      <point x="46" y="43" type="line"/>
      <point x="128" y="9"/>
      <point x="152" y="3"/>
      <point x="214" y="0" type="curve"/>
      <point x="214" y="-99" type="line"/>
      <point x="269" y="-99" type="line"/>
      <point x="269" y="0" type="line"/>
      <point x="412.493" y="26.2487"/>
      <point x="472" y="83.704"/>
      <point x="472" y="191.58" type="curve" smooth="yes"/>
      <point x="472" y="293.207"/>
      <point x="419.186" y="353.045"/>
      <point x="269" y="426" type="curve"/>
      <point x="269" y="641" type="line"/>
      <point x="345.866" y="626.608"/>
      <point x="374.351" y="593.582"/>
      <point x="407" y="481" type="curve"/>
      <point x="428" y="481" type="line"/>
      <point x="428" y="622" type="line"/>
      <point x="381" y="650"/>
      <point x="356.856" y="661"/>
      <point x="269" y="674" type="curve"/>
      <point x="269" y="750" type="line"/>
      <point x="214" y="750" type="line"/>
      <point x="214" y="672" type="line"/>
      <point x="97.2228" y="659.307"/>
      <point x="29" y="593.81"/>
      <point x="29" y="494.392" type="curve" smooth="yes"/>
      <point x="29" y="406.492"/>
      <point x="79.765" y="347.618"/>
      <point x="213" y="281" type="curve"/>
      <point x="213" y="30" type="line"/>
      <point x="138.605" y="44.0747"/>
      <point x="98.8312" y="89.5698"/>
      <point x="67" y="197" type="curve"/>
      <point x="46" y="199" type="line"/>
    </contour>
    <contour>
      <point x="124" y="556.283" type="curve" smooth="yes"/>
      <point x="124" y="602"/>
      <point x="150" y="628"/>
      <point x="213" y="644" type="curve"/>
      <point x="213" y="454" type="line"/>
      <point x="153" y="475"/>
      <point x="124" y="508"/>
    </contour>
    <contour>
      <point x="269" y="30" type="curve"/>
      <point x="269" y="250" type="line"/>
      <point x="357.542" y="205"/>
      <point x="362" y="188"/>
      <point x="362" y="143.143" type="curve" smooth="yes"/>
      <point x="362" y="75"/>
      <point x="351.713" y="42"/>
    </contour>
  </outline>
</glyph>
<glyph name="ampersand" format="2">
  <advance width="833"/>
  <unicode hex="0026"/>
  <outline>
    <contour>
      <point x="62" y="165.841" type="curve" smooth="yes"/>
      <point x="62" y="58"/>
      <point x="141" y="-15"/>
      <point x="257.483" y="-15" type="curve" smooth="yes"/>
      <point x="327" y="-15"/>
      <point x="393" y="11"/>
      <point x="475" y="72" type="curve"/>
      <point x="535" y="6"/>
      <point x="571" y="-16"/>
      <point x="628.913" y="-16" type="curve" smooth="yes"/>
      <point x="691.753" y="-16"/>
      <point x="724.786" y="9.90298"/>
      <point x="787" y="111" type="curve"/>
      <point x="767" y="123" type="line"/>
      <point x="750" y="96"/>
      <point x="733" y="85"/>
      <point x="706.21" y="85" type="curve" smooth="yes"/>
      <point x="671" y="85"/>
      <point x="646" y="104"/>
      <point x="590" y="176" type="curve"/>
      <point x="645" y="252"/>
      <point x="656" y="268"/>
      <point x="683" y="311" type="curve" smooth="yes"/>
      <point x="710" y="355" type="line" smooth="yes"/>
      <point x="728" y="384"/>
      <point x="740" y="391"/>
      <point x="783" y="395" type="curve"/>
      <point x="783" y="419" type="line"/>
      <point x="577" y="419" type="line"/>
      <point x="577" y="395" type="line"/>
      <point x="636" y="388"/>
      <point x="643" y="383"/>
      <point x="643" y="356.498" type="curve" smooth="yes"/>
      <point x="643" y="314"/>
      <point x="625" y="281"/>
      <point x="567" y="209" type="curve"/>
      <point x="508.11" y="285.46"/>
      <point x="471.89" y="338.54"/>
      <point x="416" y="423" type="curve"/>
      <point x="522" y="462"/>
      <point x="568" y="506"/>
      <point x="568" y="569" type="curve" smooth="yes"/>
      <point x="568" y="643"/>
      <point x="502" y="691"/>
      <point x="398.113" y="691" type="curve" smooth="yes"/>
      <point x="281" y="691"/>
      <point x="206" y="630"/>
      <point x="206" y="529.286" type="curve" smooth="yes"/>
      <point x="206" y="489"/>
      <point x="218" y="457"/>
      <point x="258" y="388" type="curve"/>
      <point x="116" y="318"/>
      <point x="62" y="255"/>
    </contour>
    <contour>
      <point x="201" y="261.711" type="curve" smooth="yes"/>
      <point x="201" y="301"/>
      <point x="220" y="326"/>
      <point x="275" y="358" type="curve"/>
      <point x="330.716" y="269.426"/>
      <point x="388.899" y="182.82"/>
      <point x="452" y="100" type="curve"/>
      <point x="413" y="72"/>
      <point x="388" y="61"/>
      <point x="362" y="61" type="curve" smooth="yes"/>
      <point x="272.347" y="61"/>
      <point x="201" y="185.577"/>
    </contour>
    <contour>
      <point x="323" y="596.272" type="curve" smooth="yes"/>
      <point x="323" y="637"/>
      <point x="343" y="658"/>
      <point x="373.429" y="658" type="curve" smooth="yes"/>
      <point x="424" y="658"/>
      <point x="467" y="600"/>
      <point x="467" y="533" type="curve" smooth="yes"/>
      <point x="467" y="502.652"/>
      <point x="441.936" y="469.567"/>
      <point x="391" y="446.775" type="curve"/>
      <point x="338" y="512.775"/>
      <point x="323" y="561"/>
    </contour>
  </outline>
</glyph>
<glyph name="quotesingle" format="2">
  <advance width="278"/>
  <unicode hex="0027"/>
  <outline>
    <contour>
      <point x="75" y="627.993" type="curve" smooth="yes"/>
      <point x="75" y="600"/>
      <point x="88.7684" y="530.423"/>
      <point x="108" y="450" type="curve" smooth="yes"/>
      <point x="119" y="404" type="line"/>
      <point x="160" y="404" type="line"/>
      <point x="170.484" y="450" type="line" smooth="yes"/>
      <point x="188.818" y="530.438"/>
      <point x="204" y="599.518"/>
      <point x="204" y="628.065" type="curve" smooth="yes"/>
      <point x="204" y="660"/>
      <point x="185" y="691"/>
      <point x="138.891" y="691" type="curve" smooth="yes"/>
      <point x="93" y="691"/>
      <point x="75" y="660"/>
    </contour>
  </outline>
</glyph>
<glyph name="parenright" format="2">
  <advance width="333"/>
  <unicode hex="0029"/>
  <outline>
    <contour>
      <point x="27" y="-141" type="curve"/>
      <point x="27" y="-168" type="line"/>
      <point x="89" y="-135"/>
      <point x="117" y="-114"/>
      <point x="155" y="-73" type="curve" smooth="yes"/>
      <point x="241" y="19"/>
      <point x="287" y="138"/>
      <point x="287" y="266" type="curve" smooth="yes"/>
      <point x="287" y="358"/>
      <point x="262" y="447"/>
      <point x="214" y="523" type="curve" smooth="yes"/>
      <point x="168" y="595"/>
      <point x="125" y="635"/>
      <point x="27" y="694" type="curve"/>
      <point x="27" y="666" type="line"/>
      <point x="84" y="629"/>
      <point x="109" y="604"/>
      <point x="130" y="559" type="curve" smooth="yes"/>
      <point x="160" y="497"/>
      <point x="174" y="404"/>
      <point x="174" y="268" type="curve" smooth="yes"/>
      <point x="174" y="130"/>
      <point x="160" y="29"/>
      <point x="132" y="-31" type="curve" smooth="yes"/>
      <point x="112" y="-75"/>
      <point x="87" y="-101"/>
    </contour>
  </outline>
</glyph>
<glyph name="comma" format="2">
  <advance width="250"/>
  <unicode hex="002C"/>
  <outline>
    <contour>
      <point x="39" y="72" type="curve" smooth="yes"/>
      <point x="39" y="26"/>
      <point x="69" y="-6"/>
      <point x="111.055" y="-5.6578" type="curve" smooth="yes"/>
      <point x="117.943" y="-5.6017"/>
      <point x="122.538" y="-4.6993"/>
      <point x="126.454" y="-3.9614" type="curve" smooth="yes"/>
      <point x="129.222" y="-3.4396"/>
      <point x="131.652" y="-3"/>
      <point x="134.312" y="-3" type="curve" smooth="yes"/>
      <point x="147" y="-3"/>
      <point x="155" y="-13"/>
      <point x="155" y="-29.6582" type="curve" smooth="yes"/>
      <point x="155" y="-64"/>
      <point x="121" y="-106"/>
      <point x="46" y="-158" type="curve"/>
      <point x="57" y="-180" type="line"/>
      <point x="173" y="-113"/>
      <point x="223" y="-47"/>
      <point x="223" y="34.3418" type="curve" smooth="yes"/>
      <point x="223" y="108"/>
      <point x="182" y="155"/>
      <point x="122" y="155" type="curve" smooth="yes"/>
      <point x="72" y="155"/>
      <point x="39" y="122"/>
    </contour>
  </outline>
</glyph>
<glyph name="zero" format="2">
  <advance width="500"/>
  <unicode hex="0030"/>
  <outline>
    <contour>
      <point x="24" y="332" type="curve" smooth="yes"/>
      <point x="24" y="131"/>
      <point x="122" y="-13"/>
      <point x="251.441" y="-13" type="curve" smooth="yes"/>
      <point x="390" y="-13"/>
      <point x="476" y="152"/>
      <point x="476" y="332" type="curve" smooth="yes"/>
      <point x="476" y="572"/>
      <point x="356" y="688"/>
      <point x="251" y="688" type="curve" smooth="yes"/>
      <point x="150" y="688"/>
      <point x="24" y="584"/>
    </contour>
    <contour>
      <point x="182" y="335.638" type="curve" smooth="yes"/>
      <point x="182" y="531.939"/>
      <point x="184.942" y="660"/>
      <point x="249" y="660" type="curve" smooth="yes"/>
      <point x="314.916" y="660"/>
      <point x="318" y="532.341"/>
      <point x="318" y="328.098" type="curve" smooth="yes"/>
      <point x="318" y="131.616"/>
      <point x="315.146" y="15"/>
      <point x="251" y="15" type="curve" smooth="yes"/>
      <point x="185.171" y="15"/>
      <point x="182" y="131.832"/>
    </contour>
  </outline>
</glyph>
<glyph name="one" format="2">
  <advance width="500"/>
  <unicode hex="0031"/>
  <outline>
    <contour>
      <point x="67" y="0" type="line"/>
      <point x="442" y="0" type="line"/>
      <point x="442" y="24" type="line"/>
      <point x="351" y="30"/>
      <point x="334" y="40"/>
      <point x="334" y="120" type="curve" smooth="yes"/>
      <point x="334" y="688" type="line"/>
      <point x="317" y="688" type="line"/>
      <point x="65" y="579" type="line"/>
      <point x="65" y="553" type="line"/>
      <point x="91.4979" y="564.777"/>
      <point x="124.976" y="578"/>
      <point x="146.822" y="578" type="curve" smooth="yes"/>
      <point x="175" y="578"/>
      <point x="186" y="556"/>
      <point x="186" y="509" type="curve" smooth="yes"/>
      <point x="186" y="120" type="line" smooth="yes"/>
      <point x="186" y="40"/>
      <point x="166" y="30"/>
      <point x="67" y="24" type="curve"/>
    </contour>
  </outline>
</glyph>
<glyph name="two" format="2">
  <advance width="500"/>
  <unicode hex="0032"/>
  <outline>
    <contour>
      <point x="17" y="0" type="line"/>
      <point x="433" y="0" type="line"/>
      <point x="478" y="211" type="line"/>
      <point x="454" y="211" type="line"/>
      <point x="424.648" y="139.717"/>
      <point x="412.333" y="133"/>
      <point x="311" y="133" type="curve" smooth="yes"/>
      <point x="160" y="133" type="line"/>
      <point x="322" y="287" type="line" smooth="yes"/>
      <point x="394.944" y="356.342"/>
      <point x="436" y="434"/>
      <point x="436" y="507.593" type="curve" smooth="yes"/>
      <point x="436" y="609.834"/>
      <point x="356.759" y="688"/>
      <point x="246.429" y="688" type="curve" smooth="yes"/>
      <point x="158.118" y="688"/>
      <point x="74.9431" y="609.238"/>
      <point x="31" y="484" type="curve"/>
      <point x="59" y="484" type="line"/>
      <point x="83.3396" y="539.258"/>
      <point x="131.126" y="574"/>
      <point x="181.16" y="574" type="curve" smooth="yes"/>
      <point x="246.215" y="574"/>
      <point x="300" y="515.263"/>
      <point x="300" y="439.312" type="curve" smooth="yes"/>
      <point x="300" y="360.206"/>
      <point x="241.656" y="264.279"/>
      <point x="76.3817" y="86.7755" type="curve" smooth="yes"/>
      <point x="17" y="23" type="line"/>
    </contour>
  </outline>
</glyph>
<glyph name="three" format="2">
  <advance width="500"/>
  <unicode hex="0033"/>
  <outline>
    <contour>
      <point x="16" y="73.1809" type="curve" smooth="yes"/>
      <point x="16" y="15"/>
      <point x="87" y="-14"/>
      <point x="172.216" y="-14" type="curve" smooth="yes"/>
      <point x="347" y="-14"/>
      <point x="468" y="108"/>
      <point x="468" y="242.701" type="curve" smooth="yes"/>
      <point x="468" y="323"/>
      <point x="425" y="395"/>
      <point x="346" y="424" type="curve"/>
      <point x="390" y="451"/>
      <point x="429" y="476"/>
      <point x="429" y="548.073" type="curve" smooth="yes"/>
      <point x="429" y="646"/>
      <point x="357" y="688"/>
      <point x="270.144" y="688" type="curve" smooth="yes"/>
      <point x="143" y="688"/>
      <point x="66" y="598"/>
      <point x="37" y="535" type="curve"/>
      <point x="58" y="523" type="line"/>
      <point x="88.355" y="571.568"/>
      <point x="123.285" y="607"/>
      <point x="183.216" y="607" type="curve" smooth="yes"/>
      <point x="250" y="607"/>
      <point x="283" y="563"/>
      <point x="283" y="504" type="curve" smooth="yes"/>
      <point x="283" y="413"/>
      <point x="201" y="388"/>
      <point x="153" y="373" type="curve"/>
      <point x="153" y="355.961" type="line"/>
      <point x="157.701" y="355.961" type="line" smooth="yes"/>
      <point x="238.988" y="355.961"/>
      <point x="354" y="285.464"/>
      <point x="354" y="153.639" type="curve" smooth="yes"/>
      <point x="354" y="65"/>
      <point x="302" y="36"/>
      <point x="263.244" y="36" type="curve" smooth="yes"/>
      <point x="237.051" y="36"/>
      <point x="215.966" y="47.6906"/>
      <point x="177.982" y="83.2729" type="curve" smooth="yes"/>
      <point x="150.848" y="108.691"/>
      <point x="123.538" y="134"/>
      <point x="83.8567" y="134" type="curve" smooth="yes"/>
      <point x="46" y="134"/>
      <point x="16" y="111"/>
    </contour>
  </outline>
</glyph>
<glyph name="four" format="2">
  <advance width="500"/>
  <unicode hex="0034"/>
  <outline>
    <contour>
      <point x="19" y="144" type="line"/>
      <point x="267" y="144" type="line"/>
      <point x="267" y="0" type="line"/>
      <point x="412" y="0" type="line"/>
      <point x="412" y="144" type="line"/>
      <point x="475" y="144" type="line"/>
      <point x="475" y="255" type="line"/>
      <point x="412" y="255" type="line"/>
      <point x="412" y="688" type="line"/>
      <point x="332" y="688" type="line"/>
      <point x="19" y="257" type="line"/>
    </contour>
    <contour>
      <point x="60" y="255" type="line"/>
      <point x="267" y="537" type="line"/>
      <point x="267" y="255" type="line"/>
    </contour>
  </outline>
</glyph>
<glyph name="five" format="2">
  <advance width="500"/>
  <unicode hex="0035"/>
  <outline>
    <contour>
      <point x="22" y="80" type="curve" smooth="yes"/>
      <point x="22" y="23"/>
      <point x="88" y="-8"/>
      <point x="165" y="-8" type="curve" smooth="yes"/>
      <point x="347" y="-8"/>
      <point x="451" y="102"/>
      <point x="451" y="233" type="curve" smooth="yes"/>
      <point x="451" y="423.695"/>
      <point x="278.058" y="459.7"/>
      <point x="127" y="468" type="curve"/>
      <point x="149" y="549" type="line"/>
      <point x="427" y="549" type="line"/>
      <point x="470" y="676" type="line"/>
      <point x="148" y="676" type="line"/>
      <point x="51" y="331" type="line"/>
      <point x="153.667" y="323.87"/>
      <point x="373" y="302.662"/>
      <point x="373" y="157" type="curve" smooth="yes"/>
      <point x="373" y="75"/>
      <point x="307" y="53"/>
      <point x="273" y="53" type="curve" smooth="yes"/>
      <point x="210" y="53"/>
      <point x="153" y="140"/>
      <point x="84" y="140" type="curve" smooth="yes"/>
      <point x="41" y="140"/>
      <point x="22" y="108"/>
    </contour>
  </outline>
</glyph>
<glyph name="seven" format="2">
  <advance width="500"/>
  <unicode hex="0037"/>
  <outline>
    <contour>
      <point x="17" y="454" type="line"/>
      <point x="42" y="454" type="line"/>
      <point x="61" y="518"/>
      <point x="85" y="539"/>
      <point x="140" y="539" type="curve" smooth="yes"/>
      <point x="347" y="539" type="line"/>
      <point x="147" y="0" type="line"/>
      <point x="242" y="0" type="line"/>
      <point x="474.94" y="670.073" type="line"/>
      <point x="475" y="676" type="line"/>
      <point x="61" y="676" type="line"/>
    </contour>
  </outline>
</glyph>
<glyph name="nine" format="2">
  <advance width="500"/>
  <unicode hex="0039"/>
  <outline>
    <contour>
      <point x="26" y="464" type="curve" smooth="yes"/>
      <point x="26" y="292"/>
      <point x="138" y="254"/>
      <point x="214.889" y="254" type="curve" smooth="yes"/>
      <point x="239.016" y="254"/>
      <point x="270.422" y="259.065"/>
      <point x="299.032" y="274.323" type="curve"/>
      <point x="299.598" y="271.919" type="line"/>
      <point x="263.641" y="141.608"/>
      <point x="156.202" y="38.0404"/>
      <point x="31" y="13" type="curve"/>
      <point x="31" y="-13" type="line"/>
      <point x="296.2" y="13.52"/>
      <point x="473" y="175.12"/>
      <point x="473" y="391" type="curve" smooth="yes"/>
      <point x="473" y="569.2"/>
      <point x="377.796" y="688"/>
      <point x="234.989" y="688" type="curve" smooth="yes"/>
      <point x="109.596" y="688"/>
      <point x="26" y="598.4"/>
    </contour>
    <contour>
      <point x="178" y="519" type="curve" smooth="yes"/>
      <point x="178" y="604.2"/>
      <point x="202.4" y="661"/>
      <point x="239" y="661" type="curve" smooth="yes"/>
      <point x="285.2" y="661"/>
      <point x="316" y="557.4"/>
      <point x="316" y="402" type="curve" smooth="yes"/>
      <point x="316" y="379"/>
      <point x="311.1" y="333.869"/>
      <point x="307" y="312" type="curve"/>
      <point x="297.198" y="304.494"/>
      <point x="279" y="299"/>
      <point x="260.989" y="299" type="curve" smooth="yes"/>
      <point x="211.195" y="299"/>
      <point x="178" y="387"/>
    </contour>
  </outline>
</glyph>
<glyph name="question" format="2">
  <advance width="500"/>
  <unicode hex="003F"/>
  <outline>
    <contour>
      <point x="57" y="545" type="curve" smooth="yes"/>
      <point x="57" y="501"/>
      <point x="86" y="469"/>
      <point x="125" y="469" type="curve" smooth="yes"/>
      <point x="163" y="469"/>
      <point x="188" y="495"/>
      <point x="188" y="533" type="curve" smooth="yes"/>
      <point x="188" y="553"/>
      <point x="183" y="565"/>
      <point x="166" y="584" type="curve" smooth="yes"/>
      <point x="154" y="597"/>
      <point x="151" y="603"/>
      <point x="151" y="613" type="curve" smooth="yes"/>
      <point x="151" y="637"/>
      <point x="176" y="653"/>
      <point x="212" y="653" type="curve" smooth="yes"/>
      <point x="265" y="653"/>
      <point x="296" y="605"/>
      <point x="296" y="523" type="curve" smooth="yes"/>
      <point x="296" y="478.851"/>
      <point x="289.879" y="446.419"/>
      <point x="266.419" y="400.388" type="curve" smooth="yes"/>
      <point x="246.106" y="360.53" type="line" smooth="yes"/>
      <point x="226.996" y="323.033"/>
      <point x="223" y="288.08"/>
      <point x="223" y="231" type="curve"/>
      <point x="253" y="231" type="line"/>
      <point x="253" y="304"/>
      <point x="261" y="318"/>
      <point x="324" y="357" type="curve" smooth="yes"/>
      <point x="415" y="413"/>
      <point x="445" y="454"/>
      <point x="445" y="523" type="curve" smooth="yes"/>
      <point x="445" y="623"/>
      <point x="365" y="689"/>
      <point x="245" y="689" type="curve" smooth="yes"/>
      <point x="135" y="689"/>
      <point x="57" y="629"/>
    </contour>
    <contour>
      <point x="154" y="72" type="curve" smooth="yes"/>
      <point x="154" y="24"/>
      <point x="191" y="-13"/>
      <point x="239" y="-13" type="curve" smooth="yes"/>
      <point x="286" y="-13"/>
      <point x="323" y="24"/>
      <point x="323" y="71" type="curve" smooth="yes"/>
      <point x="323" y="117"/>
      <point x="285" y="156"/>
      <point x="239" y="156" type="curve" smooth="yes"/>
      <point x="193" y="156"/>
      <point x="154" y="117"/>
    </contour>
  </outline>
</glyph>
<glyph name="at" format="2">
  <advance width="930"/>
  <unicode hex="0040"/>
  <outline>
    <contour>
      <point x="108" y="332.698" type="curve" smooth="yes"/>
      <point x="108" y="134"/>
      <point x="274" y="-19"/>
      <point x="494.346" y="-19" type="curve" smooth="yes"/>
      <point x="561" y="-19"/>
      <point x="614" y="-5"/>
      <point x="711" y="41" type="curve"/>
      <point x="698" y="76" type="line"/>
      <point x="616" y="39"/>
      <point x="566" y="27"/>
      <point x="508.58" y="27" type="curve" smooth="yes"/>
      <point x="324" y="27"/>
      <point x="200" y="151"/>
      <point x="200" y="334.979" type="curve" smooth="yes"/>
      <point x="200" y="515"/>
      <point x="320" y="652"/>
      <point x="486" y="652" type="curve" smooth="yes"/>
      <point x="642" y="652"/>
      <point x="775" y="529"/>
      <point x="775" y="381.722" type="curve" smooth="yes"/>
      <point x="775" y="281.728"/>
      <point x="713" y="180"/>
      <point x="649.983" y="180" type="curve" smooth="yes"/>
      <point x="622" y="180"/>
      <point x="609" y="200.893"/>
      <point x="609" y="229.448" type="curve" smooth="yes"/>
      <point x="609" y="237.368"/>
      <point x="609.748" y="244.326"/>
      <point x="611" y="249.197" type="curve" smooth="yes"/>
      <point x="677" y="506" type="line"/>
      <point x="606" y="506" type="line"/>
      <point x="595" y="466.071" type="line"/>
      <point x="586.992" y="500.01"/>
      <point x="561.739" y="519"/>
      <point x="517.912" y="519" type="curve" smooth="yes"/>
      <point x="395.673" y="519"/>
      <point x="319" y="371.275"/>
      <point x="319" y="271.152" type="curve" smooth="yes"/>
      <point x="319" y="197.936"/>
      <point x="360" y="144"/>
      <point x="414.909" y="144" type="curve" smooth="yes"/>
      <point x="456" y="144"/>
      <point x="504" y="172"/>
      <point x="539" y="221.595" type="curve"/>
      <point x="546" y="173"/>
      <point x="583" y="143"/>
      <point x="634.537" y="143" type="curve" smooth="yes"/>
      <point x="735" y="143"/>
      <point x="822" y="260.041"/>
      <point x="822" y="389.915" type="curve" smooth="yes"/>
      <point x="822" y="560"/>
      <point x="675" y="691"/>
      <point x="485" y="691" type="curve" smooth="yes"/>
      <point x="275" y="691"/>
      <point x="108" y="531"/>
    </contour>
    <contour>
      <point x="396" y="274.34" type="curve" smooth="yes"/>
      <point x="396" y="346.236"/>
      <point x="450.211" y="471.111"/>
      <point x="526.174" y="471.135" type="curve" smooth="yes"/>
      <point x="558.835" y="471.146"/>
      <point x="578.092" y="448.019"/>
      <point x="577.177" y="413.588" type="curve" smooth="yes"/>
      <point x="577" y="406.924" type="line" smooth="yes"/>
      <point x="575.431" y="347.868"/>
      <point x="533.174" y="191"/>
      <point x="456.158" y="191" type="curve" smooth="yes"/>
      <point x="419" y="191"/>
      <point x="396" y="227.51"/>
    </contour>
  </outline>
</glyph>
<glyph name="A" format="2">
  <advance width="700"/>
  <unicode hex="0041"/>
  <anchor x="349" y="735" name="top"/>
  <anchor x="341" y="638" name="t.ring"/>
  <anchor x="548" y="0" name="b.ogonek"/>
  <anchor x="311" y="-50" name="bottom"/>
  <anchor x="200" y="690" name="gr.diacritics"/>
  <anchor x="108" y="672" name="tonos"/>
  <outline>
    <contour>
      <point x="10" y="0" type="line"/>
      <point x="213" y="0" type="line"/>
      <point x="213" y="25" type="line"/>
      <point x="154" y="29"/>
      <point x="131" y="40"/>
      <point x="131" y="64.5319" type="curve" smooth="yes"/>
      <point x="131" y="79"/>
      <point x="139" y="104"/>
      <point x="160" y="158" type="curve" smooth="yes"/>
      <point x="175" y="197" type="line"/>
      <point x="400" y="197" type="line"/>
      <point x="432.254" y="118" type="line" smooth="yes"/>
      <point x="437.656" y="104.768"/>
      <point x="440.329" y="92.2774"/>
      <point x="440.329" y="81" type="curve" smooth="yes"/>
      <point x="440.329" y="47.7152"/>
      <point x="416.044" y="25"/>
      <point x="366" y="25" type="curve"/>
      <point x="366" y="0" type="line"/>
      <point x="690" y="0" type="line"/>
      <point x="690" y="25" type="line"/>
      <point x="645.57" y="25"/>
      <point x="632.468" y="43.5227"/>
      <point x="581" y="164" type="curve" smooth="yes"/>
      <point x="358" y="686" type="line"/>
      <point x="330" y="686" type="line"/>
      <point x="108" y="142" type="line" smooth="yes"/>
      <point x="70.041" y="48.9833"/>
      <point x="58" y="34"/>
      <point x="10" y="25" type="curve"/>
    </contour>
    <contour>
      <point x="190" y="236" type="line"/>
      <point x="284" y="475" type="line"/>
      <point x="385" y="236" type="line"/>
    </contour>
  </outline>
  <guideline angle="0" x="0" y="735"/>
</glyph>
<glyph name="B" format="2">
  <advance width="667"/>
  <unicode hex="0042"/>
  <anchor x="348" y="735" name="top"/>
  <anchor x="318" y="-50" name="bottom"/>
  <outline>
    <contour>
      <point x="16" y="0" type="line"/>
      <point x="389.501" y="0" type="line" smooth="yes"/>
      <point x="542.968" y="0"/>
      <point x="619" y="62.2835"/>
      <point x="619" y="188" type="curve" smooth="yes"/>
      <point x="619" y="292.847"/>
      <point x="559.422" y="344.539"/>
      <point x="449.445" y="364" type="curve"/>
      <point x="456.289" y="353.478" type="line"/>
      <point x="456.289" y="378.147" type="line"/>
      <point x="449.445" y="366" type="line"/>
      <point x="542.07" y="379.819"/>
      <point x="585" y="426.713"/>
      <point x="585" y="514.071" type="curve" smooth="yes"/>
      <point x="585" y="615.624"/>
      <point x="492.188" y="672"/>
      <point x="325" y="672" type="curve" smooth="yes"/>
      <point x="16" y="672" type="line"/>
      <point x="16" y="647" type="line"/>
      <point x="85" y="643"/>
      <point x="104" y="627"/>
      <point x="104" y="576" type="curve" smooth="yes"/>
      <point x="104" y="95.4883" type="line" smooth="yes"/>
      <point x="104" y="44.8559"/>
      <point x="89" y="32.9423"/>
      <point x="16" y="25" type="curve"/>
    </contour>
    <contour>
      <point x="264" y="93" type="curve" smooth="yes"/>
      <point x="264" y="343" type="line"/>
      <point x="294" y="343" type="line" smooth="yes"/>
      <point x="397" y="343"/>
      <point x="447" y="289"/>
      <point x="447" y="179" type="curve" smooth="yes"/>
      <point x="447" y="82"/>
      <point x="406" y="32"/>
      <point x="325" y="32" type="curve" smooth="yes"/>
      <point x="281" y="32"/>
      <point x="264" y="49"/>
    </contour>
    <contour>
      <point x="264" y="373" type="line"/>
      <point x="264" y="593" type="line" smooth="yes"/>
      <point x="264" y="629"/>
      <point x="279" y="642"/>
      <point x="318" y="642" type="curve" smooth="yes"/>
      <point x="388" y="642"/>
      <point x="420" y="599.63"/>
      <point x="420" y="507.007" type="curve" smooth="yes"/>
      <point x="420" y="405.826"/>
      <point x="388.438" y="373"/>
      <point x="272" y="373" type="curve" smooth="yes"/>
    </contour>
  </outline>
  <guideline angle="90" x="426" y="0"/>
  <guideline angle="0" x="0" y="367"/>
  <guideline angle="0" x="0" y="363"/>
</glyph>
<glyph name="C" format="2">
  <advance width="722"/>
  <unicode hex="0043"/>
  <anchor x="389" y="735" name="top"/>
  <anchor x="403" y="0" name="b.cedilla"/>
  <outline>
    <contour>
      <point x="49" y="332.056" type="curve" smooth="yes"/>
      <point x="49" y="124.028"/>
      <point x="199" y="-14"/>
      <point x="408" y="-14" type="curve" smooth="yes"/>
      <point x="530" y="-14"/>
      <point x="610" y="44"/>
      <point x="687" y="132" type="curve"/>
      <point x="657" y="157" type="line"/>
      <point x="593" y="86"/>
      <point x="520" y="34"/>
      <point x="421" y="34" type="curve" smooth="yes"/>
      <point x="255" y="34"/>
      <point x="226" y="209.17"/>
      <point x="226" y="336.119" type="curve" smooth="yes"/>
      <point x="226" y="458.148"/>
      <point x="246" y="653"/>
      <point x="411" y="653" type="curve" smooth="yes"/>
      <point x="522" y="653"/>
      <point x="606" y="542"/>
      <point x="644" y="449" type="curve"/>
      <point x="669" y="449" type="line"/>
      <point x="669" y="683" type="line"/>
      <point x="642" y="683" type="line"/>
      <point x="635" y="661"/>
      <point x="622" y="637"/>
      <point x="596" y="637" type="curve" smooth="yes"/>
      <point x="559" y="637"/>
      <point x="480" y="686"/>
      <point x="403" y="686" type="curve" smooth="yes"/>
      <point x="196" y="686"/>
      <point x="49" y="534.169"/>
    </contour>
  </outline>
</glyph>
<glyph name="D" format="2">
  <advance width="724"/>
  <unicode hex="0044"/>
  <anchor x="191" y="350" name="middle"/>
  <anchor x="338" y="735" name="top"/>
  <anchor x="354" y="-50" name="bottom"/>
  <anchor x="311" y="0" name="b.cedilla"/>
  <outline>
    <contour>
      <point x="16" y="0" type="line"/>
      <point x="332" y="0" type="line" smooth="yes"/>
      <point x="548" y="0"/>
      <point x="692" y="137.183"/>
      <point x="692" y="342.959" type="curve" smooth="yes"/>
      <point x="692" y="547.74"/>
      <point x="552" y="672"/>
      <point x="321" y="672" type="curve" smooth="yes"/>
      <point x="16" y="672" type="line"/>
      <point x="16" y="647" type="line"/>
      <point x="80" y="641"/>
      <point x="99" y="626"/>
      <point x="99" y="580" type="curve" smooth="yes"/>
      <point x="99" y="90.5277" type="line" smooth="yes"/>
      <point x="99" y="46.8426"/>
      <point x="74" y="26.9857"/>
      <point x="16" y="25" type="curve"/>
    </contour>
    <contour>
      <point x="261" y="92.5944" type="curve" smooth="yes"/>
      <point x="261" y="603" type="line" smooth="yes"/>
      <point x="261" y="626"/>
      <point x="281" y="638"/>
      <point x="322.208" y="638" type="curve" smooth="yes"/>
      <point x="483.405" y="638"/>
      <point x="518" y="455.587"/>
      <point x="518" y="320.322" type="curve" smooth="yes"/>
      <point x="518" y="191.865"/>
      <point x="486.799" y="35"/>
      <point x="321.445" y="35" type="curve" smooth="yes"/>
      <point x="274" y="35"/>
      <point x="261" y="47.9091"/>
    </contour>
  </outline>
</glyph>
<glyph name="E" format="2">
  <advance width="667"/>
  <unicode hex="0045"/>
  <anchor x="328" y="735" name="top"/>
  <anchor x="387" y="0" name="b.ogonek"/>
  <anchor x="354" y="-50" name="bottom"/>
  <anchor x="0" y="690" name="gr.diacritics"/>
  <anchor x="-139" y="672" name="tonos"/>
  <outline>
    <contour>
      <point x="16" y="0" type="line"/>
      <point x="601" y="0" type="line"/>
      <point x="641" y="208" type="line"/>
      <point x="613" y="208" type="line"/>
      <point x="560.108" y="93.6848"/>
      <point x="498.398" y="35.8642"/>
      <point x="366.368" y="31.2931" type="curve" smooth="yes"/>
      <point x="349" y="31" type="line" smooth="yes"/>
      <point x="285" y="31"/>
      <point x="266" y="44"/>
      <point x="266" y="87" type="curve" smooth="yes"/>
      <point x="266" y="329" type="line"/>
      <point x="270.035" y="328.982" type="line"/>
      <point x="376.013" y="328.505"/>
      <point x="416.149" y="288.558"/>
      <point x="428" y="174" type="curve"/>
      <point x="454" y="174" type="line"/>
      <point x="454" y="512" type="line"/>
      <point x="428" y="512" type="line"/>
      <point x="413.201" y="399.529"/>
      <point x="375.042" y="362.98"/>
      <point x="270.309" y="362.98" type="curve" smooth="yes"/>
      <point x="266" y="363" type="line"/>
      <point x="266" y="591" type="line" smooth="yes"/>
      <point x="266" y="629"/>
      <point x="279.002" y="637.901"/>
      <point x="331" y="637.901" type="curve" smooth="yes"/>
      <point x="351.65" y="637.901" type="line" smooth="yes"/>
      <point x="498.205" y="637.901"/>
      <point x="544.088" y="598.209"/>
      <point x="568" y="471" type="curve"/>
      <point x="593" y="471" type="line"/>
      <point x="593" y="672" type="line"/>
      <point x="16" y="672" type="line"/>
      <point x="16" y="647" type="line"/>
      <point x="85" y="643"/>
      <point x="104" y="627"/>
      <point x="104" y="576" type="curve" smooth="yes"/>
      <point x="104" y="96" type="line" smooth="yes"/>
      <point x="104" y="44"/>
      <point x="90" y="33"/>
      <point x="16" y="25" type="curve"/>
    </contour>
  </outline>
</glyph>
<glyph name="F" format="2">
  <advance width="611"/>
  <unicode hex="0046"/>
  <outline>
    <contour>
      <point x="16" y="0" type="line"/>
      <point x="376" y="0" type="line"/>
      <point x="376" y="25" type="line"/>
      <point x="284" y="29"/>
      <point x="266" y="41"/>
      <point x="266" y="96" type="curve" smooth="yes"/>
      <point x="266" y="329.017" type="line"/>
      <point x="276" y="329" type="line"/>
      <point x="378.019" y="328.83"/>
      <point x="405" y="290"/>
      <point x="419" y="174" type="curve"/>
      <point x="444" y="174" type="line"/>
      <point x="444" y="512" type="line"/>
      <point x="419" y="512" type="line"/>
      <point x="400.08" y="392.174"/>
      <point x="371.349" y="362.25"/>
      <point x="276" y="363" type="curve"/>
      <point x="266" y="363.079" type="line"/>
      <point x="266" y="591" type="line" smooth="yes"/>
      <point x="266" y="628"/>
      <point x="279" y="638"/>
      <point x="330" y="638" type="curve" smooth="yes"/>
      <point x="341.331" y="638" type="line" smooth="yes"/>
      <point x="487.61" y="638"/>
      <point x="528.238" y="609.428"/>
      <point x="559" y="471" type="curve"/>
      <point x="583" y="471" type="line"/>
      <point x="583" y="672" type="line"/>
      <point x="16" y="672" type="line"/>
      <point x="16" y="647" type="line"/>
      <point x="85" y="643"/>
      <point x="104" y="628"/>
      <point x="104" y="576" type="curve" smooth="yes"/>
      <point x="104" y="96" type="line" smooth="yes"/>
      <point x="104" y="44"/>
      <point x="90" y="33"/>
      <point x="16" y="25" type="curve"/>
    </contour>
  </outline>
</glyph>
<glyph name="G" format="2">
  <advance width="778"/>
  <unicode hex="0047"/>
  <anchor x="389" y="735" name="top"/>
  <anchor x="361" y="-50" name="bottom"/>
  <outline>
    <contour>
      <point x="37" y="331.07" type="curve" smooth="yes"/>
      <point x="37" y="127.972"/>
      <point x="183" y="-14"/>
      <point x="393" y="-14" type="curve" smooth="yes"/>
      <point x="496" y="-14"/>
      <point x="605" y="10"/>
      <point x="669" y="48" type="curve"/>
      <point x="669" y="172.1" type="line" smooth="yes"/>
      <point x="669" y="242.457"/>
      <point x="680" y="254.183"/>
      <point x="755" y="262" type="curve"/>
      <point x="755" y="287" type="line"/>
      <point x="412" y="287" type="line"/>
      <point x="412" y="262" type="line"/>
      <point x="498" y="257.143"/>
      <point x="513" y="246.457"/>
      <point x="513" y="194" type="curve" smooth="yes"/>
      <point x="513" y="92" type="line" smooth="yes"/>
      <point x="513" y="41"/>
      <point x="484" y="19"/>
      <point x="417" y="19" type="curve" smooth="yes"/>
      <point x="285.57" y="19"/>
      <point x="214" y="131.455"/>
      <point x="214" y="337.969" type="curve" smooth="yes"/>
      <point x="214" y="544.43"/>
      <point x="277.412" y="653"/>
      <point x="398" y="653" type="curve" smooth="yes"/>
      <point x="514.982" y="653"/>
      <point x="588.536" y="543.378"/>
      <point x="632" y="449" type="curve"/>
      <point x="657" y="449" type="line"/>
      <point x="657" y="683" type="line"/>
      <point x="630" y="683" type="line"/>
      <point x="616" y="648"/>
      <point x="605" y="637"/>
      <point x="586" y="637" type="curve" smooth="yes"/>
      <point x="546.841" y="637"/>
      <point x="471.93" y="686"/>
      <point x="385" y="686" type="curve" smooth="yes"/>
      <point x="185.933" y="686"/>
      <point x="37" y="534.101"/>
    </contour>
  </outline>
</glyph>
<glyph name="H" format="2">
  <advance width="774"/>
  <unicode hex="0048"/>
  <anchor x="384" y="735" name="top"/>
  <anchor x="384" y="-50" name="bottom"/>
  <anchor x="187" y="0" name="b.cedilla"/>
  <anchor x="0" y="690" name="gr.diacritics"/>
  <anchor x="310" y="-50" name="b.ypogegrammeni"/>
  <anchor x="-139" y="672" name="tonos"/>
  <outline>
    <contour>
      <point x="101" y="96" type="line" smooth="yes" name=".sk3"/>
      <point x="101" y="46"/>
      <point x="83" y="32"/>
      <point x="8" y="25" type="curve"/>
      <point x="8" y="0" type="line"/>
      <point x="358" y="0" type="line"/>
      <point x="358" y="25" type="line"/>
      <point x="282" y="30"/>
      <point x="263" y="44"/>
      <point x="263" y="96" type="curve" smooth="yes"/>
      <point x="263" y="576" type="line" smooth="yes" name=".sk1"/>
      <point x="263" y="628"/>
      <point x="284" y="644"/>
      <point x="358" y="647" type="curve"/>
      <point x="358" y="672" type="line"/>
      <point x="8" y="672" type="line"/>
      <point x="8" y="647" type="line"/>
      <point x="80" y="642"/>
      <point x="101" y="627"/>
      <point x="101" y="576" type="curve" smooth="yes"/>
    </contour>
    <contour>
      <point x="504" y="96" type="line" smooth="yes" name=".sk4"/>
      <point x="504" y="46"/>
      <point x="486" y="32"/>
      <point x="411" y="25" type="curve"/>
      <point x="411" y="0" type="line"/>
      <point x="585" y="0" type="line" name=".sk5"/>
      <point x="585" y="0" type="line"/>
      <point x="761" y="0" type="line"/>
      <point x="761" y="25" type="line"/>
      <point x="685" y="30"/>
      <point x="666" y="44"/>
      <point x="666" y="96" type="curve" smooth="yes"/>
      <point x="666" y="576" type="line" smooth="yes" name=".sk2"/>
      <point x="666" y="628"/>
      <point x="687" y="644"/>
      <point x="761" y="647" type="curve"/>
      <point x="761" y="672" type="line"/>
      <point x="411" y="672" type="line"/>
      <point x="411" y="647" type="line"/>
      <point x="483" y="642"/>
      <point x="504" y="627"/>
      <point x="504" y="576" type="curve" smooth="yes"/>
    </contour>
    <contour>
      <point x="243" y="326" type="line"/>
      <point x="524" y="326" type="line"/>
      <point x="524" y="373" type="line"/>
      <point x="243" y="373" type="line"/>
    </contour>
  </outline>
  <guideline angle="90" name="gh" x="384" y="0"/>
</glyph>
<glyph name="I" format="2">
  <advance width="386"/>
  <unicode hex="0049"/>
  <anchor x="190" y="735" name="top"/>
  <anchor x="191" y="0" name="b.ogonek"/>
  <anchor x="191" y="-50" name="bottom"/>
  <anchor x="0" y="690" name="gr.diacritics"/>
  <anchor x="-139" y="672" name="tonos"/>
  <outline>
    <contour>
      <point x="109" y="96" type="line" smooth="yes" name=".sk1"/>
      <point x="109" y="46"/>
      <point x="91" y="32"/>
      <point x="16" y="25" type="curve"/>
      <point x="16" y="0" type="line"/>
      <point x="366" y="0" type="line"/>
      <point x="366" y="25" type="line"/>
      <point x="290" y="30"/>
      <point x="271" y="44"/>
      <point x="271" y="96" type="curve" smooth="yes"/>
      <point x="271" y="576" type="line" smooth="yes" name=".sk2"/>
      <point x="271" y="628"/>
      <point x="292" y="644"/>
      <point x="366" y="647" type="curve"/>
      <point x="366" y="672" type="line"/>
      <point x="16" y="672" type="line"/>
      <point x="16" y="647" type="line"/>
      <point x="88" y="642"/>
      <point x="109" y="627"/>
      <point x="109" y="576" type="curve" smooth="yes"/>
    </contour>
  </outline>
</glyph>
<glyph name="J" format="2">
  <advance width="500"/>
  <unicode hex="004A"/>
  <outline>
    <contour>
      <point x="6" y="33" type="curve" smooth="yes"/>
      <point x="6" y="-61.0638"/>
      <point x="96.7377" y="-96"/>
      <point x="185.331" y="-96" type="curve" smooth="yes"/>
      <point x="316" y="-96"/>
      <point x="390" y="-20"/>
      <point x="390" y="123" type="curve" smooth="yes"/>
      <point x="390" y="555" type="line" smooth="yes"/>
      <point x="390" y="627"/>
      <point x="404" y="642"/>
      <point x="479" y="647" type="curve"/>
      <point x="479" y="672" type="line"/>
      <point x="127" y="672" type="line"/>
      <point x="127" y="647" type="line"/>
      <point x="208" y="644"/>
      <point x="228" y="630"/>
      <point x="228" y="576" type="curve" smooth="yes"/>
      <point x="228" y="24" type="line" smooth="yes"/>
      <point x="228" y="-38"/>
      <point x="209" y="-63"/>
      <point x="167.167" y="-63" type="curve" smooth="yes"/>
      <point x="137" y="-63"/>
      <point x="119" y="-50"/>
      <point x="119" y="-31" type="curve" smooth="yes"/>
      <point x="119" y="-22.1895"/>
      <point x="124.206" y="-14.6329"/>
      <point x="136.667" y="-1.263" type="curve" smooth="yes"/>
      <point x="138.788" y="1.0132"/>
      <point x="151" y="14.0269"/>
      <point x="151" y="38.7988" type="curve" smooth="yes"/>
      <point x="151" y="84"/>
      <point x="115" y="108"/>
      <point x="81.4026" y="108" type="curve" smooth="yes"/>
      <point x="37.2607" y="108"/>
      <point x="6" y="77.1964"/>
    </contour>
  </outline>
</glyph>
<glyph name="K" format="2">
  <advance width="764"/>
  <unicode hex="004B"/>
  <anchor x="369" y="-50" name="bottom"/>
  <anchor x="369" y="735" name="top"/>
  <outline>
    <contour>
      <point x="16" y="0" type="line"/>
      <point x="353" y="0" type="line"/>
      <point x="353" y="25" type="line"/>
      <point x="281" y="34"/>
      <point x="265" y="47"/>
      <point x="265" y="96" type="curve" smooth="yes"/>
      <point x="265" y="289.6" type="line"/>
      <point x="469.812" y="490.163" type="line" smooth="yes"/>
      <point x="601.386" y="619.008"/>
      <point x="638.193" y="640.088"/>
      <point x="722" y="647" type="curve"/>
      <point x="722" y="672" type="line"/>
      <point x="433" y="672" type="line"/>
      <point x="433" y="647" type="line"/>
      <point x="469" y="647" type="line" smooth="yes"/>
      <point x="505.056" y="647"/>
      <point x="518" y="634"/>
      <point x="518" y="614" type="curve" smooth="yes"/>
      <point x="518" y="598"/>
      <point x="513.215" y="589.783"/>
      <point x="482" y="559" type="curve" smooth="yes"/>
      <point x="265" y="345" type="line"/>
      <point x="265" y="555" type="line" smooth="yes"/>
      <point x="265" y="626"/>
      <point x="280" y="642"/>
      <point x="354" y="647" type="curve"/>
      <point x="354" y="672" type="line"/>
      <point x="16" y="672" type="line"/>
      <point x="16" y="647" type="line"/>
      <point x="85" y="643"/>
      <point x="103" y="628"/>
      <point x="103" y="576" type="curve" smooth="yes"/>
      <point x="103" y="96" type="line" smooth="yes"/>
      <point x="103" y="45"/>
      <point x="88" y="33"/>
      <point x="16" y="25" type="curve"/>
    </contour>
    <contour>
      <point x="282.617" y="328.703" type="line"/>
      <point x="474" y="90" type="line" smooth="yes"/>
      <point x="493" y="66"/>
      <point x="498" y="57"/>
      <point x="498" y="46" type="curve" smooth="yes"/>
      <point x="498" y="33"/>
      <point x="484.061" y="25"/>
      <point x="451" y="25" type="curve" smooth="yes"/>
      <point x="419" y="25" type="line"/>
      <point x="419" y="0" type="line"/>
      <point x="755" y="0" type="line"/>
      <point x="755" y="25" type="line"/>
      <point x="730" y="26"/>
      <point x="718.465" y="30.5522"/>
      <point x="706" y="46" type="curve" smooth="yes"/>
      <point x="391.581" y="435.674" type="line"/>
    </contour>
  </outline>
  <guideline angle="224.601" x="482" y="502.682"/>
  <guideline angle="224.601" x="482" y="559"/>
</glyph>
<glyph name="L" format="2">
  <advance width="664"/>
  <unicode hex="004C"/>
  <anchor x="336" y="-50" name="bottom"/>
  <anchor x="361" y="735" name="top"/>
  <anchor x="426" y="336" name="m.periodcentered"/>
  <outline>
    <contour>
      <point x="16" y="0" type="line"/>
      <point x="594" y="0" type="line"/>
      <point x="635" y="227" type="line"/>
      <point x="606" y="227" type="line"/>
      <point x="539.603" y="70.0612"/>
      <point x="490.855" y="31"/>
      <point x="361.392" y="31" type="curve" smooth="yes"/>
      <point x="343" y="31" type="line" smooth="yes"/>
      <point x="282" y="31"/>
      <point x="264" y="44"/>
      <point x="264" y="87" type="curve" smooth="yes"/>
      <point x="264" y="555" type="line" smooth="yes"/>
      <point x="264" y="630"/>
      <point x="278" y="643"/>
      <point x="365" y="647" type="curve"/>
      <point x="365" y="672" type="line"/>
      <point x="16" y="672" type="line"/>
      <point x="16" y="647" type="line"/>
      <point x="84" y="643"/>
      <point x="102" y="627"/>
      <point x="102" y="576" type="curve" smooth="yes"/>
      <point x="102" y="96" type="line" smooth="yes"/>
      <point x="102" y="45"/>
      <point x="89" y="34"/>
      <point x="16" y="25" type="curve"/>
    </contour>
  </outline>
</glyph>
<glyph name="M" format="2">
  <advance width="943"/>
  <unicode hex="004D"/>
  <anchor x="444" y="735" name="top"/>
  <anchor x="444" y="-50" name="bottom"/>
  <outline>
    <contour>
      <point x="16" y="0" type="line"/>
      <point x="250" y="0" type="line"/>
      <point x="250" y="25" type="line"/>
      <point x="168" y="31"/>
      <point x="149" y="50"/>
      <point x="149" y="124" type="curve" smooth="yes"/>
      <point x="149" y="590" type="line"/>
      <point x="401" y="0" type="line"/>
      <point x="428" y="0" type="line"/>
      <point x="680" y="605" type="line"/>
      <point x="680" y="100" type="line" smooth="yes"/>
      <point x="680" y="44"/>
      <point x="666" y="32"/>
      <point x="591" y="25" type="curve"/>
      <point x="591" y="0" type="line"/>
      <point x="923" y="0" type="line"/>
      <point x="923" y="25" type="line"/>
      <point x="845" y="35"/>
      <point x="835" y="46"/>
      <point x="835" y="117" type="curve" smooth="yes"/>
      <point x="835" y="555" type="line" smooth="yes"/>
      <point x="835" y="627"/>
      <point x="850" y="642"/>
      <point x="923" y="647" type="curve"/>
      <point x="923" y="672" type="line"/>
      <point x="671" y="672" type="line"/>
      <point x="471" y="204" type="line"/>
      <point x="271" y="672" type="line"/>
      <point x="18" y="672" type="line"/>
      <point x="18" y="647" type="line"/>
      <point x="91" y="641"/>
      <point x="107" y="628"/>
      <point x="107" y="576" type="curve" smooth="yes"/>
      <point x="107" y="105" type="line" smooth="yes"/>
      <point x="107" y="45"/>
      <point x="94" y="33"/>
      <point x="16" y="25" type="curve"/>
    </contour>
  </outline>
  <guideline angle="90" x="444" y="0"/>
</glyph>
<glyph name="N" format="2">
  <advance width="722"/>
  <unicode hex="004E"/>
  <anchor x="359" y="735" name="top"/>
  <anchor x="377" y="-50" name="bottom"/>
  <outline>
    <contour>
      <point x="16" y="0" type="line"/>
      <point x="243" y="0" type="line"/>
      <point x="243" y="25" type="line"/>
      <point x="166" y="34"/>
      <point x="148" y="53"/>
      <point x="148" y="124" type="curve" smooth="yes"/>
      <point x="148" y="522" type="line"/>
      <point x="595" y="-18" type="line"/>
      <point x="623" y="-18" type="line"/>
      <point x="623" y="567" type="line" smooth="yes"/>
      <point x="623" y="624"/>
      <point x="636" y="637"/>
      <point x="701" y="647" type="curve"/>
      <point x="701" y="672" type="line"/>
      <point x="486" y="672" type="line"/>
      <point x="486" y="647" type="line"/>
      <point x="560" y="640"/>
      <point x="579" y="619"/>
      <point x="579" y="548" type="curve" smooth="yes"/>
      <point x="579" y="247" type="line"/>
      <point x="230" y="672" type="line"/>
      <point x="19" y="672" type="line"/>
      <point x="19" y="647" type="line"/>
      <point x="39" y="647"/>
      <point x="56" y="632"/>
      <point x="104" y="575" type="curve"/>
      <point x="104" y="105" type="line" smooth="yes"/>
      <point x="104" y="48"/>
      <point x="89" y="34"/>
      <point x="16" y="25" type="curve"/>
    </contour>
  </outline>
  <guideline angle="0" x="0" y="735"/>
</glyph>
<glyph name="O" format="2">
  <advance width="778"/>
  <unicode hex="004F"/>
  <anchor x="389" y="735" name="top"/>
  <anchor x="447" y="0" name="b.ogonek"/>
  <anchor x="390" y="-50" name="bottom"/>
  <anchor x="70" y="690" name="gr.diacritics"/>
  <anchor x="-52" y="672" name="tonos"/>
  <outline>
    <contour>
      <point x="35" y="335.014" type="curve" smooth="yes"/>
      <point x="35" y="130.93"/>
      <point x="182" y="-14"/>
      <point x="389" y="-14" type="curve" smooth="yes"/>
      <point x="596" y="-14"/>
      <point x="743" y="131.915"/>
      <point x="743" y="336" type="curve" smooth="yes"/>
      <point x="743" y="537.127"/>
      <point x="594" y="686"/>
      <point x="393" y="686" type="curve" smooth="yes"/>
      <point x="184" y="686"/>
      <point x="35" y="540.085"/>
    </contour>
    <contour>
      <point x="212" y="326.155" type="curve" smooth="yes"/>
      <point x="212" y="538.801"/>
      <point x="275" y="653"/>
      <point x="392" y="653" type="curve" smooth="yes"/>
      <point x="502" y="653"/>
      <point x="566" y="533.879"/>
      <point x="566" y="329.109" type="curve" smooth="yes"/>
      <point x="566" y="127.292"/>
      <point x="504" y="19"/>
      <point x="389" y="19" type="curve" smooth="yes"/>
      <point x="274" y="19"/>
      <point x="212" y="127.292"/>
    </contour>
  </outline>
</glyph>
<glyph name="P" format="2">
  <advance width="611"/>
  <unicode hex="0050"/>
  <anchor x="343" y="-50" name="bottom"/>
  <anchor x="308" y="735" name="top"/>
  <anchor x="0" y="690" name="gr.diacritics"/>
  <anchor x="310" y="-50" name="b.ypogegrammeni"/>
  <anchor x="-139" y="672" name="tonos"/>
  <outline>
    <contour>
      <point x="16" y="0" type="line"/>
      <point x="350" y="0" type="line"/>
      <point x="350" y="25" type="line"/>
      <point x="271" y="34.9312"/>
      <point x="262" y="43.8692"/>
      <point x="262" y="116.367" type="curve" smooth="yes"/>
      <point x="262" y="602" type="line" smooth="yes"/>
      <point x="262" y="625"/>
      <point x="279" y="637.061"/>
      <point x="312" y="637" type="curve" smooth="yes"/>
      <point x="315.811" y="636.993" type="line"/>
      <point x="395.038" y="636.845"/>
      <point x="428" y="593.399"/>
      <point x="428" y="487.059" type="curve" smooth="yes"/>
      <point x="428" y="388.175"/>
      <point x="382.987" y="345.814"/>
      <point x="277.976" y="345.871" type="curve" smooth="yes"/>
      <point x="263.492" y="345.879"/>
      <point x="248.14" y="345.651"/>
      <point x="232" y="348" type="curve"/>
      <point x="232" y="313" type="line"/>
      <point x="255.986" y="311.196"/>
      <point x="283.271" y="309.795"/>
      <point x="311.886" y="309.811" type="curve" smooth="yes"/>
      <point x="497.803" y="309.915"/>
      <point x="600" y="373.748"/>
      <point x="600" y="489.77" type="curve" smooth="yes"/>
      <point x="600" y="606.323"/>
      <point x="505.573" y="672"/>
      <point x="338" y="672" type="curve" smooth="yes"/>
      <point x="16" y="672" type="line"/>
      <point x="16" y="647" type="line"/>
      <point x="86" y="641"/>
      <point x="100" y="625"/>
      <point x="100" y="555" type="curve" smooth="yes"/>
      <point x="100" y="116.311" type="line" smooth="yes"/>
      <point x="100" y="43.6835"/>
      <point x="80.4558" y="36.6314"/>
      <point x="16" y="25" type="curve"/>
    </contour>
  </outline>
</glyph>
<glyph name="Q" format="2">
  <advance width="778"/>
  <unicode hex="0051"/>
  <outline>
    <component base="O"/>
    <contour>
      <point x="291.382" y="-6" type="line"/>
      <point x="389" y="-19"/>
      <point x="419.978" y="-190"/>
      <point x="583.363" y="-190" type="curve" smooth="yes"/>
      <point x="644.978" y="-190"/>
      <point x="672" y="-177.493"/>
      <point x="721.644" y="-137.199" type="curve"/>
      <point x="708.607" y="-115.428" type="line"/>
      <point x="679.675" y="-129.519"/>
      <point x="663.06" y="-133"/>
      <point x="648.531" y="-133" type="curve" smooth="yes"/>
      <point x="594.849" y="-133"/>
      <point x="604" y="-52"/>
      <point x="419.978" y="-20.2178" type="curve"/>
      <point x="419.978" y="9.89244" type="line"/>
      <point x="291.382" y="17.2372" type="line"/>
    </contour>
  </outline>
</glyph>
<glyph name="R" format="2">
  <advance width="712"/>
  <unicode hex="0052"/>
  <anchor x="322" y="735" name="top"/>
  <anchor x="377" y="-50" name="bottom"/>
  <outline>
    <contour>
      <point x="16" y="0" type="line"/>
      <point x="354" y="0" type="line"/>
      <point x="354" y="25" type="line"/>
      <point x="276" y="35"/>
      <point x="266" y="46"/>
      <point x="266" y="117" type="curve" smooth="yes"/>
      <point x="266" y="313" type="line"/>
      <point x="293" y="313" type="line"/>
      <point x="500" y="0" type="line"/>
      <point x="705" y="0" type="line"/>
      <point x="705" y="25" type="line"/>
      <point x="687" y="25"/>
      <point x="674" y="31"/>
      <point x="664" y="44" type="curve"/>
      <point x="463" y="329" type="line"/>
      <point x="566.067" y="351.423"/>
      <point x="620" y="408.809"/>
      <point x="620" y="496.052" type="curve" smooth="yes"/>
      <point x="620" y="609.979"/>
      <point x="520.596" y="672"/>
      <point x="338" y="672" type="curve" smooth="yes"/>
      <point x="16" y="672" type="line"/>
      <point x="16" y="647" type="line"/>
      <point x="90" y="642"/>
      <point x="104" y="627"/>
      <point x="104" y="555" type="curve" smooth="yes"/>
      <point x="104" y="116.311" type="line" smooth="yes"/>
      <point x="104" y="43.8577"/>
      <point x="94" y="33.9326"/>
      <point x="16" y="25" type="curve"/>
    </contour>
    <contour>
      <point x="266" y="345" type="line"/>
      <point x="266" y="596" type="line" smooth="yes"/>
      <point x="266" y="630.951"/>
      <point x="288.738" y="638"/>
      <point x="320" y="638" type="curve" smooth="yes"/>
      <point x="412" y="638"/>
      <point x="449" y="595.579"/>
      <point x="449" y="491.994" type="curve" smooth="yes"/>
      <point x="449" y="401.567"/>
      <point x="392.136" y="345.182"/>
      <point x="283.235" y="345.182" type="curve" smooth="yes"/>
    </contour>
  </outline>
</glyph>
<glyph name="S" format="2">
  <advance width="556"/>
  <unicode hex="0053"/>
  <anchor x="259" y="735" name="top"/>
  <anchor x="293" y="0" name="b.cedilla"/>
  <anchor x="290" y="-50" name="bottom"/>
  <outline>
    <contour>
      <point x="35" y="-14" type="line"/>
      <point x="64" y="-14" type="line"/>
      <point x="70" y="11"/>
      <point x="78" y="20"/>
      <point x="94" y="20" type="curve" smooth="yes"/>
      <point x="102" y="20"/>
      <point x="113" y="17"/>
      <point x="131.807" y="10.7311" type="curve" smooth="yes"/>
      <point x="185" y="-7"/>
      <point x="222" y="-14"/>
      <point x="265" y="-14" type="curve" smooth="yes"/>
      <point x="413" y="-14"/>
      <point x="513" y="69.4642"/>
      <point x="513" y="187.069" type="curve" smooth="yes"/>
      <point x="513" y="266.832"/>
      <point x="467.085" y="340.649"/>
      <point x="403" y="371.899" type="curve" smooth="yes"/>
      <point x="256" y="443.58" type="line" smooth="yes"/>
      <point x="174.918" y="483.118"/>
      <point x="153" y="507.637"/>
      <point x="153" y="553.624" type="curve" smooth="yes"/>
      <point x="153" y="617.164"/>
      <point x="195" y="655"/>
      <point x="262.814" y="655" type="curve" smooth="yes"/>
      <point x="369.223" y="655"/>
      <point x="427.866" y="561.437"/>
      <point x="456" y="470" type="curve"/>
      <point x="484" y="470" type="line"/>
      <point x="484" y="687" type="line"/>
      <point x="454" y="687" type="line"/>
      <point x="447" y="661"/>
      <point x="439" y="653"/>
      <point x="420.987" y="653" type="curve" smooth="yes"/>
      <point x="406.393" y="653"/>
      <point x="388.723" y="658.251"/>
      <point x="367.753" y="666.111" type="curve" smooth="yes"/>
      <point x="341.361" y="676.003"/>
      <point x="308.892" y="686"/>
      <point x="260.712" y="686" type="curve" smooth="yes"/>
      <point x="127" y="686"/>
      <point x="44" y="610.137"/>
      <point x="44" y="492.45" type="curve" smooth="yes"/>
      <point x="44" y="399.298"/>
      <point x="95.9368" y="337.097"/>
      <point x="215" y="281.071" type="curve" smooth="yes"/>
      <point x="282" y="249.544" type="line" smooth="yes"/>
      <point x="369.989" y="208.14"/>
      <point x="394" y="182.548"/>
      <point x="394" y="133.466" type="curve" smooth="yes"/>
      <point x="394" y="63.3353"/>
      <point x="345" y="19"/>
      <point x="264.547" y="19" type="curve" smooth="yes"/>
      <point x="140.272" y="19"/>
      <point x="89.895" y="126.374"/>
      <point x="64" y="233" type="curve"/>
      <point x="35" y="233" type="line"/>
    </contour>
  </outline>
</glyph>
<glyph name="T" format="2">
  <advance width="667"/>
  <unicode hex="0054"/>
  <outline>
    <contour>
      <point x="253" y="96" type="line" smooth="yes" name=".sk1"/>
      <point x="253" y="46"/>
      <point x="235" y="32"/>
      <point x="160" y="25" type="curve"/>
      <point x="160" y="0" type="line"/>
      <point x="334" y="0" type="line" name=".sk2"/>
      <point x="334" y="0" type="line"/>
      <point x="510" y="0" type="line"/>
      <point x="510" y="25" type="line"/>
      <point x="434" y="30"/>
      <point x="415" y="44"/>
      <point x="415" y="96" type="curve" smooth="yes"/>
      <point x="415" y="655" type="line"/>
      <point x="253" y="655" type="line"/>
    </contour>
    <contour>
      <point x="31" y="471" type="line"/>
      <point x="60" y="471" type="line"/>
      <point x="77" y="590"/>
      <point x="108.996" y="640"/>
      <point x="233" y="640" type="curve" smooth="yes"/>
      <point x="435" y="640" type="line" smooth="yes"/>
      <point x="558.004" y="640"/>
      <point x="590" y="590"/>
      <point x="607" y="471" type="curve"/>
      <point x="636" y="471" type="line"/>
      <point x="636" y="672" type="line"/>
      <point x="31" y="672" type="line"/>
    </contour>
  </outline>
</glyph>
<glyph name="U" format="2">
  <advance width="722"/>
  <unicode hex="0055"/>
  <anchor x="386" y="735" name="top"/>
  <anchor x="386" y="715" name="t.ring"/>
  <anchor x="427" y="0" name="b.ogonek"/>
  <anchor x="400" y="-50" name="bottom"/>
  <outline>
    <contour>
      <point x="16" y="647" type="line"/>
      <point x="86.2267" y="640.03"/>
      <point x="98" y="626.92"/>
      <point x="98" y="555.691" type="curve" smooth="yes"/>
      <point x="98" y="228.168" type="line" smooth="yes"/>
      <point x="98" y="71.1689"/>
      <point x="191.902" y="-14"/>
      <point x="365" y="-14" type="curve" smooth="yes"/>
      <point x="537.064" y="-14"/>
      <point x="623" y="73.9359"/>
      <point x="623" y="250.003" type="curve" smooth="yes"/>
      <point x="623" y="562.638" type="line" smooth="yes"/>
      <point x="623" y="621.564"/>
      <point x="637.398" y="637.137"/>
      <point x="701" y="647" type="curve"/>
      <point x="701" y="672" type="line"/>
      <point x="481" y="672" type="line"/>
      <point x="481" y="647" type="line"/>
      <point x="559.109" y="641.04"/>
      <point x="579" y="621.109"/>
      <point x="579" y="548.802" type="curve" smooth="yes"/>
      <point x="579" y="250.241" type="line" smooth="yes"/>
      <point x="579" y="103.659"/>
      <point x="523.177" y="35"/>
      <point x="404" y="35" type="curve" smooth="yes"/>
      <point x="301.738" y="35"/>
      <point x="257" y="93.866"/>
      <point x="257" y="228.42" type="curve" smooth="yes"/>
      <point x="257" y="555.746" type="line" smooth="yes"/>
      <point x="257" y="629.67"/>
      <point x="271.81" y="643.603"/>
      <point x="354" y="647" type="curve"/>
      <point x="354" y="672" type="line"/>
      <point x="16" y="672" type="line"/>
    </contour>
  </outline>
</glyph>
<glyph name="V" format="2">
  <advance width="722"/>
  <unicode hex="0056"/>
  <anchor x="401" y="735" name="top"/>
  <anchor x="367" y="-50" name="bottom"/>
  <outline>
    <contour>
      <point x="16" y="647" type="line"/>
      <point x="66" y="640.042"/>
      <point x="76.1225" y="632.584"/>
      <point x="100" y="577.421" type="curve" smooth="yes"/>
      <point x="356" y="-14" type="line"/>
      <point x="383" y="-14" type="line"/>
      <point x="611" y="565.493" type="line" smooth="yes"/>
      <point x="635.214" y="627.037"/>
      <point x="649" y="640.042"/>
      <point x="701" y="647" type="curve"/>
      <point x="701" y="672" type="line"/>
      <point x="488" y="672" type="line"/>
      <point x="488" y="647" type="line"/>
      <point x="559" y="642.045"/>
      <point x="574" y="635.109"/>
      <point x="574" y="603.4" type="curve" smooth="yes"/>
      <point x="574" y="587.545"/>
      <point x="570.829" y="575.721"/>
      <point x="554" y="533.045" type="curve" smooth="yes"/>
      <point x="427" y="211" type="line"/>
      <point x="289" y="538" type="line" smooth="yes"/>
      <point x="270.155" y="582.655"/>
      <point x="266" y="594.482"/>
      <point x="266" y="609.345" type="curve" smooth="yes"/>
      <point x="266" y="632.136"/>
      <point x="281.017" y="642.737"/>
      <point x="319" y="645.018" type="curve" smooth="yes"/>
      <point x="352" y="647" type="line"/>
      <point x="352" y="672" type="line"/>
      <point x="16" y="672" type="line"/>
    </contour>
  </outline>
</glyph>
<glyph name="W" format="2">
  <advance width="1000"/>
  <unicode hex="0057"/>
  <outline>
    <contour>
      <point x="19" y="647" type="line"/>
      <point x="61" y="641.009"/>
      <point x="70.6698" y="631.907"/>
      <point x="88" y="583.097" type="curve" smooth="yes"/>
      <point x="300" y="-14" type="line"/>
      <point x="328" y="-14" type="line"/>
      <point x="514" y="458" type="line"/>
      <point x="685" y="-14" type="line"/>
      <point x="712" y="-14" type="line"/>
      <point x="912" y="583.097" type="line" smooth="yes"/>
      <point x="925.34" y="622.924"/>
      <point x="948" y="644.005"/>
      <point x="981" y="647" type="curve"/>
      <point x="981" y="672" type="line"/>
      <point x="799" y="672" type="line"/>
      <point x="799" y="647" type="line"/>
      <point x="853" y="644.007"/>
      <point x="868" y="634.031"/>
      <point x="868" y="603.104" type="curve" smooth="yes"/>
      <point x="868" y="590.134"/>
      <point x="865.664" y="575.285"/>
      <point x="861" y="561.202" type="curve" smooth="yes"/>
      <point x="749" y="223" type="line"/>
      <point x="641" y="554.219" type="line" smooth="yes"/>
      <point x="630.629" y="586.025"/>
      <point x="627" y="601.108"/>
      <point x="627" y="611.356" type="curve" smooth="yes"/>
      <point x="627" y="635.024"/>
      <point x="648.335" y="642.828"/>
      <point x="699" y="647" type="curve"/>
      <point x="699" y="672" type="line"/>
      <point x="387" y="672" type="line"/>
      <point x="387" y="647" type="line"/>
      <point x="428" y="645.005"/>
      <point x="449.957" y="636.827"/>
      <point x="459" y="612.08" type="curve" smooth="yes"/>
      <point x="494" y="516.301" type="line"/>
      <point x="376" y="213" type="line"/>
      <point x="256" y="572.172" type="line" smooth="yes"/>
      <point x="250.699" y="588.039"/>
      <point x="249" y="596.117"/>
      <point x="249" y="607.108" type="curve" smooth="yes"/>
      <point x="249" y="634.03"/>
      <point x="261" y="643.009"/>
      <point x="313" y="647" type="curve"/>
      <point x="313" y="672" type="line"/>
      <point x="19" y="672" type="line"/>
    </contour>
  </outline>
</glyph>
<glyph name="X" format="2">
  <advance width="722"/>
  <unicode hex="0058"/>
  <anchor x="391" y="735" name="top"/>
  <anchor x="367" y="-50" name="bottom"/>
  <outline>
    <contour>
      <point x="306.367" y="288.055" type="line"/>
      <point x="418" y="109" type="line" smooth="yes"/>
      <point x="429.889" y="89.9304"/>
      <point x="439" y="66"/>
      <point x="439" y="56.6181" type="curve" smooth="yes"/>
      <point x="439" y="33"/>
      <point x="381.965" y="26.7665"/>
      <point x="359" y="25" type="curve"/>
      <point x="359" y="0" type="line"/>
      <point x="699" y="0" type="line"/>
      <point x="699" y="25" type="line"/>
      <point x="664.087" y="30.3797"/>
      <point x="648.806" y="38.2185"/>
      <point x="602" y="111" type="curve" smooth="yes"/>
      <point x="407.806" y="412.962" type="line"/>
      <point x="299" y="577" type="line" smooth="yes"/>
      <point x="285.815" y="596.878"/>
      <point x="284" y="602"/>
      <point x="284" y="608.003" type="curve" smooth="yes"/>
      <point x="284" y="638.771"/>
      <point x="336.548" y="645.111"/>
      <point x="363" y="647" type="curve"/>
      <point x="363" y="672" type="line"/>
      <point x="17" y="672" type="line"/>
      <point x="17" y="647" type="line"/>
      <point x="53" y="644"/>
      <point x="65.7932" y="633.857"/>
      <point x="97" y="589" type="curve" smooth="yes"/>
    </contour>
    <contour>
      <point x="16" y="0" type="line"/>
      <point x="266" y="0" type="line"/>
      <point x="266" y="25" type="line"/>
      <point x="205" y="31"/>
      <point x="185" y="41"/>
      <point x="185" y="64.5" type="curve" smooth="yes"/>
      <point x="185" y="88"/>
      <point x="205" y="120"/>
      <point x="279" y="220" type="curve" smooth="yes"/>
      <point x="325.962" y="283.028" type="line"/>
      <point x="304.312" y="313.76" type="line"/>
      <point x="120" y="81" type="line" smooth="yes"/>
      <point x="90" y="44"/>
      <point x="66" y="31"/>
      <point x="16" y="25" type="curve"/>
    </contour>
    <contour>
      <point x="411.018" y="381.987" type="line"/>
      <point x="500" y="501" type="line" smooth="yes"/>
      <point x="589.107" y="620.18"/>
      <point x="614" y="640"/>
      <point x="688" y="647" type="curve"/>
      <point x="688" y="672" type="line"/>
      <point x="438" y="672" type="line"/>
      <point x="438" y="647" type="line"/>
      <point x="466.078" y="643.88"/>
      <point x="510" y="639.437"/>
      <point x="510" y="605.822" type="curve" smooth="yes"/>
      <point x="510" y="589"/>
      <point x="500.33" y="567.002"/>
      <point x="452" y="504" type="curve" smooth="yes"/>
      <point x="386.87" y="419.099" type="line"/>
    </contour>
  </outline>
</glyph>
<glyph name="Y" format="2">
  <advance width="722"/>
  <unicode hex="0059"/>
  <anchor x="374" y="735" name="top"/>
  <anchor x="367" y="-50" name="bottom"/>
  <outline>
    <contour>
      <point x="185" y="0" type="line"/>
      <point x="532" y="0" type="line"/>
      <point x="532" y="25" type="line"/>
      <point x="450" y="33"/>
      <point x="440" y="43"/>
      <point x="440" y="117" type="curve" smooth="yes"/>
      <point x="440" y="301" type="line"/>
      <point x="631" y="608" type="line" smooth="yes"/>
      <point x="645.505" y="631.315"/>
      <point x="665" y="642"/>
      <point x="699" y="647" type="curve"/>
      <point x="699" y="672" type="line"/>
      <point x="479" y="672" type="line"/>
      <point x="479" y="647" type="line"/>
      <point x="546" y="642"/>
      <point x="563" y="634"/>
      <point x="563" y="605" type="curve" smooth="yes"/>
      <point x="563" y="586"/>
      <point x="549" y="555"/>
      <point x="524" y="514" type="curve" smooth="yes"/>
      <point x="413" y="329" type="line"/>
      <point x="287" y="569" type="line" smooth="yes"/>
      <point x="273.681" y="594.369"/>
      <point x="269" y="605"/>
      <point x="269" y="616" type="curve" smooth="yes"/>
      <point x="269" y="638"/>
      <point x="284.033" y="644.361"/>
      <point x="325" y="646" type="curve" smooth="yes"/>
      <point x="350" y="647" type="line"/>
      <point x="350" y="672" type="line"/>
      <point x="15" y="672" type="line"/>
      <point x="15" y="647" type="line"/>
      <point x="49" y="645"/>
      <point x="75.7809" y="626.447"/>
      <point x="95" y="592" type="curve" smooth="yes"/>
      <point x="278" y="264" type="line"/>
      <point x="278" y="117" type="line" smooth="yes"/>
      <point x="278" y="44"/>
      <point x="267" y="33"/>
      <point x="185" y="25" type="curve"/>
    </contour>
  </outline>
</glyph>
<glyph name="Z" format="2">
  <advance width="667"/>
  <unicode hex="005A"/>
  <outline>
    <contour>
      <point x="28" y="0" type="line"/>
      <point x="608" y="0" type="line"/>
      <point x="634" y="241" type="line"/>
      <point x="608" y="241" type="line"/>
      <point x="555.701" y="58.9215"/>
      <point x="512.954" y="35"/>
      <point x="329" y="35" type="curve" smooth="yes"/>
      <point x="225" y="35" type="line"/>
      <point x="604" y="656" type="line"/>
      <point x="604" y="672" type="line"/>
      <point x="80" y="672" type="line"/>
      <point x="59" y="466" type="line"/>
      <point x="87" y="466" type="line"/>
      <point x="133.7" y="601.237"/>
      <point x="176.614" y="637.202"/>
      <point x="315.205" y="637.082" type="curve"/>
      <point x="410" y="637" type="line"/>
      <point x="28" y="16" type="line"/>
    </contour>
  </outline>
</glyph>
<glyph name="grave" format="2">
  <advance width="298"/>
  <unicode hex="0060"/>
  <outline>
    <contour>
      <point x="30" y="663" type="curve" smooth="yes"/>
      <point x="30" y="643"/>
      <point x="41" y="629"/>
      <point x="70" y="611" type="curve" smooth="yes"/>
      <point x="212" y="523" type="line"/>
      <point x="268" y="523" type="line"/>
      <point x="131" y="680" type="line" smooth="yes"/>
      <point x="115" y="698"/>
      <point x="96" y="708"/>
      <point x="77" y="708" type="curve" smooth="yes"/>
      <point x="51" y="708"/>
      <point x="30" y="688"/>
    </contour>
  </outline>
</glyph>
<glyph name="a" format="2">
  <advance width="495"/>
  <unicode hex="0061"/>
  <anchor x="249" y="523" name="top"/>
  <anchor x="252" y="513" name="t.ring"/>
  <anchor x="384" y="0" name="b.ogonek"/>
  <anchor x="220" y="-50" name="bottom"/>
  <outline>
    <contour>
      <point x="20" y="93.3338" type="curve" smooth="yes"/>
      <point x="20" y="31"/>
      <point x="67" y="-14"/>
      <point x="139.6" y="-14" type="curve" smooth="yes"/>
      <point x="188" y="-14"/>
      <point x="234" y="6"/>
      <point x="288" y="56" type="curve"/>
      <point x="299.08" y="5"/>
      <point x="321.241" y="-14"/>
      <point x="369.566" y="-14" type="curve" smooth="yes"/>
      <point x="413.912" y="-14"/>
      <point x="445" y="2"/>
      <point x="483" y="43" type="curve"/>
      <point x="470" y="62" type="line"/>
      <point x="462.816" y="54.8162"/>
      <point x="454.252" y="50"/>
      <point x="445.273" y="50" type="curve" smooth="yes"/>
      <point x="433" y="50"/>
      <point x="426" y="59.0213"/>
      <point x="426" y="75.0591" type="curve" smooth="yes"/>
      <point x="426" y="336.676" type="line" smooth="yes"/>
      <point x="426" y="420.875"/>
      <point x="349.445" y="474"/>
      <point x="231.37" y="474" type="curve" smooth="yes"/>
      <point x="115" y="474"/>
      <point x="39" y="422.734"/>
      <point x="39" y="347.344" type="curve" smooth="yes"/>
      <point x="39" y="306.13"/>
      <point x="63" y="281"/>
      <point x="104" y="281" type="curve" smooth="yes"/>
      <point x="144" y="281"/>
      <point x="172" y="305.15"/>
      <point x="172" y="339.363" type="curve" smooth="yes"/>
      <point x="172" y="358.361"/>
      <point x="163.075" y="372.431"/>
      <point x="153.642" y="382.593" type="curve" smooth="yes"/>
      <point x="146.615" y="390.163"/>
      <point x="142" y="398.055"/>
      <point x="142" y="405.863" type="curve" smooth="yes"/>
      <point x="142" y="425.9"/>
      <point x="170" y="442"/>
      <point x="210.452" y="442" type="curve" smooth="yes"/>
      <point x="263" y="442"/>
      <point x="288" y="414.832"/>
      <point x="288" y="353.453" type="curve" smooth="yes"/>
      <point x="288" y="280" type="line"/>
      <point x="259.607" y="272.02" type="line" smooth="yes"/>
      <point x="168.158" y="246.318"/>
      <point x="20" y="197.535"/>
    </contour>
    <contour>
      <point x="166" y="124" type="curve" smooth="yes"/>
      <point x="166" y="182"/>
      <point x="208" y="224"/>
      <point x="288" y="245" type="curve"/>
      <point x="288" y="100" type="line"/>
      <point x="261" y="69"/>
      <point x="241" y="57"/>
      <point x="219.4" y="57" type="curve" smooth="yes"/>
      <point x="187" y="57"/>
      <point x="166" y="84"/>
    </contour>
  </outline>
</glyph>
<glyph name="b" format="2">
  <advance width="561"/>
  <unicode hex="0062"/>
  <anchor x="290" y="735" name="top"/>
  <anchor x="269" y="-50" name="bottom"/>
  <outline>
    <contour>
      <point x="72" y="-13" type="line"/>
      <point x="139.415" y="-13" type="line"/>
      <point x="211" y="78.9757" type="line"/>
      <point x="211" y="680" type="line"/>
      <point x="17" y="680" type="line"/>
      <point x="17" y="656" type="line"/>
      <point x="63.2858" y="646.944"/>
      <point x="72" y="637.755"/>
      <point x="72" y="598" type="curve" smooth="yes"/>
    </contour>
    <contour>
      <point x="174.47" y="55.8146" type="line"/>
      <point x="206.023" y="2.73624"/>
      <point x="258.133" y="-14"/>
      <point x="326.499" y="-14" type="curve" smooth="yes"/>
      <point x="453.847" y="-14"/>
      <point x="535.415" y="91.1415"/>
      <point x="535.415" y="255.294" type="curve" smooth="yes"/>
      <point x="535.415" y="387.959"/>
      <point x="456.356" y="474"/>
      <point x="344.62" y="474" type="curve" smooth="yes"/>
      <point x="296.876" y="474"/>
      <point x="241.812" y="457.969"/>
      <point x="199.011" y="402.904" type="curve"/>
      <point x="173.762" y="402.906" type="line"/>
      <point x="173.762" y="353.605" type="line"/>
      <point x="203.97" y="354.084" type="line"/>
      <point x="219.151" y="387.119"/>
      <point x="242.021" y="408.763"/>
      <point x="285.621" y="408.763" type="curve" smooth="yes"/>
      <point x="357.487" y="408.763"/>
      <point x="388.415" y="350.993"/>
      <point x="388.415" y="216.76" type="curve" smooth="yes"/>
      <point x="388.415" y="88.7185"/>
      <point x="346.23" y="27.016"/>
      <point x="296.042" y="27.016" type="curve" smooth="yes"/>
      <point x="241.185" y="27.016"/>
      <point x="211" y="86.3731"/>
      <point x="211" y="137.459" type="curve" smooth="yes"/>
      <point x="211" y="149.836" type="line"/>
      <point x="173.502" y="149.836" type="line"/>
    </contour>
  </outline>
</glyph>
<glyph name="c" format="2">
  <advance width="444"/>
  <unicode hex="0063"/>
  <anchor x="250" y="523" name="top"/>
  <anchor x="238" y="0" name="b.cedilla"/>
  <outline>
    <contour>
      <point x="24" y="223.487" type="curve" smooth="yes"/>
      <point x="24" y="85.2033"/>
      <point x="114" y="-14"/>
      <point x="238" y="-14" type="curve" smooth="yes"/>
      <point x="315" y="-14"/>
      <point x="371" y="16.7048"/>
      <point x="429" y="90" type="curve"/>
      <point x="412" y="109" type="line"/>
      <point x="375" y="67.75"/>
      <point x="349" y="54"/>
      <point x="308" y="54" type="curve" smooth="yes"/>
      <point x="221" y="54"/>
      <point x="166" y="141.224"/>
      <point x="166" y="277.573" type="curve" smooth="yes"/>
      <point x="166" y="380.838"/>
      <point x="198" y="444"/>
      <point x="250" y="444" type="curve" smooth="yes"/>
      <point x="278.761" y="444"/>
      <point x="291" y="422.81"/>
      <point x="291" y="373.014" type="curve" smooth="yes"/>
      <point x="291" y="337.485"/>
      <point x="320" y="300"/>
      <point x="357" y="300" type="curve" smooth="yes"/>
      <point x="399" y="300"/>
      <point x="415" y="329.337"/>
      <point x="415" y="362.721" type="curve" smooth="yes"/>
      <point x="415" y="425.442"/>
      <point x="348" y="474"/>
      <point x="260" y="474" type="curve" smooth="yes"/>
      <point x="124" y="474"/>
      <point x="24" y="367.782"/>
    </contour>
  </outline>
</glyph>
<glyph name="d" format="2">
  <advance width="560"/>
  <unicode hex="0064"/>
  <anchor x="390" y="534" name="middle"/>
  <anchor x="240" y="735" name="top"/>
  <anchor x="272" y="-50" name="bottom"/>
  <anchor x="208" y="0" name="b.cedilla"/>
  <outline>
    <contour>
      <point x="340" y="-6.82529" type="line"/>
      <point x="349" y="-13" type="line"/>
      <point x="395" y="0"/>
      <point x="414" y="5"/>
      <point x="476" y="12" type="curve" smooth="yes"/>
      <point x="538" y="20" type="line"/>
      <point x="538" y="43" type="line"/>
      <point x="492" y="46"/>
      <point x="479" y="59"/>
      <point x="479" y="101" type="curve" smooth="yes"/>
      <point x="479" y="680" type="line"/>
      <point x="264" y="680" type="line"/>
      <point x="264" y="656" type="line"/>
      <point x="331" y="651"/>
      <point x="340" y="644"/>
      <point x="340" y="598" type="curve" smooth="yes"/>
    </contour>
    <contour>
      <point x="25" y="210.845" type="curve" smooth="yes"/>
      <point x="25" y="62.6709"/>
      <point x="84.6" y="-14"/>
      <point x="199.783" y="-14" type="curve" smooth="yes"/>
      <point x="249.729" y="-14"/>
      <point x="302.632" y="5.44609"/>
      <point x="357.914" y="68.4563" type="curve"/>
      <point x="357.914" y="123.376" type="line"/>
      <point x="345.084" y="123.376" type="line"/>
      <point x="333.041" y="91.4161"/>
      <point x="297.819" y="42"/>
      <point x="255.632" y="42" type="curve" smooth="yes"/>
      <point x="209.086" y="42"/>
      <point x="174" y="95.6412"/>
      <point x="174" y="241.583" type="curve" smooth="yes"/>
      <point x="174" y="364.287"/>
      <point x="216.297" y="432.813"/>
      <point x="271.86" y="432.813" type="curve" smooth="yes"/>
      <point x="312.201" y="432.813"/>
      <point x="334.494" y="401.628"/>
      <point x="344.802" y="354.051" type="curve"/>
      <point x="357.768" y="354.007" type="line"/>
      <point x="357.768" y="404.988" type="line"/>
      <point x="354.617" y="404.751" type="line"/>
      <point x="325.467" y="453.638"/>
      <point x="284.057" y="474"/>
      <point x="235.795" y="474" type="curve" smooth="yes"/>
      <point x="140.376" y="474"/>
      <point x="25" y="378.822"/>
    </contour>
  </outline>
</glyph>
<glyph name="e" format="2">
  <advance width="444"/>
  <unicode hex="0065"/>
  <anchor x="225" y="524" name="top"/>
  <anchor x="255" y="0" name="b.ogonek"/>
  <anchor x="229" y="-50" name="bottom"/>
  <outline>
    <contour>
      <point x="25" y="228" type="curve" smooth="yes"/>
      <point x="25" y="82"/>
      <point x="107" y="-14"/>
      <point x="231" y="-14" type="curve" smooth="yes"/>
      <point x="312" y="-14"/>
      <point x="361" y="18"/>
      <point x="426" y="111" type="curve"/>
      <point x="402" y="125" type="line"/>
      <point x="362" y="76"/>
      <point x="331" y="58"/>
      <point x="288" y="58" type="curve" smooth="yes"/>
      <point x="183.67" y="58"/>
      <point x="163.801" y="183.985"/>
      <point x="163.801" y="264.602" type="curve" smooth="yes"/>
      <point x="163.801" y="318.801"/>
      <point x="164.39" y="443"/>
      <point x="234" y="443" type="curve" smooth="yes"/>
      <point x="296.697" y="443"/>
      <point x="298" y="342.878"/>
      <point x="298" y="297" type="curve" smooth="yes"/>
      <point x="298" y="282" type="line"/>
      <point x="149" y="282" type="line"/>
      <point x="149" y="245" type="line"/>
      <point x="421" y="245" type="line"/>
      <point x="420.514" y="262.368" type="line" smooth="yes"/>
      <point x="417.384" y="374.202"/>
      <point x="365.272" y="474"/>
      <point x="234" y="474" type="curve" smooth="yes"/>
      <point x="109" y="474"/>
      <point x="25" y="374"/>
    </contour>
  </outline>
</glyph>
<glyph name="f" format="2">
  <advance width="333"/>
  <unicode hex="0066"/>
  <anchor x="180" y="735" name="top"/>
  <outline>
    <contour>
      <point x="71" y="83.9927" type="line" smooth="yes" name=".sk1"/>
      <point x="71" y="44.1795"/>
      <point x="57.5977" y="29.288"/>
      <point x="17" y="23.9927" type="curve"/>
      <point x="17" y="-0.00730133" type="line"/>
      <point x="264" y="-0.00730133" type="line"/>
      <point x="264" y="23.9927" type="line"/>
      <point x="223.402" y="29.288"/>
      <point x="210" y="44.1795"/>
      <point x="210" y="83.9927" type="curve" smooth="yes"/>
      <point x="210" y="417" type="line"/>
      <point x="297" y="417" type="line"/>
      <point x="297" y="461" type="line"/>
      <point x="210" y="461" type="line"/>
      <point x="210" y="582.405" type="line" smooth="yes"/>
      <point x="210" y="637.137"/>
      <point x="225" y="665"/>
      <point x="258.886" y="665" type="curve" smooth="yes"/>
      <point x="278" y="665"/>
      <point x="289" y="652.095"/>
      <point x="289" y="641.661" type="curve"/>
      <point x="274.959" y="628.27"/>
      <point x="262.085" y="611.217"/>
      <point x="262.085" y="588.713" type="curve" smooth="yes"/>
      <point x="262.085" y="548.04"/>
      <point x="293" y="529"/>
      <point x="326.152" y="529" type="curve" smooth="yes"/>
      <point x="364" y="529"/>
      <point x="389" y="553.851"/>
      <point x="389" y="590.631" type="curve" smooth="yes"/>
      <point x="389" y="649.28"/>
      <point x="330" y="696"/>
      <point x="237.842" y="696" type="curve" smooth="yes"/>
      <point x="91.906" y="696"/>
      <point x="71" y="587.649"/>
      <point x="71" y="461" type="curve"/>
      <point x="14" y="461" type="line"/>
      <point x="14" y="417" type="line"/>
      <point x="71" y="417" type="line"/>
    </contour>
  </outline>
</glyph>
<glyph name="g" format="2">
  <advance width="500"/>
  <unicode hex="0067"/>
  <anchor x="250" y="523" name="top"/>
  <outline>
    <contour>
      <point x="28" y="-120.95" type="curve" smooth="yes"/>
      <point x="28" y="-187.425"/>
      <point x="103" y="-224"/>
      <point x="232.994" y="-224" type="curve" smooth="yes"/>
      <point x="394.816" y="-224"/>
      <point x="483" y="-170.278"/>
      <point x="483" y="-69.3598" type="curve" smooth="yes"/>
      <point x="483" y="15.4005"/>
      <point x="420.793" y="52.6277"/>
      <point x="317.265" y="59.5006" type="curve" smooth="yes"/>
      <point x="254" y="63.7006" type="line" smooth="yes"/>
      <point x="174.159" y="69.001"/>
      <point x="154" y="71.0506"/>
      <point x="154" y="104.852" type="curve" smooth="yes"/>
      <point x="154" y="136.121"/>
      <point x="171.251" y="149.278"/>
      <point x="225.845" y="159.308" type="curve"/>
      <point x="181.314" y="166.451" type="line"/>
      <point x="88.8606" y="139.14"/>
      <point x="42" y="99.5845"/>
      <point x="42" y="39.3387" type="curve" smooth="yes"/>
      <point x="42" y="2"/>
      <point x="60" y="-16"/>
      <point x="124" y="-39" type="curve"/>
      <point x="61" y="-48.9701"/>
      <point x="28" y="-76.8554"/>
    </contour>
    <contour>
      <point x="37" y="310.752" type="curve" smooth="yes"/>
      <point x="37" y="191.551"/>
      <point x="147.159" y="147.952"/>
      <point x="248.698" y="148" type="curve" smooth="yes"/>
      <point x="369.612" y="148.057"/>
      <point x="448" y="199.611"/>
      <point x="448" y="301.61" type="curve" smooth="yes"/>
      <point x="448" y="358.029"/>
      <point x="418.192" y="403.374"/>
      <point x="352.774" y="441.72" type="curve"/>
      <point x="288.247" y="458.5" type="line"/>
      <point x="347.873" y="419.048"/>
      <point x="429.569" y="399"/>
      <point x="469.571" y="399" type="curve" smooth="yes"/>
      <point x="482" y="399" type="line"/>
      <point x="482" y="452" type="line"/>
      <point x="376.407" y="452" type="line" smooth="yes"/>
      <point x="362.681" y="452"/>
      <point x="342.046" y="454.296"/>
      <point x="325.246" y="459.285" type="curve" smooth="yes"/>
      <point x="308.802" y="464.168" type="line" smooth="yes"/>
      <point x="293.216" y="468.796"/>
      <point x="273.601" y="474"/>
      <point x="242.56" y="474" type="curve" smooth="yes"/>
      <point x="126.317" y="474"/>
      <point x="37" y="402.502"/>
    </contour>
    <contour>
      <point x="116" y="-117.517" type="curve" smooth="yes"/>
      <point x="116" y="-91.8113"/>
      <point x="128.642" y="-73.3552"/>
      <point x="156.642" y="-46.9081" type="curve"/>
      <point x="221.275" y="-55.6239"/>
      <point x="257.562" y="-58.9867"/>
      <point x="322.367" y="-59" type="curve" smooth="yes"/>
      <point x="377.323" y="-59.0113"/>
      <point x="404" y="-78.7989"/>
      <point x="404" y="-117.232" type="curve" smooth="yes"/>
      <point x="404" y="-170.806"/>
      <point x="347.878" y="-193"/>
      <point x="259.305" y="-193" type="curve" smooth="yes"/>
      <point x="162" y="-193"/>
      <point x="116" y="-166.553"/>
    </contour>
    <contour>
      <point x="174" y="309.794" type="curve" smooth="yes"/>
      <point x="174" y="395.23"/>
      <point x="200" y="443"/>
      <point x="243" y="443" type="curve" smooth="yes"/>
      <point x="289.845" y="443"/>
      <point x="316.215" y="395.23"/>
      <point x="316.215" y="306.687" type="curve" smooth="yes"/>
      <point x="316.215" y="221"/>
      <point x="289.845" y="182"/>
      <point x="246.541" y="182" type="curve" smooth="yes"/>
      <point x="200" y="182"/>
      <point x="174" y="220.779"/>
    </contour>
  </outline>
</glyph>
<glyph name="h" format="2">
  <advance width="552"/>
  <unicode hex="0068"/>
  <anchor x="166" y="534" name="middle"/>
  <anchor x="270" y="735" name="top"/>
  <anchor x="277" y="-50" name="bottom"/>
  <anchor x="141" y="0" name="b.cedilla"/>
  <outline>
    <component base="l"/>
    <contour>
      <point x="347" y="84" type="line" smooth="yes" name=".sk2"/>
      <point x="347" y="44.1868"/>
      <point x="333.598" y="29.2953"/>
      <point x="293" y="24" type="curve"/>
      <point x="293" y="0" type="line"/>
      <point x="540" y="0" type="line"/>
      <point x="540" y="24" type="line"/>
      <point x="499.402" y="29.2953"/>
      <point x="486" y="44.1868"/>
      <point x="486" y="84" type="curve" smooth="yes"/>
      <point x="486" y="333" type="line" smooth="yes"/>
      <point x="486" y="419"/>
      <point x="433" y="474"/>
      <point x="351" y="474" type="curve" smooth="yes"/>
      <point x="291" y="474"/>
      <point x="245.837" y="444.467"/>
      <point x="208" y="386" type="curve" smooth="yes"/>
      <point x="186" y="352.005" type="line"/>
      <point x="186" y="310" type="line"/>
      <point x="209" y="348" type="line" smooth="yes"/>
      <point x="226.474" y="376.87"/>
      <point x="260.327" y="407"/>
      <point x="295" y="407" type="curve" smooth="yes"/>
      <point x="330" y="407"/>
      <point x="347" y="380"/>
      <point x="347" y="324" type="curve" smooth="yes"/>
    </contour>
  </outline>
</glyph>
<glyph name="k" format="2">
  <advance width="556"/>
  <unicode hex="006B"/>
  <anchor x="280" y="735" name="top"/>
  <anchor x="278" y="-50" name="bottom"/>
  <outline>
    <component base="l" xOffset="3"/>
    <contour>
      <point x="170" y="155" type="line"/>
      <point x="232" y="222" type="line"/>
      <point x="327" y="88" type="line" smooth="yes"/>
      <point x="344" y="63"/>
      <point x="351" y="51"/>
      <point x="351" y="41.302" type="curve" smooth="yes"/>
      <point x="351" y="29.4074"/>
      <point x="340.47" y="24"/>
      <point x="314" y="24" type="curve"/>
      <point x="309" y="23.5183" type="line"/>
      <point x="309" y="0" type="line"/>
      <point x="543" y="0" type="line"/>
      <point x="543" y="24" type="line"/>
      <point x="532" y="24"/>
      <point x="527" y="27"/>
      <point x="518" y="39" type="curve" smooth="yes"/>
      <point x="324" y="307" type="line"/>
      <point x="353.727" y="336.845" type="line" smooth="yes"/>
      <point x="430.662" y="414.084"/>
      <point x="456.749" y="429.857"/>
      <point x="513" y="437" type="curve"/>
      <point x="513" y="460" type="line"/>
      <point x="299" y="460" type="line"/>
      <point x="299" y="437" type="line"/>
      <point x="336.49" y="433.419"/>
      <point x="358" y="425.106"/>
      <point x="358" y="410" type="curve" smooth="yes"/>
      <point x="358" y="401"/>
      <point x="348" y="383"/>
      <point x="337" y="372" type="curve" smooth="yes"/>
      <point x="170" y="205" type="line"/>
    </contour>
  </outline>
</glyph>
<glyph name="l" format="2">
  <advance width="278"/>
  <unicode hex="006C"/>
  <anchor x="120" y="735" name="top"/>
  <anchor x="134" y="-50" name="bottom"/>
  <anchor x="334" y="336" name="m.periodcentered"/>
  <outline>
    <contour>
      <point x="67" y="83.9548" type="line" smooth="yes" name=".sk1"/>
      <point x="67" y="44.1416"/>
      <point x="53.5977" y="29.2501"/>
      <point x="13" y="23.9548" type="curve"/>
      <point x="13" y="-0.0451965" type="line"/>
      <point x="260" y="-0.0451965" type="line"/>
      <point x="260" y="23.9548" type="line"/>
      <point x="219.402" y="29.2501"/>
      <point x="206" y="44.1416"/>
      <point x="206" y="83.9548" type="curve" smooth="yes"/>
      <point x="206" y="680" type="line"/>
      <point x="135.5" y="680.027" type="line" name=".sk2"/>
      <point x="13" y="680.027" type="line"/>
      <point x="13" y="656.027" type="line"/>
      <point x="53.5977" y="650.731"/>
      <point x="67" y="635.84"/>
      <point x="67" y="596.027" type="curve" smooth="yes"/>
    </contour>
  </outline>
</glyph>
<glyph name="m" format="2">
  <advance width="829"/>
  <unicode hex="006D"/>
  <outline>
    <contour>
      <point x="70" y="84" type="line" smooth="yes" name=".sk3"/>
      <point x="70" y="44.1868"/>
      <point x="56.5977" y="29.2953"/>
      <point x="16" y="24" type="curve"/>
      <point x="16" y="0" type="line"/>
      <point x="263" y="0" type="line"/>
      <point x="263" y="24" type="line"/>
      <point x="222.402" y="29.2953"/>
      <point x="208.973" y="44.1868"/>
      <point x="208.949" y="84" type="curve" smooth="yes"/>
      <point x="208.762" y="388.743" type="line"/>
      <point x="205.715" y="388.742" type="line"/>
      <point x="206" y="460" type="line"/>
      <point x="138.5" y="460" type="line" name=".sk4"/>
      <point x="16" y="460" type="line"/>
      <point x="16" y="436" type="line"/>
      <point x="56.5977" y="430.705"/>
      <point x="70" y="415.813"/>
      <point x="70" y="376" type="curve" smooth="yes"/>
    </contour>
    <contour>
      <point x="347" y="84" type="line" smooth="yes" name=".sk1"/>
      <point x="347" y="44.1868"/>
      <point x="333.598" y="29.2953"/>
      <point x="293" y="24" type="curve"/>
      <point x="293" y="0" type="line"/>
      <point x="540" y="0" type="line"/>
      <point x="540" y="24" type="line"/>
      <point x="499.402" y="29.2953"/>
      <point x="486" y="44.1868"/>
      <point x="486" y="84" type="curve" smooth="yes"/>
      <point x="486" y="376.508" type="line" smooth="yes"/>
      <point x="486" y="443"/>
      <point x="416" y="474"/>
      <point x="354.855" y="474" type="curve" smooth="yes"/>
      <point x="284.646" y="474"/>
      <point x="236.533" y="441.186"/>
      <point x="196.746" y="370.483" type="curve"/>
      <point x="202.578" y="337.517" type="line"/>
      <point x="217.495" y="366.495"/>
      <point x="264.198" y="407"/>
      <point x="302.597" y="407" type="curve" smooth="yes"/>
      <point x="332" y="407"/>
      <point x="347" y="384"/>
      <point x="347" y="324" type="curve" smooth="yes"/>
    </contour>
    <contour>
      <point x="624" y="84" type="line" smooth="yes" name=".sk2"/>
      <point x="624" y="44.1868"/>
      <point x="610.598" y="29.2953"/>
      <point x="570" y="24" type="curve"/>
      <point x="570" y="0" type="line"/>
      <point x="817" y="0" type="line"/>
      <point x="817" y="24" type="line"/>
      <point x="776.402" y="29.2953"/>
      <point x="763" y="44.1868"/>
      <point x="763" y="84" type="curve" smooth="yes"/>
      <point x="763" y="333" type="line" smooth="yes"/>
      <point x="763" y="419"/>
      <point x="710" y="474"/>
      <point x="625.587" y="474" type="curve" smooth="yes"/>
      <point x="566.334" y="474"/>
      <point x="526.626" y="446.9"/>
      <point x="467.341" y="369.68" type="curve"/>
      <point x="477.587" y="335.402" type="line"/>
      <point x="499.028" y="374.883"/>
      <point x="541.77" y="407"/>
      <point x="577.829" y="407" type="curve" smooth="yes"/>
      <point x="609" y="407"/>
      <point x="624" y="383"/>
      <point x="624" y="324" type="curve" smooth="yes"/>
    </contour>
  </outline>
</glyph>
<glyph name="n" format="2">
  <advance width="554"/>
  <unicode hex="006E"/>
  <anchor x="269" y="523" name="top"/>
  <anchor x="280" y="-50" name="bottom"/>
  <outline>
    <component base="dotlessi"/>
    <contour>
      <point x="349" y="84" type="line" smooth="yes" name=".sk2"/>
      <point x="349" y="44.1868"/>
      <point x="335.598" y="29.2953"/>
      <point x="295" y="24" type="curve"/>
      <point x="295" y="0" type="line"/>
      <point x="542" y="0" type="line"/>
      <point x="542" y="24" type="line"/>
      <point x="501.402" y="29.2953"/>
      <point x="488" y="44.1868"/>
      <point x="488" y="84" type="curve" smooth="yes"/>
      <point x="488" y="333" type="line" smooth="yes"/>
      <point x="488" y="419"/>
      <point x="435" y="474"/>
      <point x="353" y="474" type="curve" smooth="yes"/>
      <point x="293" y="474"/>
      <point x="247.837" y="444.467"/>
      <point x="210" y="386" type="curve" smooth="yes"/>
      <point x="188" y="352.005" type="line"/>
      <point x="188" y="310" type="line"/>
      <point x="211" y="348" type="line" smooth="yes"/>
      <point x="228.474" y="376.87"/>
      <point x="262.327" y="407"/>
      <point x="297" y="407" type="curve" smooth="yes"/>
      <point x="332" y="407"/>
      <point x="349" y="380"/>
      <point x="349" y="324" type="curve" smooth="yes"/>
    </contour>
  </outline>
  <guideline angle="90" name="gh" x="269" y="0"/>
</glyph>
<glyph name="o" format="2">
  <advance width="502"/>
  <unicode hex="006F"/>
  <anchor x="250" y="523" name="top"/>
  <anchor x="285" y="0" name="b.ogonek"/>
  <anchor x="250" y="-50" name="bottom"/>
  <outline>
    <contour>
      <point x="25" y="225.976" type="curve" smooth="yes"/>
      <point x="25" y="82.2748"/>
      <point x="114.703" y="-14"/>
      <point x="249.287" y="-14" type="curve" smooth="yes"/>
      <point x="390.024" y="-14"/>
      <point x="477" y="85.4639"/>
      <point x="477" y="250.195" type="curve" smooth="yes"/>
      <point x="477" y="384.628"/>
      <point x="388.495" y="474"/>
      <point x="256.532" y="474" type="curve" smooth="yes"/>
      <point x="114.609" y="474"/>
      <point x="25" y="378.009"/>
    </contour>
    <contour>
      <point x="164.5" y="260.9" type="curve" smooth="yes"/>
      <point x="164.5" y="339.8"/>
      <point x="175.4" y="441"/>
      <point x="244.15" y="441" type="curve" smooth="yes"/>
      <point x="326.15" y="441"/>
      <point x="337.441" y="254.6"/>
      <point x="337.4" y="193.75" type="curve" smooth="yes"/>
      <point x="337.341" y="105.45"/>
      <point x="326.5" y="19"/>
      <point x="262.4" y="19" type="curve" smooth="yes"/>
      <point x="194.8" y="19"/>
      <point x="164.5" y="146.45"/>
    </contour>
  </outline>
  <guideline angle="90" name="gh" x="250" y="0"/>
  <guideline angle="90" x="169" y="0"/>
  <guideline angle="90" x="331" y="0"/>
  <guideline angle="90" x="25" y="0"/>
  <guideline angle="90" x="475" y="0"/>
  <guideline angle="6.34019" x="25" y="180.444"/>
  <guideline angle="0" x="0" y="226"/>
</glyph>
<glyph name="p" format="2">
  <advance width="559"/>
  <unicode hex="0070"/>
  <anchor x="281" y="523" name="top"/>
  <outline>
    <contour>
      <point x="75" y="-126" type="line" smooth="yes" name=".sk1"/>
      <point x="75" y="-165.813"/>
      <point x="61.5977" y="-180.705"/>
      <point x="21" y="-186" type="curve"/>
      <point x="21" y="-210" type="line"/>
      <point x="268" y="-210" type="line"/>
      <point x="268" y="-186" type="line"/>
      <point x="227.402" y="-180.705"/>
      <point x="214" y="-165.813"/>
      <point x="214" y="-126" type="curve" smooth="yes"/>
      <point x="214" y="460" type="line"/>
      <point x="21" y="460.013" type="line"/>
      <point x="21" y="436.013" type="line"/>
      <point x="61.5977" y="430.718"/>
      <point x="75" y="415.826"/>
      <point x="75" y="376.013" type="curve" smooth="yes"/>
    </contour>
    <contour>
      <point x="187.575" y="66.9321" type="line"/>
      <point x="197.149" y="66.9321" type="line"/>
      <point x="237" y="3.18304"/>
      <point x="283.504" y="-14"/>
      <point x="328.499" y="-14" type="curve" smooth="yes"/>
      <point x="457.512" y="-14"/>
      <point x="534" y="88.1827"/>
      <point x="534" y="260.534" type="curve" smooth="yes"/>
      <point x="534" y="375.728"/>
      <point x="462.729" y="474"/>
      <point x="353" y="474" type="curve" smooth="yes"/>
      <point x="296.898" y="474"/>
      <point x="245" y="450.716"/>
      <point x="214" y="392.128" type="curve"/>
      <point x="187.575" y="392.128" type="line"/>
      <point x="187.575" y="336.07" type="line"/>
      <point x="214.015" y="335.891" type="line"/>
      <point x="214.015" y="369.5"/>
      <point x="249.212" y="417"/>
      <point x="294.27" y="417" type="curve" smooth="yes"/>
      <point x="359.064" y="417"/>
      <point x="386" y="333.55"/>
      <point x="386" y="210.965" type="curve" smooth="yes"/>
      <point x="386" y="99.8348"/>
      <point x="353.853" y="41"/>
      <point x="293.131" y="41" type="curve" smooth="yes"/>
      <point x="253.104" y="41"/>
      <point x="221.037" y="73.4661"/>
      <point x="208.566" y="120.619" type="curve"/>
      <point x="187.575" y="120.619" type="line"/>
    </contour>
  </outline>
</glyph>
<glyph name="q" format="2">
  <advance width="552"/>
  <unicode hex="0071"/>
  <outline>
    <contour>
      <point x="339" y="-126" type="line" smooth="yes" name=".sk1"/>
      <point x="339" y="-165.813"/>
      <point x="325.598" y="-180.705"/>
      <point x="285" y="-186" type="curve"/>
      <point x="285" y="-210" type="line"/>
      <point x="532" y="-210" type="line"/>
      <point x="532" y="-186" type="line"/>
      <point x="491.402" y="-180.705"/>
      <point x="478" y="-165.813"/>
      <point x="478" y="-126" type="curve" smooth="yes"/>
      <point x="478" y="472" type="line"/>
      <point x="463" y="472" type="line"/>
      <point x="339" y="437.208" type="line"/>
    </contour>
    <contour>
      <point x="25" y="213.634" type="curve" smooth="yes"/>
      <point x="25" y="76.3326"/>
      <point x="97.035" y="-14"/>
      <point x="206.525" y="-14" type="curve" smooth="yes"/>
      <point x="263.2" y="-14"/>
      <point x="306.329" y="6.6188"/>
      <point x="352.49" y="55.7813" type="curve"/>
      <point x="377.36" y="56.1831" type="line"/>
      <point x="377.36" y="115.687" type="line"/>
      <point x="342.521" y="116.324" type="line"/>
      <point x="336.764" y="70.4575"/>
      <point x="305.43" y="40"/>
      <point x="264" y="40" type="curve" smooth="yes"/>
      <point x="201.921" y="40"/>
      <point x="171" y="113.543"/>
      <point x="171" y="261.194" type="curve" smooth="yes"/>
      <point x="171" y="377.118"/>
      <point x="207.244" y="442"/>
      <point x="272" y="442" type="curve" smooth="yes"/>
      <point x="312.1" y="442"/>
      <point x="339" y="409.8"/>
      <point x="339" y="361.8" type="curve" smooth="yes"/>
      <point x="339" y="343.856" type="line"/>
      <point x="416.139" y="343.856" type="line"/>
      <point x="416.139" y="449.027" type="line"/>
      <point x="401.158" y="449.027" type="line"/>
      <point x="338.707" y="468.635"/>
      <point x="306.876" y="474"/>
      <point x="253" y="474" type="curve" smooth="yes"/>
      <point x="117.325" y="474"/>
      <point x="25" y="368.568"/>
    </contour>
  </outline>
</glyph>
<glyph name="r" format="2">
  <advance width="444"/>
  <unicode hex="0072"/>
  <anchor x="212" y="523" name="top"/>
  <anchor x="175" y="-50" name="bottom"/>
  <outline>
    <contour>
      <point x="83" y="83.9413" type="line" smooth="yes" name=".sk1"/>
      <point x="83" y="44.1281"/>
      <point x="69.5977" y="29.2366"/>
      <point x="29" y="23.9413" type="curve"/>
      <point x="29" y="-0.0587006" type="line"/>
      <point x="276" y="-0.0587006" type="line"/>
      <point x="276" y="23.9413" type="line"/>
      <point x="235.402" y="29.2366"/>
      <point x="222" y="44.1281"/>
      <point x="222" y="83.9413" type="curve" smooth="yes"/>
      <point x="222" y="292" type="line" smooth="yes"/>
      <point x="222" y="344"/>
      <point x="250" y="387"/>
      <point x="279.213" y="387" type="curve" smooth="yes"/>
      <point x="291" y="387"/>
      <point x="301.794" y="380.484"/>
      <point x="311.621" y="363.517" type="curve" smooth="yes"/>
      <point x="324.896" y="340.601"/>
      <point x="345" y="328"/>
      <point x="370.294" y="328" type="curve" smooth="yes"/>
      <point x="408" y="328"/>
      <point x="434" y="356.193"/>
      <point x="434" y="395.462" type="curve" smooth="yes"/>
      <point x="434" y="440.772"/>
      <point x="400" y="474"/>
      <point x="349.069" y="474" type="curve" smooth="yes"/>
      <point x="303" y="474"/>
      <point x="265" y="446.713"/>
      <point x="218" y="379" type="curve"/>
      <point x="218" y="460" type="line"/>
      <point x="151.5" y="460.15" type="line" name=".sk2"/>
      <point x="29" y="460.149" type="line"/>
      <point x="29" y="436.149" type="line"/>
      <point x="69.5977" y="430.854"/>
      <point x="83" y="415.962"/>
      <point x="83" y="376.149" type="curve" smooth="yes"/>
    </contour>
  </outline>
</glyph>
<glyph name="s" format="2">
  <advance width="386"/>
  <unicode hex="0073"/>
  <anchor x="180" y="523" name="top"/>
  <anchor x="208" y="0" name="b.cedilla"/>
  <anchor x="207" y="-50" name="bottom"/>
  <outline>
    <contour>
      <point x="27" y="327.678" type="curve" smooth="yes"/>
      <point x="27" y="264.909"/>
      <point x="63.3802" y="218.987"/>
      <point x="154" y="178.961" type="curve" smooth="yes"/>
      <point x="169" y="172.336" type="line" smooth="yes"/>
      <point x="237.012" y="142.295"/>
      <point x="265" y="117.214"/>
      <point x="265" y="82.2494" type="curve" smooth="yes"/>
      <point x="265" y="46.0574"/>
      <point x="235" y="20"/>
      <point x="185.337" y="20" type="curve" smooth="yes"/>
      <point x="120" y="20"/>
      <point x="74" y="65"/>
      <point x="53" y="152" type="curve"/>
      <point x="25" y="152" type="line"/>
      <point x="25" y="-13" type="line"/>
      <point x="50" y="-13" type="line"/>
      <point x="61" y="8"/>
      <point x="67" y="15"/>
      <point x="76" y="15" type="curve" smooth="yes"/>
      <point x="81" y="15"/>
      <point x="89.1144" y="13.2749"/>
      <point x="99" y="9" type="curve" smooth="yes"/>
      <point x="126.12" y="-2.72736"/>
      <point x="179" y="-14"/>
      <point x="214.269" y="-14" type="curve" smooth="yes"/>
      <point x="298" y="-14"/>
      <point x="361" y="48.1366"/>
      <point x="361" y="138.335" type="curve" smooth="yes"/>
      <point x="361" y="205.933"/>
      <point x="326.299" y="249.315"/>
      <point x="237.406" y="288.352" type="curve" smooth="yes"/>
      <point x="223" y="294.678" type="line" smooth="yes"/>
      <point x="155.29" y="324.413"/>
      <point x="127" y="348.797"/>
      <point x="127" y="382.872" type="curve" smooth="yes"/>
      <point x="127" y="415.945"/>
      <point x="155" y="441"/>
      <point x="196.662" y="441" type="curve" smooth="yes"/>
      <point x="260.099" y="441"/>
      <point x="295.896" y="383.037"/>
      <point x="315" y="327" type="curve"/>
      <point x="340" y="327" type="line"/>
      <point x="340" y="472" type="line"/>
      <point x="318" y="472" type="line"/>
      <point x="312" y="457"/>
      <point x="306" y="452"/>
      <point x="294" y="452" type="curve" smooth="yes"/>
      <point x="288" y="452"/>
      <point x="278" y="454"/>
      <point x="259.618" y="460.002" type="curve" smooth="yes"/>
      <point x="229" y="470"/>
      <point x="206" y="474"/>
      <point x="184" y="474" type="curve" smooth="yes"/>
      <point x="93" y="474"/>
      <point x="27" y="411.863"/>
    </contour>
  </outline>
</glyph>
<glyph name="t" format="2">
  <advance width="333"/>
  <unicode hex="0074"/>
  <anchor x="178" y="0" name="b.cedilla"/>
  <anchor x="153" y="690" name="top"/>
  <anchor x="175" y="-50" name="bottom"/>
  <outline>
    <contour>
      <point x="20" y="417" type="line"/>
      <point x="72" y="417" type="line"/>
      <point x="72" y="91" type="line" smooth="yes"/>
      <point x="72" y="26"/>
      <point x="115" y="-14"/>
      <point x="184" y="-14" type="curve" smooth="yes"/>
      <point x="251" y="-14"/>
      <point x="291" y="16"/>
      <point x="332" y="98" type="curve"/>
      <point x="307" y="109" type="line"/>
      <point x="287" y="71"/>
      <point x="271" y="57"/>
      <point x="250" y="57" type="curve" smooth="yes"/>
      <point x="222" y="57"/>
      <point x="211" y="74"/>
      <point x="211" y="114" type="curve" smooth="yes"/>
      <point x="211" y="417" type="line"/>
      <point x="305" y="417" type="line"/>
      <point x="305" y="461" type="line"/>
      <point x="211" y="461" type="line"/>
      <point x="211" y="630" type="line"/>
      <point x="186" y="630" type="line"/>
      <point x="125" y="544"/>
      <point x="85" y="499"/>
      <point x="20" y="444" type="curve"/>
    </contour>
  </outline>
</glyph>
<glyph name="u" format="2">
  <advance width="553"/>
  <unicode hex="0075"/>
  <anchor x="262" y="524" name="top"/>
  <anchor x="262" y="513" name="t.ring"/>
  <anchor x="442" y="19" name="b.ogonek"/>
  <anchor x="280" y="-50" name="bottom"/>
  <outline>
    <contour>
      <point x="16" y="436" type="line"/>
      <point x="57" y="428"/>
      <point x="65" y="419"/>
      <point x="65" y="377" type="curve" smooth="yes"/>
      <point x="65" y="126" type="line" smooth="yes"/>
      <point x="65" y="38.7826"/>
      <point x="115" y="-14"/>
      <point x="202.891" y="-14" type="curve" smooth="yes"/>
      <point x="246.876" y="-14"/>
      <point x="280.662" y="-0.781137"/>
      <point x="332.786" y="43.3519" type="curve" smooth="yes"/>
      <point x="343" y="52" type="line"/>
      <point x="343" y="-6.72336" type="line"/>
      <point x="353" y="-13" type="line"/>
      <point x="413.941" y="8.25836"/>
      <point x="472.975" y="14.7713"/>
      <point x="537" y="20" type="curve"/>
      <point x="537" y="44" type="line"/>
      <point x="493" y="45.75"/>
      <point x="481" y="58"/>
      <point x="481" y="101" type="curve" smooth="yes"/>
      <point x="481" y="460" type="line"/>
      <point x="280" y="460" type="line"/>
      <point x="280" y="436" type="line"/>
      <point x="330" y="432"/>
      <point x="342" y="420"/>
      <point x="342" y="377" type="curve" smooth="yes"/>
      <point x="342" y="95" type="line"/>
      <point x="309" y="62"/>
      <point x="288" y="51"/>
      <point x="258.618" y="51" type="curve" smooth="yes"/>
      <point x="219" y="51"/>
      <point x="204" y="71"/>
      <point x="204" y="122" type="curve" smooth="yes"/>
      <point x="204" y="460" type="line"/>
      <point x="16" y="460" type="line"/>
    </contour>
  </outline>
</glyph>
<glyph name="v" format="2">
  <advance width="484"/>
  <unicode hex="0076"/>
  <anchor x="245" y="523" name="top"/>
  <anchor x="241" y="-50" name="bottom"/>
  <outline>
    <contour>
      <point x="10" y="436" type="line"/>
      <point x="47.2148" y="431.146"/>
      <point x="54.1929" y="414.666"/>
      <point x="68" y="381" type="curve" smooth="yes"/>
      <point x="230" y="-14" type="line"/>
      <point x="256" y="-14" type="line"/>
      <point x="416" y="381" type="line" smooth="yes"/>
      <point x="433.993" y="425.421"/>
      <point x="443" y="433"/>
      <point x="474" y="436" type="curve"/>
      <point x="474" y="460" type="line"/>
      <point x="323" y="460" type="line"/>
      <point x="323" y="436" type="line"/>
      <point x="366" y="434"/>
      <point x="378" y="427"/>
      <point x="378" y="403" type="curve" smooth="yes"/>
      <point x="378" y="392"/>
      <point x="374.137" y="375.946"/>
      <point x="367" y="358" type="curve" smooth="yes"/>
      <point x="291.805" y="168.924" type="line"/>
      <point x="298.436" y="168.924" type="line"/>
      <point x="216" y="379" type="line" smooth="yes"/>
      <point x="208.603" y="397.849"/>
      <point x="207" y="404"/>
      <point x="207" y="410" type="curve" smooth="yes"/>
      <point x="207" y="430.457"/>
      <point x="230.34" y="433.667"/>
      <point x="260" y="436" type="curve"/>
      <point x="260" y="460" type="line"/>
      <point x="10" y="460" type="line"/>
    </contour>
  </outline>
</glyph>
<glyph name="w" format="2">
  <advance width="704"/>
  <unicode hex="0077"/>
  <anchor x="379" y="523" name="top"/>
  <anchor x="369" y="-50" name="bottom"/>
  <anchor x="370" y="523" name="t.ring"/>
  <outline>
    <contour>
      <point x="10" y="436" type="line"/>
      <point x="36" y="431"/>
      <point x="44.6822" y="413.361"/>
      <point x="53.6872" y="390.766" type="curve" smooth="yes"/>
      <point x="215" y="-14" type="line"/>
      <point x="239" y="-14" type="line"/>
      <point x="364" y="295" type="line"/>
      <point x="466" y="-14" type="line"/>
      <point x="489" y="-14" type="line"/>
      <point x="644" y="386" type="line" smooth="yes"/>
      <point x="658.565" y="423.588"/>
      <point x="668" y="431"/>
      <point x="694" y="436" type="curve"/>
      <point x="694" y="460" type="line"/>
      <point x="559" y="460" type="line"/>
      <point x="559" y="436" type="line"/>
      <point x="596" y="432"/>
      <point x="607" y="424"/>
      <point x="607" y="402.004" type="curve" smooth="yes"/>
      <point x="607" y="389"/>
      <point x="603.184" y="374.814"/>
      <point x="597.319" y="359.617" type="curve" smooth="yes"/>
      <point x="528" y="180" type="line"/>
      <point x="474.09" y="379.797" type="line" smooth="yes"/>
      <point x="469.379" y="397.26"/>
      <point x="467" y="409.134"/>
      <point x="467" y="415.212" type="curve" smooth="yes"/>
      <point x="467" y="428"/>
      <point x="477" y="433"/>
      <point x="515" y="436" type="curve"/>
      <point x="515" y="460" type="line"/>
      <point x="281" y="460" type="line"/>
      <point x="281" y="436" type="line"/>
      <point x="313.629" y="431.448"/>
      <point x="322.977" y="420.027"/>
      <point x="327.597" y="405.171" type="curve" smooth="yes"/>
      <point x="346" y="346" type="line"/>
      <point x="278" y="176" type="line"/>
      <point x="202.169" y="374.338" type="line" smooth="yes"/>
      <point x="198.3" y="384.457"/>
      <point x="194" y="395"/>
      <point x="194" y="406.499" type="curve" smooth="yes"/>
      <point x="194" y="424"/>
      <point x="204" y="432"/>
      <point x="232" y="436" type="curve"/>
      <point x="232" y="460" type="line"/>
      <point x="10" y="460" type="line"/>
    </contour>
  </outline>
  <guideline angle="90" x="379" y="0"/>
</glyph>
<glyph name="x" format="2">
  <advance width="492"/>
  <unicode hex="0078"/>
  <anchor x="243" y="523" name="top"/>
  <anchor x="239" y="-50" name="bottom"/>
  <outline>
    <contour>
      <point x="62" y="397" type="curve" smooth="yes"/>
      <point x="253" y="108" type="line" smooth="yes"/>
      <point x="275.43" y="74.062"/>
      <point x="284" y="56"/>
      <point x="284" y="44" type="curve" smooth="yes"/>
      <point x="284" y="32"/>
      <point x="273.733" y="26"/>
      <point x="251" y="24" type="curve"/>
      <point x="251" y="0" type="line"/>
      <point x="492" y="0" type="line"/>
      <point x="492" y="24" type="line"/>
      <point x="464.531" y="34.6521"/>
      <point x="455.104" y="44.9129"/>
      <point x="440.496" y="66.6083" type="curve" smooth="yes"/>
      <point x="220.047" y="394" type="line" smooth="yes"/>
      <point x="214.566" y="402.141"/>
      <point x="213" y="406.976"/>
      <point x="213" y="412.846" type="curve" smooth="yes"/>
      <point x="213" y="424.928"/>
      <point x="226.365" y="434.305"/>
      <point x="246" y="436" type="curve"/>
      <point x="246" y="460" type="line"/>
      <point x="10" y="460" type="line"/>
      <point x="10" y="436" type="line"/>
      <point x="36" y="432"/>
      <point x="42.1203" y="427.08"/>
    </contour>
    <contour>
      <point x="0" y="0" type="line"/>
      <point x="169" y="0" type="line"/>
      <point x="169" y="24" type="line"/>
      <point x="135.16" y="26"/>
      <point x="122" y="33"/>
      <point x="122" y="48" type="curve" smooth="yes"/>
      <point x="122" y="56.9435"/>
      <point x="131.897" y="71.6896"/>
      <point x="147.255" y="91.0995" type="curve" smooth="yes"/>
      <point x="219.983" y="183.013" type="line"/>
      <point x="199.18" y="212.863" type="line"/>
      <point x="121" y="117" type="line" smooth="yes"/>
      <point x="60.3618" y="42.6461"/>
      <point x="39.6195" y="26"/>
      <point x="0" y="24" type="curve"/>
    </contour>
    <contour>
      <point x="294.573" y="260.333" type="line"/>
      <point x="413" y="397" type="line" smooth="yes"/>
      <point x="432.537" y="419.546"/>
      <point x="452" y="431"/>
      <point x="483" y="436" type="curve"/>
      <point x="483" y="460" type="line"/>
      <point x="315" y="460" type="line"/>
      <point x="315" y="436" type="line"/>
      <point x="345.15" y="432.286"/>
      <point x="361" y="424.292"/>
      <point x="361" y="412.801" type="curve" smooth="yes"/>
      <point x="361" y="402.078"/>
      <point x="352.275" y="388.393"/>
      <point x="340.325" y="373.447" type="curve" smooth="yes"/>
      <point x="274.633" y="291.284" type="line"/>
    </contour>
  </outline>
  <guideline angle="0" x="0" y="394"/>
  <guideline angle="0" x="0" y="413"/>
</glyph>
<glyph name="y" format="2">
  <advance width="484"/>
  <unicode hex="0079"/>
  <anchor x="260" y="524" name="top"/>
  <anchor x="381" y="-50" name="bottom"/>
  <anchor x="260" y="524" name="t.ring"/>
  <outline>
    <contour>
      <point x="10" y="-145" type="curve" smooth="yes"/>
      <point x="10" y="-191"/>
      <point x="50" y="-224"/>
      <point x="107" y="-224" type="curve" smooth="yes"/>
      <point x="188.004" y="-224"/>
      <point x="219.262" y="-160.089"/>
      <point x="248.943" y="-78.7159" type="curve" smooth="yes"/>
      <point x="416" y="379.284" type="line" smooth="yes"/>
      <point x="431.952" y="423.017"/>
      <point x="443" y="432.906"/>
      <point x="474" y="436" type="curve"/>
      <point x="474" y="460" type="line"/>
      <point x="323" y="460" type="line"/>
      <point x="323" y="436" type="line"/>
      <point x="366" y="434"/>
      <point x="378" y="427"/>
      <point x="378" y="403" type="curve" smooth="yes"/>
      <point x="378" y="392"/>
      <point x="375.912" y="383.032"/>
      <point x="367" y="358" type="curve" smooth="yes"/>
      <point x="299" y="167" type="line"/>
      <point x="227" y="351" type="line" smooth="yes"/>
      <point x="218.875" y="371.765"/>
      <point x="208" y="402"/>
      <point x="208" y="410" type="curve" smooth="yes"/>
      <point x="208" y="431.433"/>
      <point x="242.751" y="434.922"/>
      <point x="260" y="436" type="curve"/>
      <point x="260" y="460" type="line"/>
      <point x="10" y="460" type="line"/>
      <point x="10" y="436" type="line"/>
      <point x="46.4313" y="430.715"/>
      <point x="66.4112" y="419.361"/>
      <point x="84.4848" y="369.891" type="curve" smooth="yes"/>
      <point x="230" y="-28.4109" type="line"/>
      <point x="212" y="-83.226" type="line" smooth="yes"/>
      <point x="195.017" y="-134.944"/>
      <point x="169" y="-167"/>
      <point x="146" y="-167" type="curve" smooth="yes"/>
      <point x="137" y="-167"/>
      <point x="128" y="-163"/>
      <point x="128" y="-154" type="curve" smooth="yes"/>
      <point x="128" y="-152.343"/>
      <point x="128.992" y="-146.255"/>
      <point x="130.118" y="-143.255" type="curve"/>
      <point x="130.971" y="-139.373"/>
      <point x="132" y="-134.686"/>
      <point x="132" y="-130" type="curve" smooth="yes"/>
      <point x="132" y="-101"/>
      <point x="108" y="-81"/>
      <point x="74" y="-81" type="curve" smooth="yes"/>
      <point x="37" y="-81"/>
      <point x="10" y="-107"/>
    </contour>
  </outline>
</glyph>
<glyph name="z" format="2">
  <advance width="419"/>
  <unicode hex="007A"/>
  <anchor x="213" y="523" name="top"/>
  <anchor x="164" y="-50" name="bottom"/>
  <outline>
    <contour>
      <point x="10" y="0" type="line"/>
      <point x="393" y="0" type="line"/>
      <point x="409" y="160" type="line"/>
      <point x="381" y="160" type="line"/>
      <point x="354" y="63"/>
      <point x="306" y="32"/>
      <point x="239.58" y="32" type="curve" smooth="yes"/>
      <point x="174" y="32" type="line"/>
      <point x="405" y="434" type="line"/>
      <point x="405" y="460" type="line"/>
      <point x="34" y="460" type="line"/>
      <point x="27" y="318" type="line"/>
      <point x="53" y="318" type="line"/>
      <point x="77" y="410"/>
      <point x="103.484" y="428"/>
      <point x="185.242" y="428" type="curve" smooth="yes"/>
      <point x="244" y="428" type="line"/>
      <point x="10" y="25" type="line"/>
    </contour>
  </outline>
</glyph>
<glyph name="bar" format="2">
  <advance width="220"/>
  <unicode hex="007C"/>
  <outline>
    <contour>
      <point x="66" y="-19" type="line"/>
      <point x="154" y="-19" type="line"/>
      <point x="154" y="691" type="line"/>
      <point x="66" y="691" type="line"/>
    </contour>
  </outline>
</glyph>
<glyph name="braceright" format="2">
  <advance width="394"/>
  <unicode hex="007D"/>
  <outline>
    <contour>
      <point x="54" y="-163" type="curve"/>
      <point x="54" y="-175" type="line"/>
      <point x="143" y="-174"/>
      <point x="183" y="-167"/>
      <point x="215" y="-146" type="curve"/>
      <point x="249" y="-125"/>
      <point x="265" y="-88"/>
      <point x="265" y="-33" type="curve" smooth="yes"/>
      <point x="265" y="146" type="line" smooth="yes"/>
      <point x="265" y="217"/>
      <point x="287" y="241"/>
      <point x="372" y="262" type="curve"/>
      <point x="287" y="283"/>
      <point x="265" y="307"/>
      <point x="265" y="378" type="curve" smooth="yes"/>
      <point x="265" y="557" type="line" smooth="yes"/>
      <point x="265" y="612"/>
      <point x="249" y="648"/>
      <point x="215" y="669" type="curve"/>
      <point x="183" y="690"/>
      <point x="144" y="697"/>
      <point x="54" y="698" type="curve"/>
      <point x="54" y="686" type="line"/>
      <point x="133" y="670"/>
      <point x="160" y="638"/>
      <point x="160" y="563" type="curve" smooth="yes"/>
      <point x="160" y="392" type="line" smooth="yes"/>
      <point x="160" y="308"/>
      <point x="184" y="282"/>
      <point x="278" y="262" type="curve"/>
      <point x="185" y="242"/>
      <point x="160" y="215"/>
      <point x="160" y="132" type="curve" smooth="yes"/>
      <point x="160" y="-39" type="line" smooth="yes"/>
      <point x="160" y="-115"/>
      <point x="134" y="-146"/>
    </contour>
  </outline>
</glyph>
<glyph name="exclamdown" format="2">
  <advance width="333"/>
  <unicode hex="00A1"/>
  <outline>
    <contour>
      <point x="84" y="418.128" type="curve" smooth="yes"/>
      <point x="84" y="371"/>
      <point x="122" y="332"/>
      <point x="168" y="332" type="curve" smooth="yes"/>
      <point x="215" y="332"/>
      <point x="253" y="371"/>
      <point x="253" y="418" type="curve" smooth="yes"/>
      <point x="253" y="464"/>
      <point x="215" y="501"/>
      <point x="167" y="501" type="curve" smooth="yes"/>
      <point x="120" y="501"/>
      <point x="84" y="464"/>
    </contour>
    <contour>
      <point x="83" y="-100.055" type="curve" smooth="yes"/>
      <point x="83" y="-166"/>
      <point x="114" y="-203"/>
      <point x="168" y="-203" type="curve" smooth="yes"/>
      <point x="221" y="-203"/>
      <point x="252" y="-166"/>
      <point x="252" y="-101" type="curve" smooth="yes"/>
      <point x="252" y="-78"/>
      <point x="248.541" y="-57.8268"/>
      <point x="231.021" y="-4.03391" type="curve" smooth="yes"/>
      <point x="203" y="82"/>
      <point x="195" y="131"/>
      <point x="182" y="254" type="curve"/>
      <point x="153" y="254" type="line"/>
      <point x="140" y="131"/>
      <point x="131" y="81"/>
      <point x="103.461" y="-5.47333" type="curve" smooth="yes"/>
      <point x="86.4677" y="-58.8335"/>
      <point x="83" y="-78"/>
    </contour>
  </outline>
</glyph>
<glyph name="cent" format="2">
  <advance width="500"/>
  <unicode hex="00A2"/>
  <outline>
    <contour>
      <point x="53" y="223" type="curve" smooth="yes"/>
      <point x="53" y="124.545"/>
      <point x="93.1438" y="47.5969"/>
      <point x="181" y="5" type="curve"/>
      <point x="130" y="-140" type="line"/>
      <point x="170" y="-140" type="line"/>
      <point x="217" y="-7" type="line"/>
      <point x="236" y="-12"/>
      <point x="248" y="-14"/>
      <point x="267" y="-14" type="curve" smooth="yes"/>
      <point x="354.619" y="-14"/>
      <point x="405.68" y="26.3698"/>
      <point x="458" y="91" type="curve"/>
      <point x="440" y="109" type="line"/>
      <point x="406" y="68"/>
      <point x="378" y="53"/>
      <point x="335" y="53" type="curve" smooth="yes"/>
      <point x="301" y="53"/>
      <point x="279" y="63"/>
      <point x="252" y="90" type="curve"/>
      <point x="334" y="320" type="line"/>
      <point x="346" y="306"/>
      <point x="360" y="300"/>
      <point x="378" y="300" type="curve" smooth="yes"/>
      <point x="417" y="300"/>
      <point x="444" y="326"/>
      <point x="444" y="364" type="curve" smooth="yes"/>
      <point x="444" y="401"/>
      <point x="425" y="428"/>
      <point x="381" y="452" type="curve"/>
      <point x="429" y="588" type="line"/>
      <point x="389" y="588" type="line"/>
      <point x="345" y="465" type="line"/>
      <point x="321" y="471"/>
      <point x="306" y="473"/>
      <point x="285" y="473" type="curve" smooth="yes"/>
      <point x="152" y="473"/>
      <point x="53" y="366"/>
    </contour>
    <contour>
      <point x="194" y="274" type="curve" smooth="yes"/>
      <point x="194" y="376"/>
      <point x="227" y="442"/>
      <point x="278" y="442" type="curve" smooth="yes"/>
      <point x="303" y="442"/>
      <point x="321" y="421"/>
      <point x="321" y="397" type="curve"/>
      <point x="225" y="128" type="line"/>
      <point x="203" y="174"/>
      <point x="194" y="216"/>
    </contour>
  </outline>
</glyph>
<glyph name="sterling" format="2">
  <advance width="500"/>
  <unicode hex="00A3"/>
  <outline>
    <contour>
      <point x="21" y="72" type="curve" smooth="yes"/>
      <point x="21" y="18"/>
      <point x="53" y="-13"/>
      <point x="110.086" y="-13" type="curve" smooth="yes"/>
      <point x="154.778" y="-13"/>
      <point x="189.317" y="6"/>
      <point x="222.841" y="49" type="curve"/>
      <point x="276.083" y="0"/>
      <point x="303.5" y="-14"/>
      <point x="342.927" y="-14" type="curve" smooth="yes"/>
      <point x="455.053" y="-14"/>
      <point x="469.577" y="99.2262"/>
      <point x="477" y="183" type="curve"/>
      <point x="454" y="183" type="line"/>
      <point x="439" y="129"/>
      <point x="416" y="112"/>
      <point x="360.169" y="112" type="curve" smooth="yes"/>
      <point x="327" y="112"/>
      <point x="300.562" y="118"/>
      <point x="258.458" y="134" type="curve"/>
      <point x="280.095" y="171.858"/>
      <point x="293.728" y="216.696"/>
      <point x="293.862" y="260.581" type="curve" smooth="yes"/>
      <point x="293.911" y="276.645"/>
      <point x="292.151" y="292.581"/>
      <point x="288.314" y="308" type="curve"/>
      <point x="384" y="308" type="line"/>
      <point x="384" y="373" type="line"/>
      <point x="271.188" y="373" type="line"/>
      <point x="244.313" y="434.287"/>
      <point x="233" y="497.602"/>
      <point x="233" y="572.29" type="curve" smooth="yes"/>
      <point x="233" y="624.169"/>
      <point x="255.521" y="654"/>
      <point x="287.833" y="654" type="curve" smooth="yes"/>
      <point x="312.898" y="654"/>
      <point x="331.462" y="638.736"/>
      <point x="331.462" y="611.326" type="curve" smooth="yes"/>
      <point x="331.462" y="597.153"/>
      <point x="326.894" y="577.694"/>
      <point x="326.894" y="562.167" type="curve" smooth="yes"/>
      <point x="326.894" y="524.088"/>
      <point x="354.371" y="499"/>
      <point x="392.606" y="499" type="curve" smooth="yes"/>
      <point x="433" y="499"/>
      <point x="459" y="527"/>
      <point x="459" y="572.316" type="curve" smooth="yes"/>
      <point x="459" y="640"/>
      <point x="401" y="684"/>
      <point x="310.735" y="684" type="curve" smooth="yes"/>
      <point x="193.698" y="684"/>
      <point x="105" y="610.029"/>
      <point x="105" y="485.54" type="curve" smooth="yes"/>
      <point x="105" y="459"/>
      <point x="109.032" y="414.866"/>
      <point x="119.222" y="373" type="curve"/>
      <point x="39" y="373" type="line"/>
      <point x="39" y="308" type="line"/>
      <point x="137.508" y="308" type="line"/>
      <point x="173.064" y="210"/>
      <point x="177.127" y="194"/>
      <point x="179.159" y="157" type="curve"/>
      <point x="158.841" y="162"/>
      <point x="145.635" y="164"/>
      <point x="127.349" y="164" type="curve" smooth="yes"/>
      <point x="58" y="164"/>
      <point x="21" y="132"/>
    </contour>
    <contour>
      <point x="53" y="67.8389" type="curve" smooth="yes"/>
      <point x="53" y="98"/>
      <point x="75" y="118"/>
      <point x="112.668" y="118" type="curve" smooth="yes"/>
      <point x="136.492" y="118"/>
      <point x="154.778" y="110"/>
      <point x="182.206" y="86" type="curve"/>
      <point x="167.984" y="37"/>
      <point x="146.651" y="17"/>
      <point x="111.325" y="17" type="curve" smooth="yes"/>
      <point x="76" y="17"/>
      <point x="53" y="37"/>
    </contour>
  </outline>
</glyph>
<glyph name="yen" format="2">
  <advance width="649"/>
  <unicode hex="00A5"/>
  <outline>
    <contour>
      <point x="162" y="0" type="line"/>
      <point x="493" y="0" type="line"/>
      <point x="493" y="25" type="line"/>
      <point x="410" y="32"/>
      <point x="394" y="47"/>
      <point x="394" y="115" type="curve" smooth="yes"/>
      <point x="394" y="164" type="line"/>
      <point x="529" y="164" type="line"/>
      <point x="529" y="214" type="line"/>
      <point x="394" y="214" type="line"/>
      <point x="394" y="281" type="line"/>
      <point x="398" y="292" type="line"/>
      <point x="529" y="292" type="line"/>
      <point x="529" y="342" type="line"/>
      <point x="418" y="342" type="line"/>
      <point x="562" y="613" type="line" smooth="yes"/>
      <point x="575" y="637"/>
      <point x="592" y="647"/>
      <point x="626" y="650" type="curve"/>
      <point x="626" y="676" type="line"/>
      <point x="421" y="676" type="line"/>
      <point x="421" y="650" type="line"/>
      <point x="485" y="647"/>
      <point x="499" y="639"/>
      <point x="499" y="607" type="curve" smooth="yes"/>
      <point x="499" y="595"/>
      <point x="496.553" y="582.732"/>
      <point x="491" y="572" type="curve" smooth="yes"/>
      <point x="372" y="342" type="line"/>
      <point x="266" y="549" type="line" smooth="yes"/>
      <point x="258" y="564"/>
      <point x="239" y="605"/>
      <point x="239" y="621" type="curve" smooth="yes"/>
      <point x="239" y="642"/>
      <point x="256" y="648"/>
      <point x="316" y="650" type="curve"/>
      <point x="316" y="676" type="line"/>
      <point x="15" y="676" type="line"/>
      <point x="15" y="650" type="line"/>
      <point x="56" y="647"/>
      <point x="79" y="633"/>
      <point x="98" y="597" type="curve" smooth="yes"/>
      <point x="228" y="342" type="line"/>
      <point x="129" y="342" type="line"/>
      <point x="129" y="292" type="line"/>
      <point x="253" y="292" type="line"/>
      <point x="264" y="271" type="line"/>
      <point x="264" y="214" type="line"/>
      <point x="129" y="214" type="line"/>
      <point x="129" y="164" type="line"/>
      <point x="264" y="164" type="line"/>
      <point x="264" y="115" type="line" smooth="yes"/>
      <point x="264" y="47"/>
      <point x="247" y="32"/>
      <point x="162" y="25" type="curve"/>
    </contour>
  </outline>
</glyph>
<glyph name="brokenbar" format="2">
  <advance width="220"/>
  <unicode hex="00A6"/>
  <outline>
    <contour>
      <point x="66" y="-19" type="line"/>
      <point x="154" y="-19" type="line"/>
      <point x="154" y="258" type="line"/>
      <point x="66" y="258" type="line"/>
    </contour>
    <contour>
      <point x="66" y="414" type="line"/>
      <point x="154" y="414" type="line"/>
      <point x="154" y="691" type="line"/>
      <point x="66" y="691" type="line"/>
    </contour>
  </outline>
</glyph>
<glyph name="section" format="2">
  <advance width="500"/>
  <unicode hex="00A7"/>
  <outline>
    <contour>
      <point x="57" y="290.563" type="curve" smooth="yes"/>
      <point x="57" y="247.611"/>
      <point x="69.2566" y="216.688"/>
      <point x="121.251" y="174.291" type="curve" smooth="yes"/>
      <point x="282" y="41" type="line" smooth="yes"/>
      <point x="309.94" y="17.9268"/>
      <point x="319" y="-7"/>
      <point x="319" y="-35.9532" type="curve" smooth="yes"/>
      <point x="319" y="-85"/>
      <point x="293" y="-109"/>
      <point x="243.434" y="-109" type="curve" smooth="yes"/>
      <point x="205.578" y="-109"/>
      <point x="173.976" y="-95"/>
      <point x="173.976" y="-80" type="curve"/>
      <point x="191.292" y="-69.0853"/>
      <point x="218" y="-48.5917"/>
      <point x="218" y="-21.2875" type="curve" smooth="yes"/>
      <point x="218" y="7"/>
      <point x="189.333" y="33"/>
      <point x="154.512" y="33" type="curve" smooth="yes"/>
      <point x="118.576" y="33"/>
      <point x="90" y="5"/>
      <point x="90" y="-32" type="curve" smooth="yes"/>
      <point x="90" y="-87"/>
      <point x="158.61" y="-132"/>
      <point x="242.788" y="-132" type="curve" smooth="yes"/>
      <point x="335" y="-132"/>
      <point x="404" y="-78"/>
      <point x="404" y="1.33739" type="curve" smooth="yes"/>
      <point x="404" y="47.3252"/>
      <point x="380.817" y="87.9202"/>
      <point x="316.474" y="133.529" type="curve" smooth="yes"/>
      <point x="302" y="143.789" type="line"/>
      <point x="319.345" y="143.789" type="line" smooth="yes"/>
      <point x="396.718" y="143.789"/>
      <point x="443" y="183.774"/>
      <point x="443" y="263.199" type="curve" smooth="yes"/>
      <point x="443" y="316.094"/>
      <point x="422.473" y="354.293"/>
      <point x="363.965" y="403.076" type="curve" smooth="yes"/>
      <point x="238.05" y="508.062" type="line" smooth="yes"/>
      <point x="196.769" y="543.305"/>
      <point x="175" y="572.137"/>
      <point x="175" y="602.684" type="curve" smooth="yes"/>
      <point x="175" y="640"/>
      <point x="207.489" y="668"/>
      <point x="256" y="668" type="curve" smooth="yes"/>
      <point x="284" y="668"/>
      <point x="310" y="658"/>
      <point x="310" y="647" type="curve"/>
      <point x="284.863" y="637.178"/>
      <point x="268" y="609.815"/>
      <point x="268" y="585" type="curve" smooth="yes"/>
      <point x="268" y="553.384"/>
      <point x="294.72" y="528"/>
      <point x="328" y="528" type="curve" smooth="yes"/>
      <point x="364.141" y="528"/>
      <point x="393" y="556.751"/>
      <point x="393" y="592" type="curve" smooth="yes"/>
      <point x="393" y="645"/>
      <point x="326" y="691"/>
      <point x="248" y="691" type="curve" smooth="yes"/>
      <point x="162.707" y="691"/>
      <point x="99" y="637"/>
      <point x="99" y="556.639" type="curve" smooth="yes"/>
      <point x="99" y="515.91"/>
      <point x="115.365" y="490.233"/>
      <point x="186.257" y="427.603" type="curve" smooth="yes"/>
      <point x="199.844" y="415" type="line"/>
      <point x="181.689" y="415" type="line" smooth="yes"/>
      <point x="101.061" y="415"/>
      <point x="57" y="372"/>
    </contour>
    <contour>
      <point x="133" y="327.191" type="curve" smooth="yes"/>
      <point x="133" y="368"/>
      <point x="156.561" y="392"/>
      <point x="187.422" y="392" type="curve" smooth="yes"/>
      <point x="209.302" y="392"/>
      <point x="236.271" y="379.03"/>
      <point x="256" y="361.706" type="curve" smooth="yes"/>
      <point x="324" y="302" type="line" smooth="yes"/>
      <point x="358.023" y="272.126"/>
      <point x="367" y="252"/>
      <point x="367" y="228.544" type="curve" smooth="yes"/>
      <point x="367" y="191"/>
      <point x="344" y="167"/>
      <point x="308.927" y="167" type="curve" smooth="yes"/>
      <point x="290.836" y="167"/>
      <point x="271.904" y="173.386"/>
      <point x="238.051" y="202.679" type="curve" smooth="yes"/>
      <point x="167.897" y="264.967" type="line" smooth="yes"/>
      <point x="140.792" y="287.862"/>
      <point x="133" y="303.723"/>
    </contour>
  </outline>
</glyph>
<glyph name="dieresis" format="2">
  <advance width="378"/>
  <unicode hex="00A8"/>
  <outline>
    <contour>
      <point x="20" y="602" type="curve" smooth="yes"/>
      <point x="20" y="564.983"/>
      <point x="47.0507" y="537"/>
      <point x="84" y="537" type="curve" smooth="yes"/>
      <point x="121.985" y="537"/>
      <point x="149" y="563.083"/>
      <point x="149" y="600" type="curve" smooth="yes"/>
      <point x="149" y="638.048"/>
      <point x="121.048" y="666"/>
      <point x="84" y="666" type="curve" smooth="yes"/>
      <point x="47.9835" y="666"/>
      <point x="20" y="638.017"/>
    </contour>
    <contour>
      <point x="229" y="603" type="curve" smooth="yes"/>
      <point x="229" y="564.015"/>
      <point x="255.083" y="537"/>
      <point x="292" y="537" type="curve" smooth="yes"/>
      <point x="330.985" y="537"/>
      <point x="358" y="563.083"/>
      <point x="358" y="600" type="curve" smooth="yes"/>
      <point x="358" y="638.08"/>
      <point x="330.08" y="666"/>
      <point x="292" y="666" type="curve" smooth="yes"/>
      <point x="257.015" y="666"/>
      <point x="229" y="637.985"/>
    </contour>
  </outline>
</glyph>
<glyph name="ordfeminine" format="2">
  <advance width="300"/>
  <unicode hex="00AA"/>
  <outline>
    <contour>
      <point x="-1" y="465.527" type="curve" smooth="yes"/>
      <point x="-1" y="424"/>
      <point x="29" y="397"/>
      <point x="78.2" y="397" type="curve" smooth="yes"/>
      <point x="110.627" y="397"/>
      <point x="138.853" y="409"/>
      <point x="175" y="438" type="curve"/>
      <point x="182" y="408"/>
      <point x="196" y="397"/>
      <point x="228" y="397" type="curve" smooth="yes"/>
      <point x="257" y="397"/>
      <point x="277" y="406"/>
      <point x="301" y="431" type="curve"/>
      <point x="291" y="443" type="line"/>
      <point x="287.016" y="438.36"/>
      <point x="281.822" y="435"/>
      <point x="276.647" y="435" type="curve" smooth="yes"/>
      <point x="271" y="435"/>
      <point x="268" y="439"/>
      <point x="268" y="450" type="curve" smooth="yes"/>
      <point x="268" y="606" type="line" smooth="yes"/>
      <point x="268" y="656"/>
      <point x="219" y="688"/>
      <point x="139.081" y="688" type="curve" smooth="yes"/>
      <point x="63" y="688"/>
      <point x="12" y="659"/>
      <point x="12" y="613" type="curve" smooth="yes"/>
      <point x="12" y="588"/>
      <point x="28" y="573"/>
      <point x="55.4657" y="573" type="curve" smooth="yes"/>
      <point x="82" y="573"/>
      <point x="98.4591" y="587"/>
      <point x="98.4591" y="604.641" type="curve" smooth="yes"/>
      <point x="98.4591" y="618.057"/>
      <point x="88.9554" y="634.682"/>
      <point x="82" y="643" type="curve"/>
      <point x="82" y="655"/>
      <point x="100.893" y="665"/>
      <point x="126.269" y="665" type="curve" smooth="yes"/>
      <point x="157.347" y="665"/>
      <point x="173" y="650"/>
      <point x="173" y="613" type="curve" smooth="yes"/>
      <point x="173" y="573" type="line"/>
      <point x="152.927" y="568.091" type="line"/>
      <point x="34.3934" y="535.576"/>
      <point x="-1" y="510.632"/>
    </contour>
    <contour>
      <point x="97" y="480.018" type="curve" smooth="yes"/>
      <point x="97" y="509.388"/>
      <point x="115.921" y="533.27"/>
      <point x="155.312" y="546.913" type="curve" smooth="yes"/>
      <point x="170" y="552" type="line"/>
      <point x="170" y="465" type="line"/>
      <point x="156.373" y="447"/>
      <point x="143.72" y="439"/>
      <point x="129.859" y="439" type="curve" smooth="yes"/>
      <point x="109.653" y="439"/>
      <point x="97" y="456"/>
    </contour>
  </outline>
</glyph>
<glyph name="guillemotleft" format="2">
  <advance width="543"/>
  <unicode hex="00AB"/>
  <outline>
    <contour>
      <point x="261" y="225" type="line"/>
      <point x="324.858" y="179.601" type="line" smooth="yes"/>
      <point x="359.281" y="155.129"/>
      <point x="405.751" y="117.932"/>
      <point x="443.279" y="83.7414" type="curve" smooth="yes"/>
      <point x="473.912" y="55.8327"/>
      <point x="499.44" y="36"/>
      <point x="507.966" y="36" type="curve" smooth="yes"/>
      <point x="514" y="36"/>
      <point x="518" y="45.9351"/>
      <point x="518" y="53.0537" type="curve" smooth="yes"/>
      <point x="518" y="85.8892"/>
      <point x="432.893" y="204.038"/>
      <point x="407" y="227" type="curve"/>
      <point x="433.465" y="252.419"/>
      <point x="516" y="366"/>
      <point x="516" y="395" type="curve" smooth="yes"/>
      <point x="516" y="403"/>
      <point x="510.016" y="415"/>
      <point x="503.134" y="415" type="curve" smooth="yes"/>
      <point x="494.24" y="415"/>
      <point x="469.697" y="394.957"/>
      <point x="445.369" y="371.979" type="curve" smooth="yes"/>
      <point x="407.632" y="336.338"/>
      <point x="360.159" y="299.048"/>
      <point x="325.076" y="274.265" type="curve" smooth="yes"/>
      <point x="261" y="229" type="line"/>
    </contour>
    <contour>
      <point x="51" y="225" type="line"/>
      <point x="114.858" y="179.601" type="line" smooth="yes"/>
      <point x="149.281" y="155.129"/>
      <point x="195.751" y="117.932"/>
      <point x="233.279" y="83.7414" type="curve" smooth="yes"/>
      <point x="263.912" y="55.8327"/>
      <point x="289.44" y="36"/>
      <point x="297.966" y="36" type="curve" smooth="yes"/>
      <point x="304" y="36"/>
      <point x="308" y="45.9351"/>
      <point x="308" y="53.0537" type="curve" smooth="yes"/>
      <point x="308" y="85.8892"/>
      <point x="222.893" y="204.038"/>
      <point x="197" y="227" type="curve"/>
      <point x="223.465" y="252.419"/>
      <point x="306" y="366"/>
      <point x="306" y="395" type="curve" smooth="yes"/>
      <point x="306" y="403"/>
      <point x="300.016" y="415"/>
      <point x="293.134" y="415" type="curve" smooth="yes"/>
      <point x="284.24" y="415"/>
      <point x="259.697" y="394.957"/>
      <point x="235.369" y="371.979" type="curve" smooth="yes"/>
      <point x="197.632" y="336.338"/>
      <point x="150.159" y="299.048"/>
      <point x="115.076" y="274.265" type="curve" smooth="yes"/>
      <point x="51" y="229" type="line"/>
    </contour>
  </outline>
</glyph>
<glyph name="registered" format="2">
  <advance width="747"/>
  <unicode hex="00AE"/>
  <outline>
    <contour>
      <point x="26" y="335" type="curve" smooth="yes"/>
      <point x="26" y="138"/>
      <point x="178" y="-19"/>
      <point x="369" y="-19" type="curve" smooth="yes"/>
      <point x="571" y="-19"/>
      <point x="721" y="133"/>
      <point x="721" y="337" type="curve" smooth="yes"/>
      <point x="721" y="536"/>
      <point x="569" y="691"/>
      <point x="374" y="691" type="curve" smooth="yes"/>
      <point x="178" y="691"/>
      <point x="26" y="535"/>
    </contour>
    <contour>
      <point x="97" y="335" type="curve" smooth="yes"/>
      <point x="97" y="504"/>
      <point x="220" y="639"/>
      <point x="374" y="639" type="curve" smooth="yes"/>
      <point x="527" y="639"/>
      <point x="650" y="504"/>
      <point x="650" y="336" type="curve" smooth="yes"/>
      <point x="650" y="166"/>
      <point x="528" y="33"/>
      <point x="370" y="33" type="curve" smooth="yes"/>
      <point x="220" y="33"/>
      <point x="97" y="169"/>
    </contour>
    <contour>
      <point x="207" y="153" type="line"/>
      <point x="379" y="153" type="line"/>
      <point x="379" y="171" type="line"/>
      <point x="334" y="174"/>
      <point x="333" y="175"/>
      <point x="333" y="215" type="curve" smooth="yes"/>
      <point x="333" y="320" type="line"/>
      <point x="370" y="320" type="line"/>
      <point x="391" y="286"/>
      <point x="401" y="270"/>
      <point x="419" y="234" type="curve" smooth="yes"/>
      <point x="450" y="174"/>
      <point x="466" y="153"/>
      <point x="482" y="153" type="curve" smooth="yes"/>
      <point x="563" y="153" type="line"/>
      <point x="563" y="164" type="line"/>
      <point x="542" y="184"/>
      <point x="522" y="209"/>
      <point x="493" y="249" type="curve" smooth="yes"/>
      <point x="435" y="331" type="line"/>
      <point x="488" y="352"/>
      <point x="515" y="388"/>
      <point x="515" y="436" type="curve" smooth="yes"/>
      <point x="515" y="495"/>
      <point x="471" y="532"/>
      <point x="400" y="532" type="curve" smooth="yes"/>
      <point x="207" y="532" type="line"/>
      <point x="207" y="514" type="line"/>
      <point x="253" y="511"/>
      <point x="253" y="511"/>
      <point x="253" y="470" type="curve" smooth="yes"/>
      <point x="253" y="215" type="line" smooth="yes"/>
      <point x="253" y="175"/>
      <point x="252" y="174"/>
      <point x="207" y="171" type="curve"/>
    </contour>
    <contour>
      <point x="333" y="342" type="line"/>
      <point x="333" y="510" type="line"/>
      <point x="369" y="510" type="line" smooth="yes"/>
      <point x="410" y="510"/>
      <point x="430" y="484"/>
      <point x="430" y="430" type="curve" smooth="yes"/>
      <point x="430" y="374"/>
      <point x="407" y="342"/>
      <point x="368" y="342" type="curve" smooth="yes"/>
    </contour>
  </outline>
</glyph>
<glyph name="macron" format="2">
  <advance width="470"/>
  <unicode hex="00AF"/>
  <outline>
    <contour>
      <point x="70" y="550" type="line"/>
      <point x="400" y="550" type="line"/>
      <point x="400" y="622" type="line"/>
      <point x="70" y="622" type="line"/>
    </contour>
  </outline>
</glyph>
<glyph name="acute" format="2">
  <advance width="298"/>
  <unicode hex="00B4"/>
  <outline>
    <contour>
      <point x="30" y="523" type="line"/>
      <point x="86" y="523" type="line"/>
      <point x="228" y="611" type="line" smooth="yes"/>
      <point x="260.076" y="630.878"/>
      <point x="268" y="641"/>
      <point x="268" y="664" type="curve" smooth="yes"/>
      <point x="268" y="690"/>
      <point x="249" y="708"/>
      <point x="220" y="708" type="curve" smooth="yes"/>
      <point x="201" y="708"/>
      <point x="183.763" y="699.21"/>
      <point x="167" y="680" type="curve" smooth="yes"/>
    </contour>
  </outline>
</glyph>
<glyph name="uni00B5" format="2">
  <advance width="556"/>
  <unicode hex="00B5"/>
  <outline>
    <contour>
      <point x="33" y="-129" type="curve" smooth="yes"/>
      <point x="33" y="-178"/>
      <point x="57" y="-206"/>
      <point x="98" y="-206" type="curve" smooth="yes"/>
      <point x="138" y="-206"/>
      <point x="161" y="-179"/>
      <point x="161" y="-130" type="curve" smooth="yes"/>
      <point x="161" y="-113"/>
      <point x="157" y="-93"/>
      <point x="146" y="-59" type="curve"/>
      <point x="134" y="-18"/>
      <point x="132" y="-11"/>
      <point x="128" y="22" type="curve"/>
      <point x="160" y="-3"/>
      <point x="190" y="-13"/>
      <point x="230" y="-13" type="curve" smooth="yes"/>
      <point x="271" y="-13"/>
      <point x="298" y="1"/>
      <point x="329" y="39" type="curve"/>
      <point x="351" y="3"/>
      <point x="382" y="-13"/>
      <point x="430" y="-13" type="curve" smooth="yes"/>
      <point x="472" y="-13"/>
      <point x="492" y="-3"/>
      <point x="536" y="36" type="curve"/>
      <point x="536" y="60" type="line"/>
      <point x="527" y="55"/>
      <point x="522" y="54"/>
      <point x="515" y="54" type="curve" smooth="yes"/>
      <point x="493" y="54"/>
      <point x="475" y="75"/>
      <point x="475" y="101" type="curve" smooth="yes"/>
      <point x="475" y="461" type="line"/>
      <point x="336" y="461" type="line"/>
      <point x="336" y="102" type="line"/>
      <point x="308" y="84"/>
      <point x="283" y="75"/>
      <point x="262" y="75" type="curve" smooth="yes"/>
      <point x="228" y="75"/>
      <point x="205" y="105"/>
      <point x="205" y="149" type="curve" smooth="yes"/>
      <point x="205" y="461" type="line"/>
      <point x="66" y="461" type="line"/>
      <point x="66" y="88" type="line" smooth="yes"/>
      <point x="66" y="35"/>
      <point x="60" y="-10"/>
      <point x="44" y="-72" type="curve" smooth="yes"/>
      <point x="36" y="-101"/>
      <point x="33" y="-116"/>
    </contour>
  </outline>
</glyph>
<glyph name="paragraph" format="2">
  <advance width="539"/>
  <unicode hex="00B6"/>
  <outline>
    <contour>
      <point x="10" y="471" type="curve" smooth="yes"/>
      <point x="10" y="337.066"/>
      <point x="79.4" y="270.082"/>
      <point x="209" y="265" type="curve"/>
      <point x="209" y="-60" type="line" smooth="yes"/>
      <point x="209" y="-150.332"/>
      <point x="193.311" y="-152.93"/>
      <point x="128" y="-161" type="curve"/>
      <point x="128" y="-186" type="line"/>
      <point x="303" y="-186" type="line"/>
      <point x="303" y="651" type="line"/>
      <point x="353" y="651" type="line"/>
      <point x="353" y="-186" type="line"/>
      <point x="524" y="-186" type="line"/>
      <point x="524" y="-161" type="line"/>
      <point x="463.794" y="-151.979"/>
      <point x="447" y="-144.249"/>
      <point x="447" y="-60" type="curve" smooth="yes"/>
      <point x="447" y="551" type="line" smooth="yes"/>
      <point x="447" y="619.941"/>
      <point x="460.338" y="644.758"/>
      <point x="529" y="651" type="curve"/>
      <point x="529" y="676" type="line"/>
      <point x="229" y="676" type="line" smooth="yes"/>
      <point x="79" y="676"/>
      <point x="10" y="605"/>
    </contour>
    <contour>
      <point x="100" y="485.213" type="curve" smooth="yes"/>
      <point x="100" y="571.16"/>
      <point x="121.849" y="627.983"/>
      <point x="209" y="651" type="curve"/>
      <point x="209" y="290" type="line"/>
      <point x="134" y="317"/>
      <point x="100" y="378"/>
    </contour>
  </outline>
</glyph>
<glyph name="periodcentered" format="2">
  <advance width="250"/>
  <unicode hex="00B7"/>
  <outline>
    <contour>
      <point x="41" y="333" type="curve" smooth="yes"/>
      <point x="41" y="285"/>
      <point x="77" y="248"/>
      <point x="124" y="248" type="curve" smooth="yes"/>
      <point x="172" y="248"/>
      <point x="210" y="285"/>
      <point x="210" y="332" type="curve" smooth="yes"/>
      <point x="210" y="378"/>
      <point x="172" y="417"/>
      <point x="125" y="417" type="curve" smooth="yes"/>
      <point x="79" y="417"/>
      <point x="41" y="378"/>
    </contour>
  </outline>
</glyph>
<glyph name="cedilla" format="2">
  <advance width="333"/>
  <unicode hex="00B8"/>
  <outline>
    <contour>
      <point x="68" y="-200" type="line"/>
      <point x="104" y="-213"/>
      <point x="131" y="-218"/>
      <point x="162.322" y="-218" type="curve" smooth="yes"/>
      <point x="244" y="-218"/>
      <point x="294" y="-184"/>
      <point x="294" y="-129" type="curve" smooth="yes"/>
      <point x="294" y="-85"/>
      <point x="261" y="-59"/>
      <point x="204.149" y="-59" type="curve" smooth="yes"/>
      <point x="193" y="-59"/>
      <point x="185" y="-60"/>
      <point x="173" y="-64" type="curve"/>
      <point x="201" y="0" type="line"/>
      <point x="159" y="0" type="line"/>
      <point x="116" y="-96" type="line"/>
      <point x="127" y="-104" type="line"/>
      <point x="138" y="-101"/>
      <point x="146" y="-100"/>
      <point x="155" y="-100" type="curve" smooth="yes"/>
      <point x="184" y="-100"/>
      <point x="201" y="-114"/>
      <point x="201" y="-136" type="curve" smooth="yes"/>
      <point x="201" y="-162"/>
      <point x="180" y="-177"/>
      <point x="139.16" y="-177" type="curve" smooth="yes"/>
      <point x="120.501" y="-177"/>
      <point x="105.98" y="-173.869"/>
      <point x="84" y="-163" type="curve"/>
    </contour>
  </outline>
</glyph>
<glyph name="uni00B9" format="2">
  <advance width="300"/>
  <unicode hex="00B9"/>
  <outline>
    <contour>
      <point x="30" y="275" type="line"/>
      <point x="288" y="275" type="line"/>
      <point x="288" y="295" type="line"/>
      <point x="224" y="299"/>
      <point x="218" y="305"/>
      <point x="218" y="345" type="curve" smooth="yes"/>
      <point x="218" y="688" type="line"/>
      <point x="207" y="688" type="line"/>
      <point x="28" y="623" type="line"/>
      <point x="28" y="602" type="line"/>
      <point x="84.5079" y="596.073"/>
      <point x="107" y="580.279"/>
      <point x="107" y="524.999" type="curve" smooth="yes"/>
      <point x="107" y="345" type="line" smooth="yes"/>
      <point x="107" y="305"/>
      <point x="94" y="299"/>
      <point x="30" y="295" type="curve"/>
    </contour>
  </outline>
</glyph>
<glyph name="ordmasculine" format="2">
  <advance width="330"/>
  <unicode hex="00BA"/>
  <outline>
    <contour>
      <point x="18" y="542.5" type="curve" smooth="yes"/>
      <point x="18" y="459.168"/>
      <point x="80" y="397"/>
      <point x="165.697" y="397" type="curve" smooth="yes"/>
      <point x="250" y="397"/>
      <point x="312" y="457.16"/>
      <point x="312" y="541.659" type="curve" smooth="yes"/>
      <point x="312" y="626.836"/>
      <point x="249" y="688"/>
      <point x="165" y="688" type="curve" smooth="yes"/>
      <point x="81" y="688"/>
      <point x="18" y="626.836"/>
    </contour>
    <contour>
      <point x="115" y="544.368" type="curve" smooth="yes"/>
      <point x="115" y="635.872"/>
      <point x="127" y="668"/>
      <point x="165" y="668" type="curve" smooth="yes"/>
      <point x="202" y="668"/>
      <point x="214" y="636.876"/>
      <point x="214" y="543.896" type="curve" smooth="yes"/>
      <point x="214" y="447.12"/>
      <point x="201" y="417"/>
      <point x="165.089" y="417" type="curve" smooth="yes"/>
      <point x="128" y="417"/>
      <point x="115" y="449.128"/>
    </contour>
  </outline>
</glyph>
<glyph name="guillemotright" format="2">
  <advance width="500"/>
  <unicode hex="00BB"/>
  <outline>
    <contour>
      <point x="235" y="53.0537" type="curve" smooth="yes"/>
      <point x="235" y="45.9351"/>
      <point x="239" y="36"/>
      <point x="245.034" y="36" type="curve" smooth="yes"/>
      <point x="253.56" y="36"/>
      <point x="279.088" y="55.8327"/>
      <point x="309.721" y="83.7414" type="curve" smooth="yes"/>
      <point x="347.249" y="117.932"/>
      <point x="393.719" y="155.129"/>
      <point x="428.142" y="179.601" type="curve" smooth="yes"/>
      <point x="492" y="225" type="line"/>
      <point x="492" y="229" type="line"/>
      <point x="427.924" y="274.265" type="line" smooth="yes"/>
      <point x="392.841" y="299.048"/>
      <point x="345.368" y="336.338"/>
      <point x="307.631" y="371.979" type="curve" smooth="yes"/>
      <point x="283.303" y="394.957"/>
      <point x="258.76" y="415"/>
      <point x="249.866" y="415" type="curve" smooth="yes"/>
      <point x="242.984" y="415"/>
      <point x="237" y="403"/>
      <point x="237" y="395" type="curve" smooth="yes"/>
      <point x="237" y="366"/>
      <point x="319.535" y="252.419"/>
      <point x="346" y="227" type="curve"/>
      <point x="320.107" y="204.038"/>
      <point x="235" y="85.8892"/>
    </contour>
    <contour>
      <point x="25" y="53.0537" type="curve" smooth="yes"/>
      <point x="25" y="45.9351"/>
      <point x="29" y="36"/>
      <point x="35.0342" y="36" type="curve" smooth="yes"/>
      <point x="43.5597" y="36"/>
      <point x="69.0876" y="55.8327"/>
      <point x="99.7208" y="83.7414" type="curve" smooth="yes"/>
      <point x="137.249" y="117.932"/>
      <point x="183.719" y="155.129"/>
      <point x="218.142" y="179.601" type="curve" smooth="yes"/>
      <point x="282" y="225" type="line"/>
      <point x="282" y="229" type="line"/>
      <point x="217.924" y="274.265" type="line" smooth="yes"/>
      <point x="182.841" y="299.048"/>
      <point x="135.368" y="336.338"/>
      <point x="97.6312" y="371.979" type="curve" smooth="yes"/>
      <point x="73.303" y="394.957"/>
      <point x="48.7601" y="415"/>
      <point x="39.8658" y="415" type="curve" smooth="yes"/>
      <point x="32.9838" y="415"/>
      <point x="27" y="403"/>
      <point x="27" y="395" type="curve" smooth="yes"/>
      <point x="27" y="366"/>
      <point x="109.535" y="252.419"/>
      <point x="136" y="227" type="curve"/>
      <point x="110.107" y="204.038"/>
      <point x="25" y="85.8892"/>
    </contour>
  </outline>
</glyph>
<glyph name="onequarter" format="2">
  <advance width="750"/>
  <unicode hex="00BC"/>
  <outline>
    <contour>
      <point x="174" y="-12" type="line"/>
      <point x="232" y="-12" type="line"/>
      <point x="670.667" y="688" type="line"/>
      <point x="614.065" y="688" type="line"/>
    </contour>
    <contour>
      <point x="447" y="87" type="line"/>
      <point x="608" y="87" type="line"/>
      <point x="608" y="0" type="line"/>
      <point x="702" y="0" type="line"/>
      <point x="702" y="87" type="line"/>
      <point x="743" y="87" type="line"/>
      <point x="743" y="153" type="line"/>
      <point x="702" y="153" type="line"/>
      <point x="702" y="413" type="line"/>
      <point x="649.441" y="413" type="line"/>
      <point x="447" y="154" type="line"/>
    </contour>
    <contour>
      <point x="472" y="153" type="line"/>
      <point x="608" y="328" type="line"/>
      <point x="608" y="153" type="line"/>
    </contour>
    <contour>
      <point x="15" y="275" type="line"/>
      <point x="273" y="275" type="line"/>
      <point x="273" y="295" type="line"/>
      <point x="209" y="299"/>
      <point x="203" y="305"/>
      <point x="203" y="345" type="curve" smooth="yes"/>
      <point x="203" y="688" type="line"/>
      <point x="192" y="688" type="line"/>
      <point x="13" y="623" type="line"/>
      <point x="13" y="602" type="line"/>
      <point x="69.5079" y="596.073"/>
      <point x="92" y="580.279"/>
      <point x="92" y="524.999" type="curve" smooth="yes"/>
      <point x="92" y="345" type="line" smooth="yes"/>
      <point x="92" y="305"/>
      <point x="79" y="299"/>
      <point x="15" y="295" type="curve"/>
    </contour>
  </outline>
</glyph>
<glyph name="onehalf" format="2">
  <advance width="750"/>
  <unicode hex="00BD"/>
  <outline>
    <contour>
      <point x="132" y="-12" type="line"/>
      <point x="190" y="-12" type="line"/>
      <point x="629" y="688" type="line"/>
      <point x="573" y="688" type="line"/>
    </contour>
    <contour>
      <point x="475" y="0" type="line"/>
      <point x="745" y="0" type="line"/>
      <point x="775" y="127" type="line"/>
      <point x="759" y="127" type="line"/>
      <point x="740" y="84"/>
      <point x="732" y="80"/>
      <point x="666" y="80" type="curve" smooth="yes"/>
      <point x="574" y="80" type="line"/>
      <point x="673" y="172" type="line" smooth="yes"/>
      <point x="726" y="222"/>
      <point x="747" y="258"/>
      <point x="747" y="300.862" type="curve" smooth="yes"/>
      <point x="747" y="367"/>
      <point x="697" y="413"/>
      <point x="627" y="413" type="curve" smooth="yes"/>
      <point x="563" y="413"/>
      <point x="518" y="375"/>
      <point x="484" y="291" type="curve"/>
      <point x="508" y="291" type="line"/>
      <point x="529" y="330"/>
      <point x="550" y="345"/>
      <point x="580.333" y="345" type="curve" smooth="yes"/>
      <point x="626" y="345"/>
      <point x="659" y="311"/>
      <point x="659" y="262.026" type="curve" smooth="yes"/>
      <point x="659" y="215.529"/>
      <point x="629.253" y="170.558"/>
      <point x="507.859" y="47.1124" type="curve" smooth="yes"/>
      <point x="475" y="14" type="line"/>
    </contour>
    <contour>
      <point x="-20" y="275" type="line"/>
      <point x="238" y="275" type="line"/>
      <point x="238" y="295" type="line"/>
      <point x="174" y="299"/>
      <point x="168" y="305"/>
      <point x="168" y="345" type="curve" smooth="yes"/>
      <point x="168" y="688" type="line"/>
      <point x="157" y="688" type="line"/>
      <point x="-22" y="623" type="line"/>
      <point x="-22" y="602" type="line"/>
      <point x="34.5079" y="596.073"/>
      <point x="57" y="580.279"/>
      <point x="57" y="524.999" type="curve" smooth="yes"/>
      <point x="57" y="345" type="line" smooth="yes"/>
      <point x="57" y="305"/>
      <point x="44" y="299"/>
      <point x="-20" y="295" type="curve"/>
    </contour>
  </outline>
</glyph>
<glyph name="threequarters" format="2">
  <advance width="750"/>
  <unicode hex="00BE"/>
  <outline>
    <component base="uni2083" xOffset="20" yOffset="478"/>
    <contour>
      <point x="172" y="-12" type="line"/>
      <point x="230" y="-12" type="line"/>
      <point x="669" y="688" type="line"/>
      <point x="613" y="688" type="line"/>
    </contour>
    <contour>
      <point x="437" y="87" type="line"/>
      <point x="598" y="87" type="line"/>
      <point x="598" y="0" type="line"/>
      <point x="692" y="0" type="line"/>
      <point x="692" y="87" type="line"/>
      <point x="733" y="87" type="line"/>
      <point x="733" y="153" type="line"/>
      <point x="692" y="153" type="line"/>
      <point x="692" y="413" type="line"/>
      <point x="640" y="413" type="line"/>
      <point x="437" y="154" type="line"/>
    </contour>
    <contour>
      <point x="462" y="153" type="line"/>
      <point x="599" y="328" type="line"/>
      <point x="599" y="153" type="line"/>
    </contour>
  </outline>
</glyph>
<glyph name="questiondown" format="2">
  <advance width="500"/>
  <unicode hex="00BF"/>
  <outline>
    <contour>
      <point x="55" y="-35" type="curve" smooth="yes"/>
      <point x="55" y="-135"/>
      <point x="135" y="-201"/>
      <point x="255" y="-201" type="curve" smooth="yes"/>
      <point x="365" y="-201"/>
      <point x="443" y="-141"/>
      <point x="443" y="-57" type="curve" smooth="yes"/>
      <point x="443" y="-13"/>
      <point x="414" y="19"/>
      <point x="375" y="19" type="curve" smooth="yes"/>
      <point x="337" y="19"/>
      <point x="312" y="-7"/>
      <point x="312" y="-45" type="curve" smooth="yes"/>
      <point x="312" y="-65"/>
      <point x="317" y="-77"/>
      <point x="334" y="-96" type="curve" smooth="yes"/>
      <point x="346" y="-109"/>
      <point x="349" y="-115"/>
      <point x="349" y="-125" type="curve" smooth="yes"/>
      <point x="349" y="-149"/>
      <point x="324" y="-165"/>
      <point x="288" y="-165" type="curve" smooth="yes"/>
      <point x="235" y="-165"/>
      <point x="204" y="-117"/>
      <point x="204" y="-35" type="curve" smooth="yes"/>
      <point x="204" y="17"/>
      <point x="214" y="52"/>
      <point x="247" y="114" type="curve" smooth="yes"/>
      <point x="271" y="160"/>
      <point x="279" y="183"/>
      <point x="279" y="211" type="curve" smooth="yes"/>
      <point x="279" y="222"/>
      <point x="279" y="227"/>
      <point x="277" y="257" type="curve"/>
      <point x="247" y="257" type="line"/>
      <point x="247" y="184"/>
      <point x="239" y="170"/>
      <point x="176" y="131" type="curve" smooth="yes"/>
      <point x="85" y="75"/>
      <point x="55" y="34"/>
    </contour>
    <contour>
      <point x="177" y="417" type="curve" smooth="yes"/>
      <point x="177" y="371"/>
      <point x="215" y="332"/>
      <point x="261" y="332" type="curve" smooth="yes"/>
      <point x="307" y="332"/>
      <point x="346" y="371"/>
      <point x="346" y="416" type="curve" smooth="yes"/>
      <point x="346" y="464"/>
      <point x="309" y="501"/>
      <point x="261" y="501" type="curve" smooth="yes"/>
      <point x="214" y="501"/>
      <point x="177" y="464"/>
    </contour>
  </outline>
</glyph>
<glyph name="AE" format="2">
  <advance width="1000"/>
  <unicode hex="00C6"/>
  <outline>
    <contour>
      <point x="4" y="0" type="line"/>
      <point x="210" y="0" type="line"/>
      <point x="210" y="25" type="line"/>
      <point x="182.87" y="25.8752"/>
      <point x="127" y="36.6194"/>
      <point x="127" y="70" type="curve" smooth="yes"/>
      <point x="127" y="82"/>
      <point x="131" y="95"/>
      <point x="142" y="115" type="curve" smooth="yes"/>
      <point x="242" y="303" type="line"/>
      <point x="432" y="303" type="line"/>
      <point x="432" y="119" type="line" smooth="yes"/>
      <point x="432" y="45"/>
      <point x="417" y="29"/>
      <point x="344" y="25" type="curve"/>
      <point x="344" y="0" type="line"/>
      <point x="910" y="0" type="line"/>
      <point x="951" y="211" type="line"/>
      <point x="928" y="211" type="line"/>
      <point x="896.539" y="93.0211"/>
      <point x="793.883" y="34.0264"/>
      <point x="680.155" y="34.0069" type="curve" smooth="yes"/>
      <point x="640" y="34" type="line" smooth="yes"/>
      <point x="600" y="33.9931"/>
      <point x="592" y="45"/>
      <point x="592" y="88" type="curve" smooth="yes"/>
      <point x="592" y="329.059" type="line"/>
      <point x="602" y="329" type="line"/>
      <point x="710.209" y="328.36"/>
      <point x="729" y="298"/>
      <point x="747" y="174" type="curve"/>
      <point x="770" y="174" type="line"/>
      <point x="770" y="512" type="line"/>
      <point x="747" y="512" type="line"/>
      <point x="719" y="383"/>
      <point x="710.374" y="366.516"/>
      <point x="602" y="363" type="curve" smooth="yes"/>
      <point x="592" y="362.676" type="line"/>
      <point x="592" y="611" type="line" smooth="yes"/>
      <point x="592" y="635"/>
      <point x="609" y="641.001"/>
      <point x="640" y="641" type="curve" smooth="yes"/>
      <point x="671.692" y="640.999" type="line" smooth="yes"/>
      <point x="816.639" y="640.993"/>
      <point x="855.972" y="612.984"/>
      <point x="884" y="475" type="curve"/>
      <point x="909" y="475" type="line"/>
      <point x="909" y="676" type="line"/>
      <point x="275" y="676" type="line"/>
      <point x="275" y="654" type="line"/>
      <point x="341" y="650"/>
      <point x="362" y="641"/>
      <point x="362" y="617" type="curve" smooth="yes"/>
      <point x="362" y="607"/>
      <point x="351.866" y="587.647"/>
      <point x="334" y="555" type="curve" smooth="yes"/>
      <point x="114" y="153" type="line" smooth="yes"/>
      <point x="51.8901" y="39.5083"/>
      <point x="43" y="31"/>
      <point x="4" y="25" type="curve"/>
    </contour>
    <contour>
      <point x="264" y="343" type="line"/>
      <point x="425" y="633" type="line"/>
      <point x="432" y="633" type="line"/>
      <point x="432" y="343" type="line"/>
    </contour>
  </outline>
</glyph>
<glyph name="multiply" format="2">
  <advance width="570"/>
  <unicode hex="00D7"/>
  <outline>
    <contour>
      <point x="48" y="78" type="line"/>
      <point x="110" y="16" type="line"/>
      <point x="285" y="192" type="line"/>
      <point x="460" y="16" type="line"/>
      <point x="522" y="78" type="line"/>
      <point x="346" y="253" type="line"/>
      <point x="522" y="428" type="line"/>
      <point x="460" y="490" type="line"/>
      <point x="285" y="314" type="line"/>
      <point x="110" y="490" type="line"/>
      <point x="48" y="428" type="line"/>
      <point x="223" y="253" type="line"/>
    </contour>
  </outline>
</glyph>
<glyph name="Oslash" format="2">
  <advance width="778"/>
  <unicode hex="00D8"/>
  <anchor x="389" y="735" name="top"/>
  <anchor x="447" y="0" name="b.ogonek"/>
  <outline>
    <component base="O"/>
    <contour>
      <point x="118.291" y="-14" type="line"/>
      <point x="168.291" y="-14" type="line"/>
      <point x="214.765" y="48.5334" type="line"/>
      <point x="232.416" y="73.8773" type="line"/>
      <point x="555.74" y="547.571" type="line"/>
      <point x="594.129" y="603" type="line"/>
      <point x="651.5" y="686" type="line"/>
      <point x="601.5" y="686" type="line"/>
      <point x="559.129" y="625" type="line"/>
      <point x="535.74" y="592.571" type="line"/>
      <point x="213.416" y="120.877" type="line"/>
      <point x="179.765" y="70.5334" type="line"/>
    </contour>
  </outline>
</glyph>
<glyph name="eth" format="2">
  <advance width="500"/>
  <unicode hex="00F0"/>
  <outline>
    <contour>
      <point x="25" y="229" type="curve" smooth="yes"/>
      <point x="25" y="89"/>
      <point x="121" y="-14"/>
      <point x="253.85" y="-14" type="curve" smooth="yes"/>
      <point x="393" y="-14"/>
      <point x="476" y="99"/>
      <point x="476" y="298.187" type="curve" smooth="yes"/>
      <point x="476" y="427.95"/>
      <point x="440.774" y="527.3"/>
      <point x="335" y="614" type="curve"/>
      <point x="427" y="661" type="line"/>
      <point x="378" y="691" type="line"/>
      <point x="288" y="645" type="line"/>
      <point x="238" y="671"/>
      <point x="189" y="685"/>
      <point x="128" y="691" type="curve"/>
      <point x="82" y="666" type="line"/>
      <point x="132" y="657"/>
      <point x="172" y="639"/>
      <point x="215" y="608" type="curve"/>
      <point x="98" y="549" type="line"/>
      <point x="146" y="518" type="line"/>
      <point x="256" y="574" type="line"/>
      <point x="297" y="533"/>
      <point x="323" y="492"/>
      <point x="342" y="435" type="curve"/>
      <point x="340" y="432" type="line"/>
      <point x="314" y="462"/>
      <point x="291" y="473"/>
      <point x="249" y="473" type="curve" smooth="yes"/>
      <point x="122" y="473"/>
      <point x="25" y="368"/>
    </contour>
    <contour>
      <point x="172" y="222" type="curve" smooth="yes"/>
      <point x="172" y="388"/>
      <point x="191" y="442"/>
      <point x="249.729" y="442" type="curve" smooth="yes"/>
      <point x="309" y="442"/>
      <point x="329" y="387"/>
      <point x="329" y="225.961" type="curve" smooth="yes"/>
      <point x="329" y="69"/>
      <point x="310" y="17"/>
      <point x="253.164" y="17" type="curve" smooth="yes"/>
      <point x="193.502" y="17"/>
      <point x="172" y="74.2983"/>
    </contour>
  </outline>
</glyph>
<glyph name="oslash" format="2">
  <advance width="502"/>
  <unicode hex="00F8"/>
  <anchor x="250" y="523" name="top"/>
  <anchor x="285" y="0" name="b.ogonek"/>
  <outline>
    <component base="o"/>
    <contour>
      <point x="78.8222" y="-14" type="line"/>
      <point x="125.822" y="-14" type="line"/>
      <point x="151.717" y="25.8624" type="line"/>
      <point x="175.376" y="67.0819" type="line"/>
      <point x="334.624" y="336.918" type="line"/>
      <point x="380.344" y="413.101" type="line"/>
      <point x="418.285" y="474" type="line"/>
      <point x="370.285" y="474" type="line"/>
      <point x="347.339" y="435.104" type="line"/>
      <point x="323.631" y="394.914" type="line"/>
      <point x="165.369" y="127.086" type="line"/>
      <point x="117.658" y="48.8978" type="line"/>
    </contour>
  </outline>
</glyph>
<glyph name="thorn" format="2">
  <advance width="556"/>
  <unicode hex="00FE"/>
  <outline>
    <contour>
      <point x="204" y="48.9733" type="line"/>
      <point x="248.204" y="4.32472"/>
      <point x="283.867" y="-13"/>
      <point x="330.008" y="-13" type="curve" smooth="yes"/>
      <point x="444" y="-13"/>
      <point x="524" y="92.738"/>
      <point x="524" y="237.773" type="curve" smooth="yes"/>
      <point x="524" y="378.203"/>
      <point x="449" y="473"/>
      <point x="334.525" y="473" type="curve" smooth="yes"/>
      <point x="274.293" y="473"/>
      <point x="231.405" y="446.755"/>
      <point x="204" y="391.134" type="curve"/>
      <point x="204" y="346.374" type="line"/>
      <point x="230.084" y="385.597"/>
      <point x="272.004" y="416"/>
      <point x="305.321" y="416" type="curve" smooth="yes"/>
      <point x="352" y="416"/>
      <point x="376" y="356.321"/>
      <point x="376" y="235.344" type="curve" smooth="yes"/>
      <point x="376" y="104.674"/>
      <point x="348" y="44"/>
      <point x="290.946" y="44" type="curve" smooth="yes"/>
      <point x="255.59" y="44"/>
      <point x="221.413" y="67.2996"/>
      <point x="204" y="104.674" type="curve"/>
    </contour>
    <contour>
      <point x="19" y="-205" type="line"/>
      <point x="292" y="-205" type="line"/>
      <point x="292" y="-184" type="line"/>
      <point x="231" y="-176"/>
      <point x="214" y="-160"/>
      <point x="214" y="-120" type="curve" smooth="yes"/>
      <point x="214" y="676" type="line"/>
      <point x="20" y="676" type="line"/>
      <point x="20" y="652" type="line"/>
      <point x="66" y="643"/>
      <point x="75" y="634"/>
      <point x="75" y="594" type="curve" smooth="yes"/>
      <point x="75" y="-120" type="line" smooth="yes"/>
      <point x="75" y="-160"/>
      <point x="67" y="-173"/>
      <point x="19" y="-181" type="curve"/>
    </contour>
  </outline>
</glyph>
<glyph name="Hbar" format="2">
  <advance width="774"/>
  <unicode hex="0126"/>
  <outline>
    <component base="H"/>
    <contour>
      <point x="56" y="458" type="line"/>
      <point x="711" y="458" type="line"/>
      <point x="711" y="505" type="line"/>
      <point x="56" y="505" type="line"/>
    </contour>
  </outline>
</glyph>
<glyph name="dotlessi" format="2">
  <advance width="275"/>
  <unicode hex="0131"/>
  <anchor x="138" y="523" name="top"/>
  <anchor x="143" y="0" name="b.ogonek"/>
  <anchor x="143" y="-50" name="bottom"/>
  <outline>
    <contour>
      <point x="70" y="83.85" type="line" smooth="yes" name=".sk1"/>
      <point x="70" y="44.0368"/>
      <point x="56.5977" y="29.1453"/>
      <point x="16" y="23.85" type="curve"/>
      <point x="16" y="-0.150002" type="line"/>
      <point x="263" y="-0.150002" type="line"/>
      <point x="263" y="23.85" type="line"/>
      <point x="222.402" y="29.1453"/>
      <point x="209" y="44.0368"/>
      <point x="209" y="83.85" type="curve" smooth="yes"/>
      <point x="209" y="460" type="line"/>
      <point x="138.5" y="460.448" type="line" name=".sk2"/>
      <point x="16" y="460.446" type="line"/>
      <point x="16" y="436.446" type="line"/>
      <point x="56.5977" y="431.151"/>
      <point x="70" y="416.259"/>
      <point x="70" y="376.446" type="curve" smooth="yes"/>
    </contour>
  </outline>
  <guideline angle="90" x="138" y="0"/>
</glyph>
<glyph name="kgreenlandic" format="2">
  <advance width="556"/>
  <unicode hex="0138"/>
  <outline>
    <contour>
      <point x="22" y="0" type="line"/>
      <point x="261" y="0" type="line"/>
      <point x="261" y="24" type="line"/>
      <point x="214" y="31"/>
      <point x="209" y="37"/>
      <point x="209" y="84" type="curve" smooth="yes"/>
      <point x="209" y="198" type="line"/>
      <point x="232" y="222" type="line"/>
      <point x="327" y="88" type="line" smooth="yes"/>
      <point x="344" y="63"/>
      <point x="351" y="51"/>
      <point x="351" y="43" type="curve" smooth="yes"/>
      <point x="351" y="31"/>
      <point x="337" y="25"/>
      <point x="309" y="24" type="curve"/>
      <point x="309" y="0" type="line"/>
      <point x="543" y="0" type="line"/>
      <point x="543" y="24" type="line"/>
      <point x="532" y="24"/>
      <point x="527" y="27"/>
      <point x="518" y="39" type="curve" smooth="yes"/>
      <point x="324" y="307" type="line"/>
      <point x="353.287" y="337.395" type="line" smooth="yes"/>
      <point x="424.115" y="410.902"/>
      <point x="458.769" y="438.205"/>
      <point x="507.878" y="438.205" type="curve" smooth="yes"/>
      <point x="513" y="438.205" type="line"/>
      <point x="513" y="461" type="line"/>
      <point x="299" y="461" type="line"/>
      <point x="299" y="438" type="line"/>
      <point x="336.812" y="434.919"/>
      <point x="358" y="427.732"/>
      <point x="358" y="412.479" type="curve" smooth="yes"/>
      <point x="358" y="402"/>
      <point x="348" y="384"/>
      <point x="337" y="373" type="curve" smooth="yes"/>
      <point x="209" y="245" type="line"/>
      <point x="209" y="377" type="line" smooth="yes"/>
      <point x="209" y="424"/>
      <point x="214" y="430"/>
      <point x="261" y="437" type="curve"/>
      <point x="261" y="461" type="line"/>
      <point x="23" y="461" type="line"/>
      <point x="23" y="437" type="line"/>
      <point x="56" y="434"/>
      <point x="70" y="416"/>
      <point x="70" y="379" type="curve" smooth="yes"/>
      <point x="70" y="84" type="line" smooth="yes"/>
      <point x="70" y="45"/>
      <point x="55" y="27"/>
      <point x="22" y="24" type="curve"/>
    </contour>
  </outline>
</glyph>
<glyph name="lslash" format="2">
  <advance width="278"/>
  <unicode hex="0142"/>
  <outline>
    <component base="l"/>
    <contour>
      <point x="186" y="384.77" type="line"/>
      <point x="303" y="480" type="line"/>
      <point x="303" y="530" type="line"/>
      <point x="186" y="434" type="line"/>
    </contour>
    <contour>
      <point x="-22" y="239" type="line"/>
      <point x="87" y="327.457" type="line"/>
      <point x="87" y="377.354" type="line"/>
      <point x="-22" y="289" type="line"/>
    </contour>
  </outline>
</glyph>
<glyph name="eng" format="2">
  <advance width="556"/>
  <unicode hex="014B"/>
  <outline>
    <contour>
      <point x="21" y="0" type="line"/>
      <point x="262" y="0" type="line"/>
      <point x="262" y="24" type="line"/>
      <point x="225" y="29"/>
      <point x="213" y="44"/>
      <point x="213" y="81" type="curve" smooth="yes"/>
      <point x="213" y="348" type="line"/>
      <point x="230.284" y="383.245"/>
      <point x="264.024" y="406"/>
      <point x="297.517" y="406" type="curve" smooth="yes"/>
      <point x="334" y="406"/>
      <point x="351" y="379"/>
      <point x="351" y="323" type="curve" smooth="yes"/>
      <point x="351" y="-96" type="line" smooth="yes"/>
      <point x="351" y="-149"/>
      <point x="336" y="-172"/>
      <point x="303" y="-172" type="curve" smooth="yes"/>
      <point x="284" y="-172"/>
      <point x="271" y="-165"/>
      <point x="271" y="-155" type="curve" smooth="yes"/>
      <point x="271" y="-150"/>
      <point x="274" y="-143"/>
      <point x="280" y="-133" type="curve" smooth="yes"/>
      <point x="290" y="-117"/>
      <point x="294" y="-106"/>
      <point x="294" y="-94.8829" type="curve" smooth="yes"/>
      <point x="294" y="-66"/>
      <point x="267" y="-42"/>
      <point x="233.169" y="-42" type="curve" smooth="yes"/>
      <point x="198.641" y="-42"/>
      <point x="173" y="-67"/>
      <point x="173" y="-104.939" type="curve" smooth="yes"/>
      <point x="173" y="-162"/>
      <point x="231" y="-203"/>
      <point x="318.235" y="-203" type="curve" smooth="yes"/>
      <point x="445.895" y="-203"/>
      <point x="490" y="-115.196"/>
      <point x="490" y="2" type="curve" smooth="yes"/>
      <point x="490" y="332" type="line" smooth="yes"/>
      <point x="490" y="418"/>
      <point x="437" y="473"/>
      <point x="355" y="473" type="curve" smooth="yes"/>
      <point x="295" y="473"/>
      <point x="249" y="445"/>
      <point x="213" y="386" type="curve"/>
      <point x="213" y="461" type="line"/>
      <point x="21" y="461" type="line"/>
      <point x="21" y="437" type="line"/>
      <point x="65" y="430"/>
      <point x="74" y="420"/>
      <point x="74" y="378" type="curve" smooth="yes"/>
      <point x="74" y="84" type="line" smooth="yes"/>
      <point x="74" y="42"/>
      <point x="66" y="33"/>
      <point x="21" y="24" type="curve"/>
    </contour>
  </outline>
</glyph>
<glyph name="oe" format="2">
  <advance width="722"/>
  <unicode hex="0153"/>
  <outline>
    <contour>
      <point x="22" y="232.887" type="curve" smooth="yes"/>
      <point x="22" y="91"/>
      <point x="108" y="-14"/>
      <point x="246.446" y="-14" type="curve" smooth="yes"/>
      <point x="297" y="-14"/>
      <point x="343" y="0"/>
      <point x="383" y="34" type="curve"/>
      <point x="413" y="0"/>
      <point x="446" y="-14"/>
      <point x="501.198" y="-14" type="curve" smooth="yes"/>
      <point x="582" y="-14"/>
      <point x="631" y="16"/>
      <point x="696" y="109" type="curve"/>
      <point x="676" y="125" type="line"/>
      <point x="631" y="73"/>
      <point x="604" y="58"/>
      <point x="562.535" y="58" type="curve" smooth="yes"/>
      <point x="481" y="58"/>
      <point x="444" y="116"/>
      <point x="444" y="225" type="curve" smooth="yes"/>
      <point x="444" y="245" type="line"/>
      <point x="693" y="245" type="line"/>
      <point x="685.916" y="366.674"/>
      <point x="647.982" y="473"/>
      <point x="511.286" y="473" type="curve" smooth="yes"/>
      <point x="452" y="473"/>
      <point x="404.503" y="453"/>
      <point x="373" y="423.123" type="curve"/>
      <point x="338" y="458.517"/>
      <point x="296" y="473"/>
      <point x="244.08" y="473" type="curve" smooth="yes"/>
      <point x="110" y="473"/>
      <point x="22" y="376.414"/>
    </contour>
    <contour>
      <point x="167" y="240.039" type="curve" smooth="yes"/>
      <point x="167" y="404.241"/>
      <point x="189" y="443"/>
      <point x="231.462" y="443" type="curve" smooth="yes"/>
      <point x="299.282" y="443"/>
      <point x="308" y="344.129"/>
      <point x="308" y="235" type="curve" smooth="yes"/>
      <point x="308" y="95.0071"/>
      <point x="301.703" y="16"/>
      <point x="240.332" y="16" type="curve" smooth="yes"/>
      <point x="192" y="16"/>
      <point x="167" y="65"/>
    </contour>
    <contour>
      <point x="444" y="282" type="line"/>
      <point x="444" y="335.667" type="line" smooth="yes"/>
      <point x="444" y="406.228"/>
      <point x="467" y="443"/>
      <point x="509" y="443" type="curve" smooth="yes"/>
      <point x="549" y="443"/>
      <point x="571" y="412.252"/>
      <point x="571" y="337.654" type="curve" smooth="yes"/>
      <point x="571" y="282" type="line"/>
    </contour>
  </outline>
</glyph>
<glyph name="Tbar" format="2">
  <advance width="667"/>
  <unicode hex="0166"/>
  <outline>
    <component base="T"/>
    <contour>
      <point x="166" y="313" type="line"/>
      <point x="502" y="313" type="line"/>
      <point x="502" y="360" type="line"/>
      <point x="166" y="360" type="line"/>
    </contour>
  </outline>
</glyph>
<glyph name="tbar" format="2">
  <advance width="333"/>
  <unicode hex="0167"/>
  <outline>
    <component base="t"/>
    <contour>
      <point x="20" y="299" type="line"/>
      <point x="305" y="299" type="line"/>
      <point x="305" y="346" type="line"/>
      <point x="20" y="346" type="line"/>
    </contour>
  </outline>
</glyph>
<glyph name="longs" format="2">
  <advance width="333"/>
  <unicode hex="017F"/>
  <anchor x="180" y="735" name="top"/>
  <outline>
    <contour>
      <point x="14" y="0" type="line"/>
      <point x="292" y="0" type="line"/>
      <point x="292" y="24" type="line"/>
      <point x="230" y="29"/>
      <point x="210" y="40"/>
      <point x="210" y="90" type="curve" smooth="yes"/>
      <point x="210" y="583" type="line" smooth="yes"/>
      <point x="210" y="638"/>
      <point x="225" y="660"/>
      <point x="258.886" y="660" type="curve" smooth="yes"/>
      <point x="278" y="660"/>
      <point x="289" y="653"/>
      <point x="289" y="642.489" type="curve"/>
      <point x="276.371" y="626.862"/>
      <point x="267" y="610.689"/>
      <point x="267" y="582.449" type="curve" smooth="yes"/>
      <point x="267" y="553"/>
      <point x="293" y="529"/>
      <point x="328.138" y="529" type="curve" smooth="yes"/>
      <point x="364" y="529"/>
      <point x="389" y="554"/>
      <point x="389" y="591" type="curve" smooth="yes"/>
      <point x="389" y="650"/>
      <point x="330" y="691"/>
      <point x="237.842" y="691" type="curve" smooth="yes"/>
      <point x="91.906" y="691"/>
      <point x="71" y="588.188"/>
      <point x="71" y="461" type="curve"/>
      <point x="14" y="461" type="line"/>
      <point x="14" y="417" type="line"/>
      <point x="71" y="417" type="line"/>
      <point x="71" y="90" type="line" smooth="yes"/>
      <point x="71" y="40"/>
      <point x="60" y="29"/>
      <point x="14" y="24" type="curve"/>
    </contour>
  </outline>
</glyph>
<glyph name="uni018F" format="2">
  <advance width="778"/>
  <unicode hex="018F"/>
  <outline>
    <contour>
      <point x="35" y="321" type="line"/>
      <point x="42.9953" y="121.118"/>
      <point x="188.882" y="-19"/>
      <point x="389" y="-19" type="curve" smooth="yes"/>
      <point x="595.708" y="-19"/>
      <point x="763" y="128.708"/>
      <point x="763" y="336" type="curve" smooth="yes"/>
      <point x="763" y="549"/>
      <point x="611.4" y="691"/>
      <point x="384" y="691" type="curve" smooth="yes"/>
      <point x="277.418" y="691"/>
      <point x="195.022" y="647.883"/>
      <point x="105" y="545" type="curve"/>
      <point x="135" y="520" type="line"/>
      <point x="210.861" y="604.159"/>
      <point x="285.386" y="643"/>
      <point x="371" y="643" type="curve" smooth="yes"/>
      <point x="500" y="643"/>
      <point x="586" y="506.572"/>
      <point x="586" y="301.931" type="curve" smooth="yes"/>
      <point x="586" y="126.624"/>
      <point x="496.767" y="14"/>
      <point x="389" y="14" type="curve" smooth="yes"/>
      <point x="280.456" y="14"/>
      <point x="200.761" y="125.751"/>
      <point x="186.725" y="297.637" type="curve"/>
      <point x="173" y="284" type="line"/>
      <point x="600.5" y="284" type="line"/>
      <point x="600.5" y="321" type="line"/>
    </contour>
  </outline>
</glyph>
<glyph name="uni0190" format="2">
  <advance width="654"/>
  <unicode hex="0190"/>
  <outline>
    <contour>
      <point x="51" y="183" type="curve" smooth="yes"/>
      <point x="51" y="29"/>
      <point x="210" y="-17"/>
      <point x="337" y="-17" type="curve" smooth="yes"/>
      <point x="460" y="-17"/>
      <point x="518" y="10"/>
      <point x="605" y="91" type="curve"/>
      <point x="579" y="112" type="line"/>
      <point x="515" y="50"/>
      <point x="477" y="36"/>
      <point x="382" y="36" type="curve" smooth="yes"/>
      <point x="286" y="36"/>
      <point x="241" y="110"/>
      <point x="241" y="198" type="curve" smooth="yes"/>
      <point x="241" y="328"/>
      <point x="303" y="339"/>
      <point x="418" y="339" type="curve"/>
      <point x="418" y="379" type="line"/>
      <point x="312" y="379"/>
      <point x="241" y="388"/>
      <point x="241" y="515" type="curve" smooth="yes"/>
      <point x="241" y="593"/>
      <point x="271" y="650"/>
      <point x="356" y="650" type="curve" smooth="yes"/>
      <point x="459" y="650"/>
      <point x="532" y="547"/>
      <point x="566" y="461" type="curve"/>
      <point x="589" y="461" type="line"/>
      <point x="579" y="690" type="line"/>
      <point x="556" y="690" type="line"/>
      <point x="556" y="668.1"/>
      <point x="541.245" y="650"/>
      <point x="518" y="650" type="curve" smooth="yes"/>
      <point x="494" y="650"/>
      <point x="458" y="666"/>
      <point x="435" y="672" type="curve" smooth="yes"/>
      <point x="393" y="684"/>
      <point x="350" y="690"/>
      <point x="306" y="690" type="curve" smooth="yes"/>
      <point x="203" y="690"/>
      <point x="64" y="654"/>
      <point x="64" y="527" type="curve" smooth="yes"/>
      <point x="64" y="423"/>
      <point x="154" y="375"/>
      <point x="245" y="359" type="curve"/>
      <point x="245" y="357" type="line"/>
      <point x="150" y="335"/>
      <point x="51" y="300"/>
    </contour>
  </outline>
</glyph>
<glyph name="florin" format="2">
  <advance width="500"/>
  <unicode hex="0192"/>
  <outline>
    <contour>
      <point x="0" y="-78.9775" type="curve" smooth="yes"/>
      <point x="0" y="-125"/>
      <point x="36" y="-155"/>
      <point x="97.9242" y="-155" type="curve" smooth="yes"/>
      <point x="273.381" y="-155"/>
      <point x="303.561" y="85.8479"/>
      <point x="311.896" y="225.145" type="curve" smooth="yes"/>
      <point x="322" y="394" type="line"/>
      <point x="444" y="394" type="line"/>
      <point x="444" y="440" type="line"/>
      <point x="322" y="440" type="line"/>
      <point x="327" y="530" type="line" smooth="yes"/>
      <point x="332.241" y="624.329"/>
      <point x="353.121" y="676"/>
      <point x="386" y="676" type="curve" smooth="yes"/>
      <point x="398" y="676"/>
      <point x="407.513" y="669.201"/>
      <point x="409" y="661" type="curve"/>
      <point x="398.413" y="649.815"/>
      <point x="391" y="630.047"/>
      <point x="391" y="613" type="curve" smooth="yes"/>
      <point x="391" y="585.152"/>
      <point x="410.665" y="567"/>
      <point x="442.361" y="567" type="curve" smooth="yes"/>
      <point x="478.161" y="567"/>
      <point x="498" y="590.157"/>
      <point x="498" y="623.694" type="curve" smooth="yes"/>
      <point x="498" y="673.09"/>
      <point x="454.963" y="706"/>
      <point x="392.297" y="706" type="curve" smooth="yes"/>
      <point x="290.303" y="706"/>
      <point x="224.098" y="618.82"/>
      <point x="194" y="440" type="curve"/>
      <point x="74" y="440" type="line"/>
      <point x="74" y="394" type="line"/>
      <point x="190" y="394" type="line"/>
      <point x="167" y="-12" type="line" smooth="yes"/>
      <point x="163.152" y="-79.9205"/>
      <point x="139" y="-125"/>
      <point x="112" y="-125" type="curve" smooth="yes"/>
      <point x="101" y="-125"/>
      <point x="90" y="-117"/>
      <point x="90" y="-109" type="curve"/>
      <point x="98.6398" y="-99.5657"/>
      <point x="108" y="-85.0184"/>
      <point x="108" y="-67.2463" type="curve" smooth="yes"/>
      <point x="108" y="-40"/>
      <point x="86" y="-20"/>
      <point x="55" y="-20" type="curve" smooth="yes"/>
      <point x="22" y="-20"/>
      <point x="0" y="-43"/>
    </contour>
  </outline>
</glyph>
<glyph name="uni019F" format="2">
  <advance width="778"/>
  <unicode hex="019F"/>
  <outline>
    <component base="O"/>
    <contour>
      <point x="177.5" y="323" type="line"/>
      <point x="600.5" y="323" type="line"/>
      <point x="600.5" y="370" type="line"/>
      <point x="177.5" y="370" type="line"/>
    </contour>
  </outline>
</glyph>
<glyph name="Ohorn" format="2">
  <advance width="823"/>
  <unicode hex="01A0"/>
  <anchor x="389" y="735" name="top"/>
  <anchor x="390" y="-50" name="bottom"/>
  <outline>
    <component base="O"/>
    <contour>
      <point x="594" y="630" type="curve" smooth="yes"/>
      <point x="569.819" y="630.345" type="line"/>
      <point x="570.43" y="606.656" type="line"/>
      <point x="624" y="607" type="line" smooth="yes"/>
      <point x="712.996" y="607.571"/>
      <point x="787" y="658"/>
      <point x="787" y="737.052" type="curve" smooth="yes"/>
      <point x="787" y="783"/>
      <point x="762" y="820"/>
      <point x="718.092" y="820" type="curve" smooth="yes"/>
      <point x="682" y="820"/>
      <point x="651" y="795"/>
      <point x="651" y="755" type="curve" smooth="yes"/>
      <point x="651" y="733.566"/>
      <point x="659.359" y="720.484"/>
      <point x="672.371" y="704.419" type="curve" smooth="yes"/>
      <point x="680.571" y="694.294"/>
      <point x="688" y="685.134"/>
      <point x="688" y="672.239" type="curve" smooth="yes"/>
      <point x="688" y="635.018"/>
      <point x="626.107" y="629.542"/>
    </contour>
  </outline>
</glyph>
<glyph name="ohorn" format="2">
  <advance width="540"/>
  <unicode hex="01A1"/>
  <anchor x="250" y="523" name="top"/>
  <anchor x="250" y="-50" name="bottom"/>
  <outline>
    <contour>
      <point x="355.763" y="396.633" type="line"/>
      <point x="413" y="408" type="line" smooth="yes"/>
      <point x="493.187" y="423.925"/>
      <point x="552" y="474.698"/>
      <point x="552" y="534.711" type="curve" smooth="yes"/>
      <point x="552" y="576.014"/>
      <point x="524.143" y="605"/>
      <point x="481.869" y="605" type="curve" smooth="yes"/>
      <point x="441.547" y="605"/>
      <point x="416" y="578.629"/>
      <point x="416" y="541" type="curve" smooth="yes"/>
      <point x="416" y="509.984"/>
      <point x="432.412" y="487.867"/>
      <point x="466.424" y="473.048" type="curve"/>
      <point x="456.281" y="453.837"/>
      <point x="432.882" y="440.351"/>
      <point x="390" y="429" type="curve" smooth="yes"/>
      <point x="356" y="420" type="line"/>
    </contour>
    <contour>
      <point x="25" y="230" type="curve" smooth="yes"/>
      <point x="25" y="90"/>
      <point x="120" y="-14"/>
      <point x="250" y="-14" type="curve" smooth="yes"/>
      <point x="380" y="-14"/>
      <point x="475" y="90"/>
      <point x="475" y="230" type="curve" smooth="yes"/>
      <point x="475" y="370.2"/>
      <point x="379.815" y="473"/>
      <point x="250" y="473" type="curve" smooth="yes"/>
      <point x="120.185" y="473"/>
      <point x="25" y="370.2"/>
    </contour>
    <contour>
      <point x="172" y="230" type="curve" smooth="yes"/>
      <point x="172" y="391.538"/>
      <point x="190.566" y="442"/>
      <point x="250" y="442" type="curve" smooth="yes"/>
      <point x="309.434" y="442"/>
      <point x="328" y="391.538"/>
      <point x="328" y="230" type="curve" smooth="yes"/>
      <point x="328" y="68.0769"/>
      <point x="309.296" y="17"/>
      <point x="250" y="17" type="curve" smooth="yes"/>
      <point x="190.704" y="17"/>
      <point x="172" y="68.0769"/>
    </contour>
  </outline>
</glyph>
<glyph name="Uhorn" format="2">
  <advance width="778"/>
  <unicode hex="01AF"/>
  <anchor x="386" y="735" name="top"/>
  <anchor x="400" y="-50" name="bottom"/>
  <outline>
    <contour>
      <point x="16" y="651" type="line"/>
      <point x="86" y="644"/>
      <point x="98" y="631"/>
      <point x="98" y="559" type="curve" smooth="yes"/>
      <point x="98" y="225" type="line" smooth="yes"/>
      <point x="98" y="55.9805"/>
      <point x="203.756" y="-19"/>
      <point x="363.446" y="-19" type="curve" smooth="yes"/>
      <point x="540.704" y="-19"/>
      <point x="623" y="73.3849"/>
      <point x="623" y="247" type="curve" smooth="yes"/>
      <point x="623" y="552" type="line" smooth="yes"/>
      <point x="623" y="604.442"/>
      <point x="657.239" y="652.417"/>
      <point x="707.668" y="660.614" type="curve" smooth="yes"/>
      <point x="754.927" y="668.296"/>
      <point x="790" y="711.242"/>
      <point x="790" y="770.018" type="curve" smooth="yes"/>
      <point x="790" y="819.893"/>
      <point x="762.906" y="853"/>
      <point x="720.523" y="853" type="curve" smooth="yes"/>
      <point x="682.993" y="853"/>
      <point x="654" y="827.039"/>
      <point x="654" y="789.891" type="curve" smooth="yes"/>
      <point x="654" y="763"/>
      <point x="669.192" y="742.277"/>
      <point x="678.756" y="734.243" type="curve" smooth="yes"/>
      <point x="684.999" y="728.999"/>
      <point x="691" y="720"/>
      <point x="691" y="708" type="curve" smooth="yes"/>
      <point x="691" y="678"/>
      <point x="651" y="676"/>
      <point x="623" y="676" type="curve" smooth="yes"/>
      <point x="481" y="676" type="line"/>
      <point x="481" y="651" type="line"/>
      <point x="559" y="645"/>
      <point x="579" y="625"/>
      <point x="579" y="552" type="curve" smooth="yes"/>
      <point x="579" y="247" type="line" smooth="yes"/>
      <point x="579" y="99"/>
      <point x="523" y="30"/>
      <point x="408.177" y="30" type="curve" smooth="yes"/>
      <point x="302" y="30"/>
      <point x="257" y="89"/>
      <point x="257" y="225" type="curve" smooth="yes"/>
      <point x="257" y="559" type="line" smooth="yes"/>
      <point x="257" y="640.393"/>
      <point x="279.38" y="647.891"/>
      <point x="354" y="651" type="curve"/>
      <point x="354" y="676" type="line"/>
      <point x="16" y="676" type="line"/>
    </contour>
  </outline>
</glyph>
